G04*
G04 #@! TF.GenerationSoftware,Altium Limited,Altium Designer,24.5.2 (23)*
G04*
G04 Layer_Physical_Order=1*
G04 Layer_Color=255*
%FSLAX44Y44*%
%MOMM*%
G71*
G04*
G04 #@! TF.SameCoordinates,334194BA-0611-49C7-9BF9-9A22E77FB9F2*
G04*
G04*
G04 #@! TF.FilePolarity,Positive*
G04*
G01*
G75*
%ADD13R,0.9000X1.4000*%
%ADD14R,1.9812X0.5588*%
%ADD15R,1.4500X1.0000*%
%ADD24C,0.5000*%
%ADD25C,0.2540*%
%ADD26C,1.5080*%
%ADD27R,1.5080X1.5080*%
%ADD28C,0.5000*%
%ADD29C,0.4000*%
%ADD30C,1.0000*%
G36*
X1162549Y674734D02*
X1162549Y448319D01*
X817381D01*
Y675630D01*
X953954Y675631D01*
X954440Y674457D01*
X947639Y667657D01*
X946917Y666575D01*
X946663Y665299D01*
Y664774D01*
X940747D01*
Y650774D01*
X959247D01*
Y664774D01*
X955846D01*
X955360Y665947D01*
X960703Y671290D01*
X968547D01*
X969053Y670020D01*
X967923Y668890D01*
X967200Y667808D01*
X966946Y666532D01*
Y664810D01*
X961030D01*
Y650810D01*
X979530D01*
Y664686D01*
X981398D01*
Y650788D01*
X996750D01*
X997236Y649615D01*
X993410Y645788D01*
X981398D01*
Y643398D01*
X979530D01*
Y645810D01*
X961030D01*
Y643362D01*
X959247D01*
Y645774D01*
X940747D01*
Y631774D01*
X959247D01*
Y634186D01*
X961030D01*
Y631810D01*
X979530D01*
Y634222D01*
X981398D01*
Y631788D01*
X984141D01*
X984845Y630760D01*
X984820Y630518D01*
X984362Y628810D01*
Y627377D01*
X969576Y612590D01*
X968581Y611102D01*
X968232Y609346D01*
Y529849D01*
X968018Y529506D01*
X967101Y528880D01*
X966649D01*
X966206Y528968D01*
X965762Y528880D01*
X965311D01*
X964893Y528707D01*
X964450Y528618D01*
X964074Y528367D01*
X963657Y528194D01*
X963337Y527875D01*
X962961Y527624D01*
X962710Y527248D01*
X962391Y526928D01*
X962218Y526511D01*
X961967Y526135D01*
X961879Y525692D01*
X961706Y525275D01*
Y524823D01*
X961618Y524380D01*
Y524266D01*
X961706Y523823D01*
Y523484D01*
X961835Y523172D01*
X961967Y522510D01*
X962341Y521950D01*
X962391Y521830D01*
X962482Y521739D01*
X962961Y521022D01*
X966528Y517456D01*
X968016Y516461D01*
X969772Y516112D01*
X983520D01*
Y515906D01*
X1007332D01*
Y522994D01*
X1008505Y523480D01*
X1011396Y520589D01*
Y514350D01*
X1011650Y513074D01*
X1012373Y511992D01*
X1028200Y496165D01*
Y494480D01*
X1028264Y494158D01*
Y482250D01*
X1036549D01*
X1042366Y476432D01*
X1043448Y475710D01*
X1044724Y475456D01*
X1087454D01*
X1088729Y475710D01*
X1089811Y476432D01*
X1102852Y489473D01*
X1103758Y488950D01*
X1106184Y488300D01*
X1108696D01*
X1111122Y488950D01*
X1113298Y490206D01*
X1115074Y491982D01*
X1116330Y494158D01*
X1116980Y496584D01*
Y499096D01*
X1116330Y501522D01*
X1115074Y503698D01*
X1113298Y505474D01*
X1111122Y506730D01*
X1109345Y507206D01*
X1109513Y508476D01*
X1119644D01*
X1124919Y503201D01*
X1123950Y501522D01*
X1123300Y499096D01*
Y496584D01*
X1123950Y494158D01*
X1125206Y491982D01*
X1126982Y490206D01*
X1129158Y488950D01*
X1131584Y488300D01*
X1134096D01*
X1136522Y488950D01*
X1138120Y489873D01*
X1138535Y489955D01*
X1139617Y490678D01*
X1140340Y491760D01*
X1140361Y491870D01*
X1140474Y491982D01*
X1141730Y494158D01*
X1142380Y496584D01*
Y499096D01*
X1141730Y501522D01*
X1140474Y503698D01*
X1138698Y505474D01*
X1136522Y506730D01*
X1134096Y507380D01*
X1131584D01*
X1130469Y507081D01*
X1123382Y514168D01*
X1122301Y514890D01*
X1121025Y515144D01*
X1075801D01*
X1061538Y529408D01*
X1060730Y529947D01*
Y534212D01*
X1064014D01*
X1064071Y534155D01*
X1065541Y533546D01*
X1067132D01*
X1068603Y534155D01*
X1069728Y535280D01*
X1070337Y536751D01*
Y538342D01*
X1069728Y539812D01*
X1068603Y540937D01*
X1067132Y541546D01*
X1065541D01*
X1064071Y540937D01*
X1064014Y540880D01*
X1060730D01*
Y546522D01*
X1061978Y546576D01*
X1075215D01*
X1086871Y534920D01*
X1087952Y534197D01*
X1089228Y533943D01*
X1119576D01*
X1124919Y528601D01*
X1123950Y526922D01*
X1123300Y524496D01*
Y521984D01*
X1123950Y519558D01*
X1125206Y517382D01*
X1126982Y515606D01*
X1129158Y514350D01*
X1131584Y513700D01*
X1134096D01*
X1136522Y514350D01*
X1138120Y515273D01*
X1138535Y515355D01*
X1139617Y516078D01*
X1140340Y517160D01*
X1140361Y517270D01*
X1140474Y517382D01*
X1141730Y519558D01*
X1142380Y521984D01*
Y524496D01*
X1141730Y526922D01*
X1140474Y529098D01*
X1138698Y530874D01*
X1136522Y532130D01*
X1134096Y532780D01*
X1131584D01*
X1130469Y532481D01*
X1123315Y539635D01*
X1122233Y540358D01*
X1120957Y540612D01*
X1114699D01*
X1114173Y541882D01*
X1115074Y542782D01*
X1116330Y544958D01*
X1116980Y547384D01*
Y549896D01*
X1116807Y550542D01*
X1117945Y551199D01*
X1121187Y547958D01*
X1122268Y547235D01*
X1123400Y547010D01*
X1123950Y544958D01*
X1125206Y542782D01*
X1126982Y541006D01*
X1129158Y539750D01*
X1131584Y539100D01*
X1134096D01*
X1136522Y539750D01*
X1138120Y540673D01*
X1138535Y540755D01*
X1139617Y541478D01*
X1140340Y542560D01*
X1140361Y542670D01*
X1140474Y542782D01*
X1141730Y544958D01*
X1142380Y547384D01*
Y549896D01*
X1141730Y552322D01*
X1140474Y554498D01*
X1138698Y556274D01*
X1136522Y557530D01*
X1134096Y558180D01*
X1131584D01*
X1129158Y557530D01*
X1126982Y556274D01*
X1125540Y554831D01*
X1123978Y554598D01*
X1114877Y563698D01*
X1113796Y564420D01*
X1112756Y564627D01*
X1112510Y565262D01*
X1112497Y565944D01*
X1113298Y566406D01*
X1115074Y568182D01*
X1116330Y570358D01*
X1116980Y572784D01*
Y575296D01*
X1116330Y577722D01*
X1115074Y579898D01*
X1113298Y581674D01*
X1112091Y582370D01*
X1112432Y583640D01*
X1120679D01*
X1124919Y579401D01*
X1123950Y577722D01*
X1123300Y575296D01*
Y572784D01*
X1123950Y570358D01*
X1125206Y568182D01*
X1126982Y566406D01*
X1129158Y565150D01*
X1131584Y564500D01*
X1134096D01*
X1136522Y565150D01*
X1138120Y566073D01*
X1138535Y566155D01*
X1139617Y566878D01*
X1140340Y567960D01*
X1140361Y568070D01*
X1140474Y568182D01*
X1141730Y570358D01*
X1142380Y572784D01*
Y575296D01*
X1141730Y577722D01*
X1140474Y579898D01*
X1138698Y581674D01*
X1136522Y582930D01*
X1134096Y583580D01*
X1131584D01*
X1130469Y583281D01*
X1125120Y588630D01*
X1125646Y589900D01*
X1142380D01*
Y608980D01*
X1130555D01*
X1118688Y620848D01*
X1117606Y621570D01*
X1116330Y621824D01*
X1060550D01*
Y632828D01*
X1060614Y633150D01*
Y642024D01*
X1062556D01*
X1062727Y641853D01*
X1064381Y641168D01*
X1066171D01*
X1067825Y641853D01*
X1069091Y643119D01*
X1069776Y644773D01*
Y646563D01*
X1069206Y647938D01*
X1069236Y648222D01*
X1069525Y648893D01*
X1069734Y649219D01*
X1069808Y649296D01*
X1070235D01*
X1070653Y649469D01*
X1071096Y649557D01*
X1071472Y649808D01*
X1071889Y649981D01*
X1072208Y650301D01*
X1072584Y650552D01*
X1072835Y650928D01*
X1073155Y651247D01*
X1073328Y651664D01*
X1073579Y652040D01*
X1073667Y652483D01*
X1073840Y652901D01*
Y653353D01*
X1073928Y653796D01*
X1073840Y654239D01*
Y654691D01*
X1073667Y655109D01*
X1073579Y655552D01*
X1073328Y655928D01*
X1073155Y656345D01*
X1072835Y656665D01*
X1072584Y657040D01*
X1072208Y657291D01*
X1071889Y657611D01*
X1071472Y657784D01*
X1071096Y658035D01*
X1070653Y658123D01*
X1070235Y658296D01*
X1069783D01*
X1069340Y658384D01*
X1032779D01*
X1031930Y659654D01*
X1032184Y660267D01*
Y661202D01*
X1032691Y661539D01*
X1033454Y661840D01*
X1034917Y661234D01*
X1036707D01*
X1038361Y661919D01*
X1039627Y663185D01*
X1040312Y664839D01*
Y666629D01*
X1040198Y666904D01*
X1041275Y667623D01*
X1041899Y666999D01*
X1043553Y666314D01*
X1045343D01*
X1046997Y666999D01*
X1048263Y668265D01*
X1048948Y669919D01*
Y671709D01*
X1048263Y673363D01*
X1047265Y674361D01*
X1047634Y675601D01*
X1047654Y675631D01*
X1161651Y675632D01*
X1162549Y674734D01*
D02*
G37*
G36*
X1056941Y647938D02*
X1056609Y647716D01*
X1054922Y646030D01*
X1054200Y644948D01*
X1053946Y643672D01*
Y638920D01*
X1047550D01*
Y625064D01*
X1046377Y624578D01*
X1044408Y626548D01*
X1043326Y627270D01*
X1042050Y627524D01*
X1041550D01*
Y638920D01*
X1028550D01*
Y625635D01*
X1015849Y612934D01*
X1007332D01*
Y614394D01*
X986016D01*
X985530Y615567D01*
X990851Y620888D01*
X992284D01*
X994064Y621365D01*
X995660Y622287D01*
X996963Y623590D01*
X997885Y625186D01*
X998362Y626966D01*
Y628810D01*
X997904Y630518D01*
X997879Y630760D01*
X998583Y631788D01*
X999899D01*
Y639299D01*
X1009807Y649208D01*
X1056556D01*
X1056941Y647938D01*
D02*
G37*
G36*
X1028694Y614553D02*
Y602198D01*
X1026731Y600234D01*
X1007332D01*
Y601694D01*
X983520D01*
Y592106D01*
X1007332D01*
Y593566D01*
X1027523D01*
X1028294Y592971D01*
X1028485Y592345D01*
Y587534D01*
X1007332D01*
Y588994D01*
X983520D01*
Y579406D01*
X1007332D01*
Y580866D01*
X1028485D01*
Y575663D01*
X1028439Y575576D01*
X1027262Y574710D01*
X1026637Y574834D01*
X1007332D01*
Y576294D01*
X983520D01*
Y566706D01*
X1007332D01*
Y568166D01*
X1025257D01*
X1028487Y564936D01*
Y552732D01*
X1027217Y552206D01*
X1018265Y561157D01*
X1017183Y561880D01*
X1015907Y562134D01*
X1007332D01*
Y563594D01*
X983520D01*
Y554006D01*
X1007332D01*
Y555466D01*
X1014526D01*
X1028730Y541262D01*
Y528522D01*
X1038138D01*
X1038460Y528458D01*
X1039034D01*
X1042800Y524692D01*
X1043881Y523970D01*
X1045157Y523716D01*
X1046202D01*
X1047316Y523338D01*
Y508212D01*
X1046142Y507726D01*
X1042903Y510965D01*
X1041821Y511688D01*
X1041316Y511789D01*
Y523338D01*
X1031908D01*
X1031585Y523402D01*
X1029462D01*
X1019184Y533680D01*
X1019152Y533842D01*
X1018429Y534924D01*
X1007332Y546021D01*
Y550894D01*
X983520D01*
Y541306D01*
X1002617D01*
X1004556Y539367D01*
X1004070Y538194D01*
X983520D01*
Y528606D01*
X996628D01*
X996950Y528542D01*
X1003443D01*
X1005318Y526667D01*
X1004832Y525494D01*
X983520D01*
Y525288D01*
X980018D01*
X977408Y527898D01*
Y607445D01*
X982347Y612384D01*
X983520Y611898D01*
Y604806D01*
X1007332D01*
Y606266D01*
X1017230D01*
X1018506Y606520D01*
X1019587Y607243D01*
X1027424Y615079D01*
X1028694Y614553D01*
D02*
G37*
G36*
X1123300Y606805D02*
Y591063D01*
X1122318Y590257D01*
X1122060Y590308D01*
X1113244D01*
X1112903Y591578D01*
X1113298Y591806D01*
X1115074Y593582D01*
X1116330Y595758D01*
X1116980Y598184D01*
Y600696D01*
X1116330Y603122D01*
X1115074Y605298D01*
X1113298Y607074D01*
X1111122Y608330D01*
X1108696Y608980D01*
X1106184D01*
X1103880Y608363D01*
X1100668Y611574D01*
X1099180Y612569D01*
X1097424Y612918D01*
X1078230D01*
X1077787Y612830D01*
X1077335D01*
X1076917Y612657D01*
X1076474Y612569D01*
X1076098Y612318D01*
X1075681Y612145D01*
X1075361Y611825D01*
X1074986Y611574D01*
X1074735Y611199D01*
X1074415Y610879D01*
X1074242Y610462D01*
X1073991Y610086D01*
X1073903Y609643D01*
X1073730Y609225D01*
Y608773D01*
X1073642Y608330D01*
X1073730Y607887D01*
Y607435D01*
X1073903Y607017D01*
X1073991Y606574D01*
X1074242Y606198D01*
X1074415Y605781D01*
X1074735Y605462D01*
X1074986Y605086D01*
X1075361Y604835D01*
X1075681Y604515D01*
X1076098Y604342D01*
X1076474Y604091D01*
X1076917Y604003D01*
X1077335Y603830D01*
X1077787D01*
X1078230Y603742D01*
X1095523D01*
X1098041Y601224D01*
X1097900Y600696D01*
Y598184D01*
X1098550Y595758D01*
X1099806Y593582D01*
X1101582Y591806D01*
X1101977Y591578D01*
X1101636Y590308D01*
X1080647D01*
X1072634Y598321D01*
X1071552Y599044D01*
X1070276Y599298D01*
X1060694D01*
Y601997D01*
X1061750Y602703D01*
X1062095Y602560D01*
X1063885D01*
X1065539Y603245D01*
X1066805Y604511D01*
X1067490Y606165D01*
Y607955D01*
X1066805Y609609D01*
X1065539Y610875D01*
X1063885Y611560D01*
X1062095D01*
X1061750Y611417D01*
X1060694Y612123D01*
Y615156D01*
X1114949D01*
X1123300Y606805D01*
D02*
G37*
G36*
X1076908Y584617D02*
X1077990Y583894D01*
X1079266Y583640D01*
X1102448D01*
X1102789Y582370D01*
X1101582Y581674D01*
X1099806Y579898D01*
X1098550Y577722D01*
X1097900Y575296D01*
Y572784D01*
X1098550Y570358D01*
X1099806Y568182D01*
X1101582Y566406D01*
X1102383Y565944D01*
X1102042Y564674D01*
X1077071D01*
X1066618Y575127D01*
X1065536Y575850D01*
X1064260Y576104D01*
X1060485D01*
Y577954D01*
X1061541Y578660D01*
X1062095Y578430D01*
X1063885D01*
X1065539Y579115D01*
X1066805Y580381D01*
X1067490Y582035D01*
Y583825D01*
X1066805Y585479D01*
X1065539Y586745D01*
X1063885Y587430D01*
X1062095D01*
X1061541Y587201D01*
X1060485Y587906D01*
Y592630D01*
X1068895D01*
X1076908Y584617D01*
D02*
G37*
G36*
X1073333Y558983D02*
X1074414Y558260D01*
X1075690Y558006D01*
X1102042D01*
X1102383Y556736D01*
X1101582Y556274D01*
X1099806Y554498D01*
X1098550Y552322D01*
X1097900Y549896D01*
Y547384D01*
X1098550Y544958D01*
X1099806Y542782D01*
X1100707Y541882D01*
X1100181Y540612D01*
X1090609D01*
X1078953Y552267D01*
X1077872Y552990D01*
X1076596Y553244D01*
X1060487D01*
Y556883D01*
X1062591D01*
X1063072Y556403D01*
X1064726Y555718D01*
X1066516D01*
X1068170Y556403D01*
X1069436Y557668D01*
X1070121Y559322D01*
Y560398D01*
X1071391Y560924D01*
X1073333Y558983D01*
D02*
G37*
G36*
X1072063Y509453D02*
X1073144Y508730D01*
X1074420Y508476D01*
X1105367D01*
X1105535Y507206D01*
X1103758Y506730D01*
X1101582Y505474D01*
X1099806Y503698D01*
X1098550Y501522D01*
X1097900Y499096D01*
Y496584D01*
X1098456Y494508D01*
X1086073Y482124D01*
X1061482D01*
X1060264Y482250D01*
Y499586D01*
X1063673D01*
X1064251Y499008D01*
X1065905Y498323D01*
X1067695D01*
X1069349Y499008D01*
X1070615Y500274D01*
X1071300Y501928D01*
Y503718D01*
X1070615Y505372D01*
X1069349Y506638D01*
X1067695Y507323D01*
X1065905D01*
X1064251Y506638D01*
X1063867Y506254D01*
X1060315D01*
Y519540D01*
X1061489Y520026D01*
X1072063Y509453D01*
D02*
G37*
%LPC*%
G36*
X958056Y614394D02*
X934244D01*
Y609521D01*
X927497Y602774D01*
X884570D01*
Y610250D01*
X865490D01*
Y591170D01*
X884570D01*
Y596106D01*
X928878D01*
X930154Y596360D01*
X931236Y597082D01*
X933071Y598918D01*
X934244Y598432D01*
Y596821D01*
X914797Y577374D01*
X884353D01*
X883920Y578992D01*
X882664Y581168D01*
X880888Y582944D01*
X878712Y584200D01*
X876286Y584850D01*
X873774D01*
X871348Y584200D01*
X869172Y582944D01*
X867396Y581168D01*
X866140Y578992D01*
X865490Y576566D01*
Y574054D01*
X866140Y571628D01*
X867396Y569452D01*
X869172Y567676D01*
X871348Y566420D01*
X873774Y565770D01*
X876286D01*
X878712Y566420D01*
X880888Y567676D01*
X882664Y569452D01*
X883388Y570706D01*
X916178D01*
X917454Y570960D01*
X918536Y571683D01*
X933071Y586218D01*
X934244Y585732D01*
Y584121D01*
X902097Y551974D01*
X884353D01*
X883920Y553592D01*
X882664Y555768D01*
X880888Y557544D01*
X878712Y558800D01*
X876286Y559450D01*
X873774D01*
X871348Y558800D01*
X869172Y557544D01*
X867396Y555768D01*
X866140Y553592D01*
X865490Y551166D01*
Y548654D01*
X866140Y546228D01*
X867396Y544052D01*
X869172Y542276D01*
X871348Y541020D01*
X873774Y540370D01*
X876286D01*
X878712Y541020D01*
X880888Y542276D01*
X882664Y544052D01*
X883388Y545306D01*
X903478D01*
X904754Y545560D01*
X904919Y545670D01*
X905728Y544683D01*
X887619Y526574D01*
X884353D01*
X883920Y528192D01*
X882664Y530368D01*
X880888Y532144D01*
X878712Y533400D01*
X876286Y534050D01*
X873774D01*
X871348Y533400D01*
X869172Y532144D01*
X867396Y530368D01*
X866140Y528192D01*
X865490Y525766D01*
Y523254D01*
X866140Y520828D01*
X867396Y518652D01*
X869172Y516876D01*
X871348Y515620D01*
X873774Y514970D01*
X876286D01*
X878712Y515620D01*
X880888Y516876D01*
X882664Y518652D01*
X883388Y519906D01*
X887759D01*
X888285Y518636D01*
X877874Y508225D01*
X876286Y508650D01*
X873774D01*
X871348Y508000D01*
X869172Y506744D01*
X867396Y504968D01*
X866140Y502792D01*
X865490Y500366D01*
Y497854D01*
X866140Y495428D01*
X867396Y493252D01*
X869172Y491476D01*
X871348Y490220D01*
X873124Y489744D01*
X872957Y488474D01*
X863711D01*
X857875Y494310D01*
X858520Y495428D01*
X859170Y497854D01*
Y500366D01*
X858520Y502792D01*
X857264Y504968D01*
X855488Y506744D01*
X853312Y508000D01*
X850886Y508650D01*
X848374D01*
X845948Y508000D01*
X843772Y506744D01*
X841996Y504968D01*
X840740Y502792D01*
X840090Y500366D01*
Y497854D01*
X840740Y495428D01*
X841996Y493252D01*
X843772Y491476D01*
X845948Y490220D01*
X848374Y489570D01*
X850886D01*
X852699Y490056D01*
X859973Y482783D01*
X861054Y482060D01*
X862330Y481806D01*
X880110D01*
X881386Y482060D01*
X882467Y482783D01*
X929751Y530066D01*
X934244D01*
Y528606D01*
X958056D01*
Y538194D01*
X934244D01*
Y536734D01*
X928370D01*
X927094Y536480D01*
X926012Y535757D01*
X923405Y533150D01*
X922328Y533869D01*
X922710Y534791D01*
Y535471D01*
X930005Y542766D01*
X934244D01*
Y541306D01*
X958056D01*
Y550894D01*
X934244D01*
Y549434D01*
X930309D01*
X929783Y550704D01*
X933007Y553927D01*
X934244Y554006D01*
Y554006D01*
X958056D01*
Y563594D01*
X935865D01*
X935339Y564864D01*
X937117Y566642D01*
X944626D01*
X944948Y566706D01*
X958056D01*
Y576294D01*
X937506D01*
X937020Y577467D01*
X938959Y579406D01*
X958056D01*
Y588994D01*
X937506D01*
X937020Y590167D01*
X938959Y592106D01*
X958056D01*
Y601694D01*
X937506D01*
X937020Y602867D01*
X938959Y604806D01*
X958056D01*
Y614394D01*
D02*
G37*
G36*
X850886Y610250D02*
X848374D01*
X845948Y609600D01*
X843772Y608344D01*
X841996Y606568D01*
X840740Y604392D01*
X840090Y601966D01*
Y599454D01*
X840740Y597028D01*
X841996Y594852D01*
X843772Y593076D01*
X845948Y591820D01*
X848374Y591170D01*
X850886D01*
X853312Y591820D01*
X855488Y593076D01*
X857264Y594852D01*
X858520Y597028D01*
X859170Y599454D01*
Y601966D01*
X858520Y604392D01*
X857264Y606568D01*
X855488Y608344D01*
X853312Y609600D01*
X850886Y610250D01*
D02*
G37*
G36*
Y559450D02*
X848374D01*
X845948Y558800D01*
X843772Y557544D01*
X841996Y555768D01*
X840740Y553592D01*
X840090Y551166D01*
Y548654D01*
X840740Y546228D01*
X841996Y544052D01*
X843772Y542276D01*
X845948Y541020D01*
X848374Y540370D01*
X850886D01*
X853312Y541020D01*
X855488Y542276D01*
X857264Y544052D01*
X858520Y546228D01*
X859170Y548654D01*
Y551166D01*
X858520Y553592D01*
X857264Y555768D01*
X855488Y557544D01*
X853312Y558800D01*
X850886Y559450D01*
D02*
G37*
G36*
Y534050D02*
X848374D01*
X845948Y533400D01*
X843772Y532144D01*
X841996Y530368D01*
X840740Y528192D01*
X840090Y525766D01*
Y523254D01*
X840740Y520828D01*
X841996Y518652D01*
X843772Y516876D01*
X845948Y515620D01*
X848374Y514970D01*
X850886D01*
X853312Y515620D01*
X855488Y516876D01*
X857264Y518652D01*
X858520Y520828D01*
X859170Y523254D01*
Y525766D01*
X858520Y528192D01*
X857264Y530368D01*
X855488Y532144D01*
X853312Y533400D01*
X850886Y534050D01*
D02*
G37*
G36*
X955427Y510976D02*
X953637D01*
X951983Y510291D01*
X950717Y509025D01*
X950032Y507371D01*
Y506691D01*
X945051Y501711D01*
X944329Y500629D01*
X944075Y499353D01*
Y499031D01*
X934584D01*
Y485031D01*
X953084D01*
Y499031D01*
X953084D01*
X952709Y499938D01*
X954747Y501976D01*
X955427D01*
X957081Y502661D01*
X958347Y503927D01*
X959032Y505581D01*
Y507371D01*
X958347Y509025D01*
X957081Y510291D01*
X955427Y510976D01*
D02*
G37*
G36*
X1013452Y499026D02*
X994952D01*
Y485027D01*
X1013452D01*
Y499026D01*
D02*
G37*
G36*
X972445Y508944D02*
X970655D01*
X969001Y508259D01*
X967735Y506993D01*
X967050Y505339D01*
Y503993D01*
X964719Y501662D01*
X963996Y500580D01*
X963742Y499305D01*
Y498982D01*
X954825D01*
Y484982D01*
X973325D01*
Y485003D01*
X974583Y485031D01*
X974595Y485031D01*
X993083D01*
Y499031D01*
X991282D01*
X991029Y500301D01*
X991208Y500375D01*
X992474Y501641D01*
X993159Y503295D01*
Y505085D01*
X992474Y506739D01*
X991208Y508005D01*
X989554Y508690D01*
X987764D01*
X986110Y508005D01*
X984844Y506739D01*
X984159Y505085D01*
Y504405D01*
X981476Y501721D01*
X980753Y500640D01*
X980499Y499364D01*
Y499031D01*
X974583D01*
Y499011D01*
X973325Y498982D01*
X973189Y500252D01*
X974099Y500629D01*
X975365Y501895D01*
X976050Y503549D01*
Y505339D01*
X975365Y506993D01*
X974099Y508259D01*
X972445Y508944D01*
D02*
G37*
G36*
X993083Y480031D02*
X974583D01*
Y480011D01*
X973325Y479982D01*
Y479982D01*
X954825D01*
Y477619D01*
X953084D01*
Y480031D01*
X934584D01*
Y466031D01*
X953084D01*
Y468443D01*
X954825D01*
Y465982D01*
X958072D01*
Y455930D01*
X958160Y455487D01*
Y455035D01*
X958333Y454617D01*
X958421Y454174D01*
X958672Y453798D01*
X958845Y453381D01*
X959165Y453061D01*
X959416Y452686D01*
X959791Y452435D01*
X960111Y452115D01*
X960528Y451942D01*
X960904Y451691D01*
X961347Y451603D01*
X961765Y451430D01*
X962217D01*
X962660Y451342D01*
X963103Y451430D01*
X963555D01*
X963973Y451603D01*
X964416Y451691D01*
X964792Y451942D01*
X965209Y452115D01*
X965528Y452435D01*
X965904Y452686D01*
X966155Y453061D01*
X966475Y453381D01*
X966648Y453798D01*
X966899Y454174D01*
X966987Y454617D01*
X967160Y455035D01*
Y455487D01*
X967248Y455930D01*
Y465982D01*
X973325D01*
Y466003D01*
X974583Y466031D01*
Y466031D01*
X993083D01*
Y468438D01*
X994952D01*
Y466027D01*
X1013452D01*
Y480027D01*
X994952D01*
Y477615D01*
X993083D01*
Y480031D01*
D02*
G37*
%LPD*%
G36*
X914194Y533622D02*
X914395Y533137D01*
X915661Y531871D01*
X917315Y531186D01*
X919105D01*
X920027Y531568D01*
X920746Y530491D01*
X884982Y494727D01*
X883920Y495428D01*
X884570Y497854D01*
Y500366D01*
X883920Y502792D01*
X883170Y504091D01*
X912949Y533870D01*
X914194Y533622D01*
D02*
G37*
D13*
X1035230Y537522D02*
D03*
X1054230D02*
D03*
X1034764Y491250D02*
D03*
X1053764D02*
D03*
X1034816Y514338D02*
D03*
X1053816D02*
D03*
X1034987Y560651D02*
D03*
X1053987D02*
D03*
X1034985Y583823D02*
D03*
X1053985D02*
D03*
X1035194Y606483D02*
D03*
X1054194D02*
D03*
X1035050Y629920D02*
D03*
X1054050D02*
D03*
D14*
X995426Y609600D02*
D03*
Y596900D02*
D03*
Y584200D02*
D03*
Y571500D02*
D03*
Y558800D02*
D03*
Y546100D02*
D03*
Y533400D02*
D03*
Y520700D02*
D03*
X946150D02*
D03*
Y533400D02*
D03*
Y546100D02*
D03*
Y558800D02*
D03*
Y571500D02*
D03*
Y584200D02*
D03*
Y596900D02*
D03*
Y609600D02*
D03*
D15*
X1004202Y492026D02*
D03*
Y473027D02*
D03*
X983833Y492031D02*
D03*
Y473031D02*
D03*
X964075Y491982D02*
D03*
Y472982D02*
D03*
X943834Y492031D02*
D03*
Y473031D02*
D03*
X990648Y657788D02*
D03*
Y638788D02*
D03*
X970280Y657810D02*
D03*
Y638810D02*
D03*
X949997Y657774D02*
D03*
Y638774D02*
D03*
D24*
X1007906Y653796D02*
X1069340D01*
X966206Y524266D02*
X969772Y520700D01*
X966206Y524266D02*
Y524380D01*
X992898Y638788D02*
X1007906Y653796D01*
X972820Y609346D02*
X991362Y627888D01*
X991005Y628245D02*
Y638431D01*
X990648Y638788D02*
X991005Y638431D01*
Y628245D02*
X991362Y627888D01*
X969772Y520700D02*
X978118D01*
X972820Y525998D02*
Y609346D01*
X978118Y520700D02*
X995426D01*
X972820Y525998D02*
X978118Y520700D01*
X1097424Y608330D02*
X1106314Y599440D01*
X1078230Y608330D02*
X1097424D01*
X949997Y638774D02*
X970244D01*
X962660Y455930D02*
Y469317D01*
X943834Y473031D02*
X964027D01*
X964075Y472982D02*
X983785D01*
X983838Y473027D02*
X1004202D01*
X970280Y638810D02*
X990626D01*
D25*
X970280Y666532D02*
X971768Y668020D01*
X970280Y657810D02*
Y666532D01*
X1033036Y668020D02*
X1035322Y665734D01*
X971768Y668020D02*
X1033036D01*
X1064966Y645358D02*
X1065276Y645668D01*
X1058966Y645358D02*
X1064966D01*
X1057280Y643672D02*
X1058966Y645358D01*
X1039972Y674624D02*
X1043782Y670814D01*
X959322Y674624D02*
X1039972D01*
X949997Y665299D02*
X959322Y674624D01*
X1043782Y670814D02*
X1044448D01*
X1044724Y478790D02*
X1087454D01*
X1037994Y485520D02*
X1037994D01*
X1044724Y478790D01*
X1034764Y488750D02*
Y491250D01*
X1031534Y494480D02*
X1034764Y491250D01*
Y488750D02*
X1037994Y485520D01*
X943834Y492031D02*
X947409Y495606D01*
Y499353D01*
X954532Y506476D01*
X983833Y499364D02*
X988659Y504190D01*
X983833Y492031D02*
Y499364D01*
X964075Y491982D02*
X967076Y494983D01*
Y499305D01*
X971550Y503778D01*
Y504444D01*
X1053524Y491490D02*
X1053764Y491250D01*
X1059180Y527050D02*
X1074420Y511810D01*
X1121025D01*
X1045157Y527050D02*
X1059180D01*
X1014730Y514350D02*
X1031534Y497546D01*
X1053987Y560651D02*
X1054420Y560218D01*
X1065621D01*
X1035322Y665734D02*
X1035812D01*
X992898Y657788D02*
X996628Y661518D01*
X998002D02*
X998116Y661633D01*
X996628Y661518D02*
X998002D01*
X1027213Y661633D02*
X1027684Y661162D01*
X998116Y661633D02*
X1027213D01*
X990648Y657788D02*
X992898D01*
X1057280Y633150D02*
Y643672D01*
X962660Y469317D02*
X965200Y471857D01*
X1054230Y537546D02*
X1066337D01*
X1054255D02*
X1066337D01*
X1054230Y537522D02*
X1054255Y537546D01*
X945420Y558070D02*
X946150Y558800D01*
X875030Y499110D02*
Y500666D01*
X932434Y558070D02*
X945420D01*
X875030Y500666D02*
X932434Y558070D01*
X918210Y535686D02*
X928624Y546100D01*
X946150D01*
X1038046Y508608D02*
X1040546D01*
X1046233Y502920D02*
X1066703D01*
X1040546Y508608D02*
X1046233Y502920D01*
X1034816Y511838D02*
X1038046Y508608D01*
X1066703Y502920D02*
X1066800Y502823D01*
X1075690Y561340D02*
X1112520D01*
X1128900Y550316D02*
X1129030Y550186D01*
X1123544Y550316D02*
X1128900D01*
X1112520Y561340D02*
X1123544Y550316D01*
X1064260Y572770D02*
X1075690Y561340D01*
X1121025Y511810D02*
X1128837Y503997D01*
X1034987Y558151D02*
Y563151D01*
Y558151D02*
X1038217Y554921D01*
X1040734D02*
X1045745Y549910D01*
X1076596D01*
X1038217Y554921D02*
X1040734D01*
X1076596Y549910D02*
X1089228Y537277D01*
X1047750Y618490D02*
X1116330D01*
X1038280Y624190D02*
X1042050D01*
X1047750Y618490D01*
X1035194Y604025D02*
X1038424Y600795D01*
X1035194Y604025D02*
Y606483D01*
X1046146Y595964D02*
X1070276D01*
X1038424Y600795D02*
X1041315D01*
X1046146Y595964D01*
X1054194Y606483D02*
X1054887Y605790D01*
X1056157Y607060D01*
X1062990D01*
X1057418Y582930D02*
X1062990D01*
X1056148Y584200D02*
X1057418Y582930D01*
X1054878D02*
X1056148Y584200D01*
X996950Y531876D02*
X1004824D01*
X1014730Y514350D02*
Y521970D01*
X995426Y533400D02*
X996950Y531876D01*
X1004824D02*
X1014730Y521970D01*
X1028081Y520068D02*
X1031585D01*
X1034816Y516838D01*
X1016072Y532078D02*
Y532566D01*
X1002538Y546100D02*
X1016072Y532566D01*
Y532078D02*
X1028081Y520068D01*
X1031534Y494480D02*
Y497546D01*
X1034965Y535288D02*
X1038460Y531792D01*
X1040415D02*
X1045157Y527050D01*
X1038460Y531792D02*
X1040415D01*
X1034965Y535288D02*
Y539743D01*
X1034816Y511838D02*
Y516838D01*
X990648Y638788D02*
X992898D01*
X1053985Y583823D02*
X1054878Y582930D01*
X849630Y599440D02*
Y600710D01*
X1106314Y599440D02*
X1107440D01*
X1079266Y586974D02*
X1122060D01*
X1070276Y595964D02*
X1079266Y586974D01*
X1046038Y572770D02*
X1064260D01*
X995426Y584200D02*
X1034608D01*
X1035194Y605361D02*
Y606483D01*
X995426Y596900D02*
X1028112D01*
X1035194Y603983D02*
Y605361D01*
X1028112Y596900D02*
X1035194Y603983D01*
X1017230Y609600D02*
X1035050Y627420D01*
X995426Y609600D02*
X1017230D01*
X1040715Y578093D02*
X1046038Y572770D01*
X1132647Y497647D02*
X1137259Y493036D01*
X1132647Y523047D02*
X1137259Y518436D01*
X1132840Y543836D02*
X1137259D01*
X1132647Y573847D02*
X1137259Y569236D01*
X1116330Y618490D02*
X1129030Y605790D01*
X875030Y523240D02*
X889000D01*
X944626Y569976D02*
X946150Y571500D01*
X935736Y569976D02*
X944626D01*
X889000Y523240D02*
X935736Y569976D01*
X880110Y485140D02*
X928370Y533400D01*
X862330Y485140D02*
X880110D01*
X928370Y533400D02*
X946150D01*
X849630Y497840D02*
X862330Y485140D01*
X875030Y548640D02*
X903478D01*
X939038Y584200D01*
X946150D01*
X875030Y574040D02*
X916178D01*
X939038Y596900D01*
X946150D01*
X875030Y599440D02*
X928878D01*
X939038Y609600D01*
X946150D01*
X1087454Y478790D02*
X1108049Y499386D01*
X1089228Y537277D02*
X1120957D01*
X1122060Y586974D02*
X1128837Y580197D01*
X1120957Y537277D02*
X1128837Y529397D01*
X1035050Y627420D02*
X1038280Y624190D01*
X995426Y546100D02*
X1002538D01*
X1035050Y627420D02*
Y629920D01*
X1054050D02*
X1057280Y633150D01*
X949997Y657774D02*
Y665299D01*
X964075Y472982D02*
X965200Y471857D01*
X995426Y558800D02*
X1015907D01*
X1034965Y539743D01*
X995426Y571500D02*
X1026637D01*
X1034987Y563151D01*
X1034985Y581323D02*
Y583823D01*
Y581323D02*
X1038215Y578093D01*
X1040715D01*
X1034608Y584200D02*
X1034985Y583823D01*
X964027Y473031D02*
X964075Y472982D01*
X983785D02*
X983833Y473031D01*
X983838Y473027D01*
X990626Y638810D02*
X990648Y638788D01*
X970244Y638774D02*
X970280Y638810D01*
D26*
X1107440Y497840D02*
D03*
X1132840D02*
D03*
X1107440Y523240D02*
D03*
X1132840D02*
D03*
X1107440Y548640D02*
D03*
X1132840D02*
D03*
X1107440Y574040D02*
D03*
X1132840D02*
D03*
X1107440Y599440D02*
D03*
X849630Y499110D02*
D03*
X875030D02*
D03*
X849630Y524510D02*
D03*
X875030D02*
D03*
X849630Y549910D02*
D03*
X875030D02*
D03*
X849630Y575310D02*
D03*
X875030D02*
D03*
X849630Y600710D02*
D03*
D27*
X1132840Y599440D02*
D03*
X875030Y600710D02*
D03*
D28*
X1069340Y653796D02*
D03*
X1065276Y645668D02*
D03*
X1044448Y670814D02*
D03*
X966206Y524380D02*
D03*
X954532Y506476D02*
D03*
X988659Y504190D02*
D03*
X971550Y504444D02*
D03*
X1004202Y492026D02*
D03*
X1053524Y491490D02*
D03*
X1053816Y514338D02*
D03*
X1065621Y560218D02*
D03*
X1035812Y665734D02*
D03*
X1027684Y661162D02*
D03*
X918210Y535686D02*
D03*
X1062990Y607060D02*
D03*
Y582930D02*
D03*
X1066800Y502823D02*
D03*
X1078230Y608330D02*
D03*
X962660Y455930D02*
D03*
D29*
X1066337Y537546D02*
D03*
D30*
X991362Y627888D02*
D03*
M02*
