G04*
G04 #@! TF.GenerationSoftware,Altium Limited,Altium Designer,24.5.2 (23)*
G04*
G04 Layer_Color=32896*
%FSLAX44Y44*%
%MOMM*%
G71*
G04*
G04 #@! TF.SameCoordinates,334194BA-0611-49C7-9BF9-9A22E77FB9F2*
G04*
G04*
G04 #@! TF.FilePolarity,Positive*
G04*
G01*
G75*
%ADD11C,0.2000*%
%ADD38C,0.1270*%
G36*
X1067993Y447259D02*
X1039570Y447247D01*
X911033D01*
X911021Y501022D01*
X1067980Y501034D01*
X1067993Y447259D01*
D02*
G37*
G36*
X1020157Y598912D02*
X1020079Y598868D01*
X1020001Y598814D01*
X1019927Y598756D01*
X1019859Y598697D01*
X1019806Y598644D01*
X1019762Y598600D01*
X1019732Y598570D01*
X1019727Y598565D01*
X1019723Y598561D01*
X1019645Y598468D01*
X1019571Y598371D01*
X1019508Y598273D01*
X1019454Y598185D01*
X1019410Y598107D01*
X1019396Y598073D01*
X1019381Y598044D01*
X1019367Y598024D01*
X1019357Y598005D01*
X1019352Y597995D01*
Y597990D01*
X1018967D01*
X1018996Y598058D01*
X1019030Y598131D01*
X1019059Y598200D01*
X1019093Y598263D01*
X1019123Y598317D01*
X1019147Y598361D01*
X1019167Y598390D01*
X1019172Y598395D01*
Y598400D01*
X1019220Y598483D01*
X1019274Y598556D01*
X1019318Y598619D01*
X1019362Y598673D01*
X1019396Y598717D01*
X1019420Y598751D01*
X1019440Y598770D01*
X1019445Y598775D01*
X1016938D01*
Y599170D01*
X1020157D01*
Y598912D01*
D02*
G37*
G36*
X1018060Y596903D02*
X1017918Y596864D01*
X1017791Y596815D01*
X1017689Y596756D01*
X1017601Y596703D01*
X1017538Y596649D01*
X1017489Y596605D01*
X1017460Y596576D01*
X1017455Y596571D01*
X1017450Y596566D01*
X1017382Y596469D01*
X1017333Y596371D01*
X1017294Y596269D01*
X1017270Y596176D01*
X1017255Y596093D01*
X1017250Y596054D01*
Y596025D01*
X1017245Y596000D01*
Y595966D01*
X1017250Y595859D01*
X1017270Y595756D01*
X1017294Y595664D01*
X1017318Y595586D01*
X1017348Y595518D01*
X1017367Y595464D01*
X1017377Y595444D01*
X1017387Y595430D01*
X1017392Y595425D01*
Y595420D01*
X1017455Y595332D01*
X1017528Y595259D01*
X1017601Y595196D01*
X1017679Y595142D01*
X1017743Y595103D01*
X1017801Y595079D01*
X1017821Y595069D01*
X1017835Y595059D01*
X1017845Y595054D01*
X1017850D01*
X1017967Y595015D01*
X1018089Y594986D01*
X1018211Y594967D01*
X1018323Y594952D01*
X1018372Y594947D01*
X1018416Y594942D01*
X1018459D01*
X1018494Y594937D01*
X1018523D01*
X1018542D01*
X1018557D01*
X1018562D01*
X1018679Y594942D01*
X1018791Y594952D01*
X1018894Y594967D01*
X1018986Y594986D01*
X1019064Y595005D01*
X1019098Y595010D01*
X1019123Y595020D01*
X1019147Y595025D01*
X1019162Y595030D01*
X1019172Y595035D01*
X1019176D01*
X1019284Y595079D01*
X1019381Y595132D01*
X1019459Y595191D01*
X1019528Y595244D01*
X1019581Y595298D01*
X1019620Y595342D01*
X1019645Y595371D01*
X1019654Y595376D01*
Y595381D01*
X1019713Y595479D01*
X1019757Y595581D01*
X1019791Y595683D01*
X1019810Y595781D01*
X1019825Y595869D01*
X1019830Y595903D01*
Y595937D01*
X1019835Y595961D01*
Y595995D01*
X1019830Y596113D01*
X1019810Y596215D01*
X1019786Y596308D01*
X1019757Y596381D01*
X1019723Y596444D01*
X1019698Y596488D01*
X1019679Y596517D01*
X1019674Y596527D01*
X1019606Y596605D01*
X1019528Y596669D01*
X1019440Y596727D01*
X1019357Y596771D01*
X1019284Y596805D01*
X1019250Y596820D01*
X1019220Y596834D01*
X1019196Y596844D01*
X1019176Y596849D01*
X1019167Y596854D01*
X1019162D01*
X1019259Y597273D01*
X1019415Y597215D01*
X1019489Y597180D01*
X1019552Y597146D01*
X1019615Y597107D01*
X1019674Y597068D01*
X1019723Y597034D01*
X1019771Y596995D01*
X1019810Y596961D01*
X1019845Y596927D01*
X1019879Y596893D01*
X1019903Y596868D01*
X1019923Y596844D01*
X1019937Y596829D01*
X1019942Y596820D01*
X1019947Y596815D01*
X1019991Y596751D01*
X1020030Y596688D01*
X1020064Y596620D01*
X1020093Y596551D01*
X1020137Y596415D01*
X1020166Y596288D01*
X1020176Y596230D01*
X1020181Y596176D01*
X1020186Y596127D01*
X1020191Y596088D01*
X1020196Y596054D01*
Y596005D01*
X1020186Y595849D01*
X1020166Y595703D01*
X1020132Y595571D01*
X1020118Y595513D01*
X1020098Y595459D01*
X1020079Y595410D01*
X1020064Y595362D01*
X1020044Y595322D01*
X1020030Y595293D01*
X1020020Y595264D01*
X1020010Y595244D01*
X1020001Y595235D01*
Y595230D01*
X1019923Y595108D01*
X1019830Y594996D01*
X1019737Y594903D01*
X1019645Y594830D01*
X1019562Y594767D01*
X1019528Y594742D01*
X1019498Y594723D01*
X1019469Y594708D01*
X1019449Y594698D01*
X1019440Y594688D01*
X1019435D01*
X1019294Y594625D01*
X1019142Y594576D01*
X1018996Y594547D01*
X1018859Y594523D01*
X1018796Y594513D01*
X1018742Y594508D01*
X1018689Y594503D01*
X1018645D01*
X1018611Y594498D01*
X1018586D01*
X1018567D01*
X1018562D01*
X1018391Y594503D01*
X1018235Y594523D01*
X1018089Y594552D01*
X1018021Y594567D01*
X1017962Y594581D01*
X1017904Y594596D01*
X1017855Y594610D01*
X1017811Y594625D01*
X1017772Y594640D01*
X1017743Y594650D01*
X1017723Y594659D01*
X1017709Y594664D01*
X1017704D01*
X1017562Y594732D01*
X1017440Y594815D01*
X1017333Y594893D01*
X1017250Y594976D01*
X1017182Y595045D01*
X1017133Y595103D01*
X1017118Y595127D01*
X1017104Y595142D01*
X1017099Y595152D01*
X1017094Y595157D01*
X1017055Y595220D01*
X1017026Y595288D01*
X1016972Y595425D01*
X1016938Y595566D01*
X1016909Y595703D01*
X1016904Y595761D01*
X1016894Y595820D01*
X1016889Y595869D01*
Y595913D01*
X1016884Y595952D01*
Y596000D01*
X1016889Y596093D01*
X1016894Y596181D01*
X1016928Y596342D01*
X1016948Y596415D01*
X1016972Y596488D01*
X1016997Y596551D01*
X1017021Y596610D01*
X1017045Y596664D01*
X1017070Y596707D01*
X1017094Y596746D01*
X1017113Y596781D01*
X1017133Y596810D01*
X1017148Y596829D01*
X1017153Y596839D01*
X1017157Y596844D01*
X1017211Y596907D01*
X1017270Y596966D01*
X1017396Y597063D01*
X1017528Y597151D01*
X1017660Y597215D01*
X1017718Y597244D01*
X1017772Y597263D01*
X1017825Y597283D01*
X1017865Y597302D01*
X1017904Y597312D01*
X1017928Y597322D01*
X1017947Y597327D01*
X1017952D01*
X1018060Y596903D01*
D02*
G37*
G36*
X1020142Y593450D02*
X1016938D01*
Y593874D01*
X1020142D01*
Y593450D01*
D02*
G37*
%LPC*%
G36*
X969673Y491499D02*
X969600Y491475D01*
X963522Y491487D01*
X963098Y491475D01*
X962880Y491378D01*
X962831Y491354D01*
X962758Y491330D01*
X962685Y491354D01*
X962394Y491378D01*
X962249Y491281D01*
X961885Y491257D01*
X961764Y491208D01*
X961715Y491160D01*
X961630Y491099D01*
X961375Y491039D01*
X961278Y491014D01*
X961157Y490966D01*
X961108Y490942D01*
X961060Y490893D01*
X960745Y490723D01*
X960696Y490699D01*
X960660Y490662D01*
X960526Y490553D01*
X960478Y490529D01*
X960332Y490383D01*
X960284Y490359D01*
X960150Y490226D01*
X960126Y490177D01*
X960017Y490092D01*
X959908Y489959D01*
X959883Y489910D01*
X959762Y489789D01*
X959641Y489571D01*
X959616Y489522D01*
X959568Y489474D01*
X959483Y489340D01*
X959447Y489207D01*
X959386Y489073D01*
X959265Y488879D01*
X959204Y488600D01*
X959095Y488248D01*
X959058Y488115D01*
X959034Y488042D01*
X959010Y487509D01*
X959034Y487120D01*
X959058Y486950D01*
X959083Y486853D01*
X959119Y486720D01*
X959168Y486599D01*
X959204Y486465D01*
X959252Y486271D01*
X959313Y486113D01*
X959435Y485919D01*
X959495Y485762D01*
X959544Y485713D01*
X959568Y485665D01*
X959616Y485616D01*
X959738Y485398D01*
X960332Y484803D01*
X960502Y484706D01*
X960599Y484609D01*
X960648Y484585D01*
X960696Y484536D01*
X960793Y484512D01*
X960914Y484464D01*
X960975Y484403D01*
X960999Y484330D01*
X960963Y484221D01*
X960793Y484124D01*
X960623Y484051D01*
X960526Y484027D01*
X960405Y483978D01*
X960235Y483857D01*
X960187Y483833D01*
X959968Y483736D01*
X959895Y483663D01*
X959774Y483590D01*
X959580Y483396D01*
X959531Y483372D01*
X959228Y483069D01*
X959204Y483020D01*
X959058Y482874D01*
X958961Y482705D01*
X958913Y482656D01*
X958889Y482608D01*
X958816Y482535D01*
X958670Y482268D01*
X958646Y482220D01*
X958610Y482183D01*
X958549Y482025D01*
X958500Y481831D01*
X958379Y481443D01*
X958343Y481310D01*
X958306Y481128D01*
X958282Y480667D01*
X958306Y479696D01*
X958343Y479563D01*
X958379Y479332D01*
X958488Y479078D01*
X958549Y478799D01*
X958646Y478580D01*
X958743Y478410D01*
X958767Y478313D01*
X958840Y478144D01*
X958889Y478095D01*
X959034Y477828D01*
X959058Y477780D01*
X959095Y477743D01*
X959143Y477719D01*
X959228Y477561D01*
X959398Y477391D01*
X959422Y477343D01*
X959616Y477149D01*
X959750Y477040D01*
X959835Y476979D01*
X959895Y476894D01*
X960174Y476736D01*
X960308Y476627D01*
X960356Y476603D01*
X960478Y476554D01*
X960781Y476397D01*
X960963Y476360D01*
X961181Y476263D01*
X961375Y476190D01*
X961472Y476166D01*
X961545Y476142D01*
X961715Y476118D01*
X961958Y476093D01*
X962176Y475996D01*
X962358Y476008D01*
X962479Y476033D01*
X962564Y476021D01*
X962831Y475899D01*
X964529Y475875D01*
X964554D01*
X969467Y475887D01*
X969770Y475875D01*
X969940Y475924D01*
X969952Y475960D01*
X969988Y475996D01*
X969976Y490784D01*
X970000Y491317D01*
X969976Y491390D01*
X969952Y491439D01*
X969891Y491475D01*
X969673Y491499D01*
D02*
G37*
G36*
X996967D02*
X996797Y491475D01*
X996724Y491451D01*
X996676Y491427D01*
X996627Y491305D01*
X996639Y489765D01*
X996664Y489668D01*
X996712Y489498D01*
X996882Y489328D01*
X996979Y489158D01*
X997125Y489013D01*
X997149Y488964D01*
X997222Y488891D01*
X997234Y488879D01*
X997282Y488831D01*
X997440Y488600D01*
X997464Y488552D01*
X997525Y488491D01*
X997574Y488467D01*
X997658Y488358D01*
X997683Y488309D01*
X997780Y488212D01*
X997901Y488042D01*
X997925Y487994D01*
X998010Y487909D01*
X998120Y487775D01*
X998144Y487727D01*
X998216Y487654D01*
X998386Y487436D01*
X998411Y487387D01*
X998495Y487302D01*
X998605Y487169D01*
X998629Y487120D01*
X998787Y486963D01*
X998884Y486817D01*
X998932Y486793D01*
X998993Y486708D01*
X999066Y486586D01*
X999187Y486465D01*
X999211Y486417D01*
X999284Y486344D01*
X999308Y486295D01*
X999357Y486247D01*
X999381Y486198D01*
X999454Y486126D01*
X999527Y486004D01*
X999660Y485871D01*
X999769Y485737D01*
X999793Y485689D01*
X999854Y485628D01*
X999963Y485495D01*
X999988Y485446D01*
X1000109Y485325D01*
X1000230Y485155D01*
X1000255Y485107D01*
X1000339Y485022D01*
X1000449Y484888D01*
X1000473Y484840D01*
X1000618Y484694D01*
X1000691Y484573D01*
X1000813Y484451D01*
X1000934Y484282D01*
X1000958Y484233D01*
X1001104Y484088D01*
X1001128Y484039D01*
X1001237Y483881D01*
X1001286Y483857D01*
X1001322Y483821D01*
X1001395Y483699D01*
X1001480Y483615D01*
X1001589Y483481D01*
X1001613Y483433D01*
X1001783Y483263D01*
X1001880Y483093D01*
X1002026Y482947D01*
X1002050Y482899D01*
X1002220Y482729D01*
X1002341Y482511D01*
X1002511Y482341D01*
X1002535Y482292D01*
X1002705Y482122D01*
X1002802Y481953D01*
X1002911Y481843D01*
X1003020Y481710D01*
X1003045Y481661D01*
X1003190Y481516D01*
X1003287Y481346D01*
X1003348Y481285D01*
X1003396Y481261D01*
X1003505Y481103D01*
X1003530Y481055D01*
X1003590Y480994D01*
X1003700Y480861D01*
X1003724Y480812D01*
X1003833Y480703D01*
X1003942Y480570D01*
X1003967Y480521D01*
X1004088Y480400D01*
X1004112Y480351D01*
X1004185Y480279D01*
X1004209Y480230D01*
X1004246Y480194D01*
X1004355Y480060D01*
X1004427Y479939D01*
X1004488Y479878D01*
X1004573Y479818D01*
X1004670Y479648D01*
X1004755Y479563D01*
X1004864Y479429D01*
X1004888Y479381D01*
X1004961Y479308D01*
X1005131Y479090D01*
X1005155Y479041D01*
X1005240Y478956D01*
X1005349Y478823D01*
X1005374Y478774D01*
X1005568Y478580D01*
X1005592Y478532D01*
X1005701Y478423D01*
X1005810Y478289D01*
X1005835Y478241D01*
X1006174Y477901D01*
X1006150Y477804D01*
X1006089Y477767D01*
X996555Y477743D01*
X996433Y477695D01*
X996385Y477622D01*
X996397Y476469D01*
X996373Y476081D01*
X996397Y475984D01*
X996506Y475899D01*
X996822Y475875D01*
X996918Y475899D01*
X996991Y475875D01*
X1008091Y475887D01*
X1008443Y475875D01*
X1008540Y475899D01*
X1008600Y475960D01*
X1008625Y477634D01*
X1008600Y477877D01*
X1008455Y478022D01*
X1008358Y478192D01*
X1008249Y478301D01*
X1008139Y478435D01*
X1008115Y478483D01*
X1007970Y478629D01*
X1007873Y478799D01*
X1007848Y478847D01*
X1007763Y478908D01*
X1007654Y479041D01*
X1007630Y479090D01*
X1007484Y479235D01*
X1007387Y479405D01*
X1007363Y479454D01*
X1007169Y479648D01*
X1007145Y479696D01*
X1007048Y479793D01*
X1006951Y479963D01*
X1006842Y480072D01*
X1006732Y480206D01*
X1006672Y480291D01*
X1006623Y480315D01*
X1006587Y480351D01*
X1006490Y480521D01*
X1006465Y480570D01*
X1006320Y480715D01*
X1006296Y480764D01*
X1006126Y480934D01*
X1006004Y481152D01*
X1005835Y481322D01*
X1005810Y481370D01*
X1005640Y481540D01*
X1005544Y481710D01*
X1005519Y481758D01*
X1005325Y481953D01*
X1005301Y482001D01*
X1005216Y482086D01*
X1005058Y482317D01*
X1005034Y482365D01*
X1004913Y482486D01*
X1004888Y482535D01*
X1004719Y482705D01*
X1004622Y482874D01*
X1004525Y482972D01*
X1004500Y483020D01*
X1004427Y483093D01*
X1004403Y483141D01*
X1004258Y483287D01*
X1004161Y483457D01*
X1004076Y483542D01*
X1003967Y483675D01*
X1003942Y483724D01*
X1003882Y483784D01*
X1003797Y483845D01*
X1003675Y484063D01*
X1003530Y484209D01*
X1003505Y484257D01*
X1003457Y484306D01*
X1003433Y484355D01*
X1003336Y484451D01*
X1003214Y484621D01*
X1003190Y484670D01*
X1003105Y484755D01*
X1002996Y484888D01*
X1002972Y484937D01*
X1002935Y484949D01*
X1002826Y485058D01*
X1002729Y485228D01*
X1002705Y485276D01*
X1002620Y485361D01*
X1002511Y485495D01*
X1002486Y485543D01*
X1002450Y485580D01*
X1002402Y485604D01*
X1002292Y485786D01*
X1002220Y485859D01*
X1002050Y486077D01*
X1002026Y486126D01*
X1001989Y486138D01*
X1001928Y486198D01*
X1001832Y486368D01*
X1001686Y486514D01*
X1001589Y486684D01*
X1001419Y486853D01*
X1001346Y486975D01*
X1001261Y487060D01*
X1001152Y487193D01*
X1001128Y487242D01*
X1001055Y487314D01*
X1000885Y487533D01*
X1000861Y487581D01*
X1000764Y487678D01*
X1000703Y487763D01*
X1000606Y487909D01*
X1000558Y487933D01*
X1000521Y487969D01*
X1000461Y488054D01*
X1000364Y488200D01*
X1000315Y488224D01*
X1000279Y488261D01*
X1000255Y488309D01*
X1000206Y488358D01*
X1000182Y488406D01*
X1000097Y488491D01*
X999988Y488624D01*
X999963Y488673D01*
X999927Y488709D01*
X999842Y488770D01*
X999818Y488819D01*
X999769Y488867D01*
X999745Y488916D01*
X999575Y489086D01*
X999551Y489134D01*
X999442Y489243D01*
X999393Y489267D01*
X999345Y489316D01*
X999296Y489340D01*
X999211Y489425D01*
X999187Y489546D01*
X999272Y489607D01*
X1007327Y489631D01*
X1007400Y489607D01*
X1007618Y489631D01*
X1007703Y489716D01*
X1007727Y489838D01*
X1007703Y490080D01*
X1007727Y490153D01*
X1007715Y490966D01*
X1007727Y491317D01*
X1007679Y491439D01*
X1007557Y491487D01*
X997282Y491475D01*
X996967Y491499D01*
D02*
G37*
G36*
X989058Y487521D02*
X988961Y487496D01*
X988791Y487424D01*
X988645Y487399D01*
X988548Y487424D01*
X988281Y487302D01*
X988039Y487278D01*
X987942Y487254D01*
X987772Y487181D01*
X987554Y487060D01*
X987457Y487035D01*
X987287Y486914D01*
X987165Y486841D01*
X986996Y486768D01*
X986947Y486720D01*
X986777Y486599D01*
X986729Y486574D01*
X986692Y486538D01*
X986668Y486489D01*
X986535Y486380D01*
X986486Y486356D01*
X986013Y485883D01*
X985989Y485834D01*
X985867Y485713D01*
X985746Y485543D01*
X985722Y485495D01*
X985649Y485422D01*
X985479Y485107D01*
X985455Y485058D01*
X985406Y485009D01*
X985309Y484840D01*
X985261Y484670D01*
X985152Y484488D01*
X985091Y484330D01*
X985042Y484136D01*
X984958Y483930D01*
X984909Y483809D01*
X984885Y483712D01*
X984861Y483590D01*
X984824Y483311D01*
X984800Y483214D01*
X984763Y483081D01*
X984727Y482874D01*
X984703Y482559D01*
X984679Y482486D01*
X984654Y482074D01*
X984630Y482001D01*
X984642Y481091D01*
X984763Y481018D01*
X984861Y480994D01*
X984933Y481018D01*
X992539Y481006D01*
X992770Y481018D01*
X992940Y480994D01*
X993025Y480885D01*
X993012Y480727D01*
X992976Y480424D01*
X992952Y480254D01*
X992903Y480060D01*
X992818Y479854D01*
X992758Y479599D01*
X992685Y479429D01*
X992661Y479381D01*
X992612Y479332D01*
X992576Y479247D01*
X992491Y479017D01*
X992418Y478944D01*
X992297Y478774D01*
X992272Y478726D01*
X992103Y478556D01*
X992078Y478507D01*
X992042Y478471D01*
X991993Y478447D01*
X991860Y478313D01*
X991836Y478265D01*
X991654Y478156D01*
X991581Y478083D01*
X991448Y477998D01*
X991290Y477937D01*
X991241Y477889D01*
X991023Y477767D01*
X990683Y477670D01*
X990562Y477622D01*
X990392Y477573D01*
X990319Y477549D01*
X989082Y477525D01*
X988694Y477622D01*
X988536Y477683D01*
X988403Y477719D01*
X988112Y477792D01*
X988039Y477864D01*
X987905Y477949D01*
X987748Y478010D01*
X987663Y478095D01*
X987529Y478204D01*
X987481Y478228D01*
X987420Y478289D01*
X987396Y478338D01*
X987202Y478532D01*
X987178Y478580D01*
X987129Y478629D01*
X987105Y478677D01*
X987032Y478750D01*
X986935Y478920D01*
X986838Y479066D01*
X986717Y479284D01*
X986692Y479332D01*
X986632Y479369D01*
X986438Y479393D01*
X986243Y479344D01*
X986074Y479272D01*
X985419Y479247D01*
X985322Y479223D01*
X985188Y479187D01*
X984982Y479150D01*
X984885Y479126D01*
X984776Y479090D01*
X984751Y478993D01*
X984836Y478786D01*
X984873Y478629D01*
X985018Y478313D01*
X985030Y478301D01*
X985067Y478216D01*
X985115Y478046D01*
X985212Y477949D01*
X985382Y477634D01*
X985455Y477561D01*
X985552Y477391D01*
X985746Y477197D01*
X985770Y477149D01*
X985880Y477040D01*
X985928Y477015D01*
X985989Y476955D01*
X986013Y476906D01*
X986122Y476821D01*
X986171Y476797D01*
X986340Y476627D01*
X986389Y476603D01*
X986510Y476554D01*
X986619Y476445D01*
X986765Y476348D01*
X986923Y476287D01*
X986971Y476239D01*
X987020Y476215D01*
X987056Y476178D01*
X987178Y476130D01*
X987335Y476093D01*
X987554Y475996D01*
X987687Y475911D01*
X987990Y475875D01*
X988160Y475802D01*
X988500Y475778D01*
X988718Y475681D01*
X990441Y475657D01*
X990538Y475681D01*
X990708Y475754D01*
X990999Y475778D01*
X991169Y475851D01*
X991460Y475875D01*
X991629Y475948D01*
X991678Y475972D01*
X991727Y476021D01*
X991812Y476057D01*
X991969Y476093D01*
X992066Y476118D01*
X992236Y476190D01*
X992285Y476215D01*
X992345Y476275D01*
X992467Y476324D01*
X992624Y476385D01*
X992746Y476506D01*
X992915Y476603D01*
X993000Y476688D01*
X993134Y476797D01*
X993182Y476821D01*
X993376Y477015D01*
X993425Y477040D01*
X993631Y477246D01*
X993728Y477416D01*
X993789Y477476D01*
X993837Y477501D01*
X993874Y477537D01*
X993971Y477707D01*
X993995Y477755D01*
X994068Y477828D01*
X994165Y477998D01*
X994213Y478119D01*
X994310Y478216D01*
X994383Y478338D01*
X994432Y478532D01*
X994589Y478835D01*
X994626Y478968D01*
X994674Y479162D01*
X994723Y479284D01*
X994783Y479417D01*
X994820Y479575D01*
X994844Y479672D01*
X994868Y479915D01*
X994917Y480254D01*
X994941Y480327D01*
X994965Y480885D01*
X994990Y480958D01*
X995014Y481856D01*
X994990Y481928D01*
X994941Y482559D01*
X994917Y482632D01*
X994893Y482947D01*
X994868Y483044D01*
X994844Y483287D01*
X994820Y483384D01*
X994771Y483554D01*
X994687Y483833D01*
X994626Y484088D01*
X994602Y484185D01*
X994553Y484306D01*
X994529Y484355D01*
X994492Y484391D01*
X994444Y484512D01*
X994407Y484670D01*
X994335Y484840D01*
X994286Y484888D01*
X994165Y485107D01*
X994104Y485240D01*
X993995Y485373D01*
X993898Y485543D01*
X993813Y485628D01*
X993704Y485762D01*
X993680Y485810D01*
X993619Y485871D01*
X993534Y485932D01*
X993510Y485980D01*
X993461Y486029D01*
X993437Y486077D01*
X993267Y486198D01*
X993243Y486247D01*
X993109Y486356D01*
X993061Y486380D01*
X992891Y486550D01*
X992721Y486647D01*
X992673Y486671D01*
X992600Y486744D01*
X992333Y486890D01*
X992285Y486914D01*
X992200Y486999D01*
X992078Y487048D01*
X991945Y487084D01*
X991848Y487108D01*
X991775Y487132D01*
X991727Y487157D01*
X991642Y487242D01*
X991520Y487290D01*
X991241Y487327D01*
X991120Y487375D01*
X990829Y487399D01*
X990611Y487496D01*
X989058Y487521D01*
D02*
G37*
G36*
X943179D02*
X943082Y487496D01*
X942912Y487424D01*
X942767Y487399D01*
X942670Y487424D01*
X942573Y487399D01*
X942403Y487302D01*
X942160Y487278D01*
X942063Y487254D01*
X941893Y487181D01*
X941675Y487060D01*
X941505Y486987D01*
X941457Y486963D01*
X941408Y486914D01*
X941287Y486841D01*
X941117Y486768D01*
X941068Y486720D01*
X940899Y486599D01*
X940850Y486574D01*
X940814Y486538D01*
X940753Y486453D01*
X940705Y486429D01*
X940656Y486380D01*
X940608Y486356D01*
X940110Y485859D01*
X940086Y485810D01*
X939940Y485665D01*
X939843Y485495D01*
X939771Y485422D01*
X939673Y485252D01*
X939625Y485131D01*
X939552Y485058D01*
X939528Y485009D01*
X939479Y484961D01*
X939407Y484767D01*
X939382Y484670D01*
X939273Y484488D01*
X939212Y484330D01*
X939188Y484233D01*
X939140Y484063D01*
X939079Y483930D01*
X939006Y483736D01*
X938921Y483190D01*
X938873Y483069D01*
X938849Y482850D01*
X938824Y482608D01*
X938800Y482438D01*
X938776Y482365D01*
X938752Y481103D01*
X938824Y481031D01*
X938946Y481006D01*
X940996Y481018D01*
X941020D01*
X946661Y481006D01*
X946891Y481018D01*
X947061Y480994D01*
X947146Y480885D01*
X947110Y480582D01*
X947085Y480315D01*
X947049Y480157D01*
X947000Y479987D01*
X946940Y479854D01*
X946879Y479599D01*
X946806Y479429D01*
X946782Y479381D01*
X946721Y479320D01*
X946612Y479017D01*
X946540Y478944D01*
X946418Y478774D01*
X946394Y478726D01*
X946224Y478556D01*
X946163Y478471D01*
X946115Y478447D01*
X945897Y478228D01*
X945775Y478156D01*
X945703Y478083D01*
X945569Y477998D01*
X945411Y477937D01*
X945363Y477889D01*
X945144Y477767D01*
X945047Y477743D01*
X944805Y477670D01*
X944684Y477622D01*
X944514Y477573D01*
X944441Y477549D01*
X943204Y477525D01*
X942815Y477622D01*
X942658Y477683D01*
X942524Y477719D01*
X942233Y477792D01*
X942160Y477864D01*
X942027Y477949D01*
X941869Y478010D01*
X941784Y478095D01*
X941651Y478204D01*
X941602Y478228D01*
X941517Y478313D01*
X941493Y478362D01*
X941323Y478532D01*
X941299Y478580D01*
X941178Y478702D01*
X941056Y478920D01*
X940959Y479066D01*
X940838Y479284D01*
X940753Y479369D01*
X940656Y479393D01*
X940413Y479369D01*
X940195Y479272D01*
X939516Y479247D01*
X939310Y479187D01*
X939103Y479150D01*
X939006Y479126D01*
X938897Y479090D01*
X938873Y478993D01*
X938909Y478884D01*
X938970Y478726D01*
X939018Y478532D01*
X939128Y478350D01*
X939212Y478119D01*
X939297Y477962D01*
X939346Y477937D01*
X939479Y477683D01*
X939504Y477634D01*
X939576Y477561D01*
X939673Y477391D01*
X939868Y477197D01*
X939892Y477149D01*
X940025Y477015D01*
X940074Y476991D01*
X940110Y476955D01*
X940134Y476906D01*
X940244Y476821D01*
X940292Y476797D01*
X940353Y476736D01*
X940377Y476688D01*
X940462Y476627D01*
X940510Y476603D01*
X940632Y476554D01*
X940753Y476433D01*
X940971Y476312D01*
X941093Y476239D01*
X941141Y476215D01*
X941178Y476178D01*
X941299Y476130D01*
X941457Y476093D01*
X941675Y475996D01*
X941808Y475911D01*
X942112Y475875D01*
X942282Y475802D01*
X942621Y475778D01*
X942840Y475681D01*
X944562Y475657D01*
X944659Y475681D01*
X944829Y475754D01*
X945120Y475778D01*
X945290Y475851D01*
X945581Y475875D01*
X945751Y475948D01*
X945799Y475972D01*
X945848Y476021D01*
X945933Y476057D01*
X946091Y476093D01*
X946188Y476118D01*
X946309Y476166D01*
X946430Y476239D01*
X946600Y476336D01*
X946721Y476385D01*
X946770Y476409D01*
X946867Y476506D01*
X947037Y476603D01*
X947122Y476688D01*
X947255Y476797D01*
X947304Y476821D01*
X947498Y477015D01*
X947546Y477040D01*
X947753Y477246D01*
X947850Y477416D01*
X947934Y477501D01*
X947983Y477525D01*
X948092Y477731D01*
X948189Y477828D01*
X948286Y477998D01*
X948335Y478119D01*
X948432Y478216D01*
X948505Y478338D01*
X948553Y478532D01*
X948602Y478653D01*
X948723Y478871D01*
X948796Y479162D01*
X948856Y479320D01*
X948929Y479514D01*
X948953Y479636D01*
X948978Y479830D01*
X949002Y480048D01*
X949038Y480279D01*
X949063Y480351D01*
X949087Y480934D01*
X949136Y481055D01*
X949123Y481892D01*
X949099Y481989D01*
X949075Y482450D01*
X949051Y482595D01*
X948990Y483093D01*
X948966Y483263D01*
X948869Y483651D01*
X948808Y483809D01*
X948784Y483906D01*
X948759Y484027D01*
X948723Y484185D01*
X948650Y484355D01*
X948614Y484391D01*
X948529Y484621D01*
X948505Y484718D01*
X948456Y484840D01*
X948408Y484888D01*
X948286Y485107D01*
X948226Y485240D01*
X948117Y485373D01*
X948019Y485543D01*
X947874Y485689D01*
X947801Y485810D01*
X947740Y485871D01*
X947692Y485895D01*
X947655Y485932D01*
X947631Y485980D01*
X947583Y486029D01*
X947559Y486077D01*
X947522Y486089D01*
X947474Y486138D01*
X947425Y486162D01*
X947389Y486198D01*
X947364Y486247D01*
X947231Y486356D01*
X947182Y486380D01*
X947037Y486526D01*
X946818Y486647D01*
X946721Y486744D01*
X946552Y486841D01*
X946430Y486890D01*
X946321Y486999D01*
X946200Y487048D01*
X946066Y487084D01*
X945969Y487108D01*
X945860Y487145D01*
X945727Y487254D01*
X945605Y487302D01*
X945363Y487327D01*
X945241Y487375D01*
X944902Y487399D01*
X944732Y487496D01*
X943179Y487521D01*
D02*
G37*
G36*
X930854Y487545D02*
X930660Y487521D01*
X930393Y487399D01*
X930078Y487424D01*
X929860Y487327D01*
X929617Y487302D01*
X929520Y487278D01*
X929387Y487242D01*
X929253Y487132D01*
X929132Y487084D01*
X929035Y487060D01*
X928865Y487011D01*
X928792Y486938D01*
X928622Y486841D01*
X928501Y486793D01*
X928331Y486623D01*
X928283Y486599D01*
X928234Y486550D01*
X928186Y486526D01*
X928101Y486441D01*
X928076Y486392D01*
X928028Y486344D01*
X928004Y486295D01*
X927882Y486174D01*
X927737Y485907D01*
X927712Y485859D01*
X927628Y485774D01*
X927579Y485653D01*
X927543Y485495D01*
X927494Y485325D01*
X927446Y485131D01*
X927373Y484961D01*
X927349Y484791D01*
X927324Y484718D01*
X927300Y481152D01*
X927276Y478580D01*
X927227Y478241D01*
X927252Y478168D01*
X927203Y477707D01*
X927130Y477294D01*
X927106Y477197D01*
X927082Y476955D01*
X927057Y476785D01*
X926924Y476482D01*
X926863Y476227D01*
X926742Y476033D01*
X926766Y475960D01*
X926851Y475899D01*
X927191Y475875D01*
X927264Y475899D01*
X927337Y475875D01*
X928222Y475887D01*
X928574Y475875D01*
X928695Y475924D01*
X928719Y475972D01*
X928780Y476130D01*
X928926Y476445D01*
X928950Y476639D01*
X928974Y476712D01*
X928998Y477052D01*
X929035Y477161D01*
X929083Y477185D01*
X929350Y477064D01*
X929520Y476894D01*
X929738Y476773D01*
X929860Y476651D01*
X930078Y476530D01*
X930127Y476506D01*
X930187Y476445D01*
X930575Y476251D01*
X930770Y476130D01*
X931049Y476069D01*
X931182Y476008D01*
X931315Y475899D01*
X931631Y475875D01*
X931801Y475802D01*
X932092Y475778D01*
X932310Y475681D01*
X933960Y475657D01*
X934057Y475681D01*
X934227Y475802D01*
X934445Y475778D01*
X934615Y475851D01*
X934833Y475875D01*
X935027Y475924D01*
X935100Y475996D01*
X935234Y476081D01*
X935391Y476118D01*
X935513Y476166D01*
X935610Y476263D01*
X935828Y476385D01*
X935876Y476409D01*
X935937Y476469D01*
X935962Y476518D01*
X935998Y476530D01*
X936046Y476579D01*
X936095Y476603D01*
X936180Y476712D01*
X936240Y476797D01*
X936289Y476821D01*
X936350Y476882D01*
X936447Y477052D01*
X936471Y477100D01*
X936544Y477173D01*
X936641Y477343D01*
X936738Y477561D01*
X936798Y477646D01*
X936847Y477767D01*
X936920Y478059D01*
X936980Y478338D01*
X937005Y478410D01*
X937029Y479284D01*
X937005Y479381D01*
X936920Y479660D01*
X936896Y479757D01*
X936859Y479987D01*
X936811Y480109D01*
X936786Y480157D01*
X936701Y480266D01*
X936641Y480424D01*
X936568Y480594D01*
X936398Y480812D01*
X936374Y480861D01*
X936253Y480982D01*
X936228Y481031D01*
X936180Y481079D01*
X936156Y481128D01*
X936071Y481213D01*
X936022Y481237D01*
X935852Y481407D01*
X935634Y481528D01*
X935585Y481552D01*
X935452Y481686D01*
X935319Y481722D01*
X935197Y481771D01*
X935149Y481819D01*
X935015Y481904D01*
X934882Y481940D01*
X934518Y482110D01*
X934324Y482159D01*
X933984Y482207D01*
X933863Y482256D01*
X933499Y482280D01*
X933281Y482377D01*
X932577Y482401D01*
X932359Y482499D01*
X932165Y482523D01*
X932092Y482499D01*
X931934Y482511D01*
X931752Y482499D01*
X931485Y482620D01*
X931000Y482644D01*
X930830Y482668D01*
X930782Y482717D01*
X930490Y482741D01*
X930284Y482826D01*
X930187Y482850D01*
X929969Y482874D01*
X929847Y482899D01*
X929641Y482935D01*
X929229Y483129D01*
X929180Y483251D01*
X929193Y483918D01*
X929217Y484160D01*
X929253Y484294D01*
X929314Y484451D01*
X929362Y484573D01*
X929435Y484743D01*
X929459Y484791D01*
X929617Y484949D01*
X929714Y485094D01*
X929847Y485179D01*
X930005Y485240D01*
X930272Y485410D01*
X930442Y485434D01*
X930454Y485446D01*
X930563Y485483D01*
X930612Y485531D01*
X930903Y485555D01*
X931170Y485677D01*
X931400Y485665D01*
X932019Y485677D01*
X932262Y485653D01*
X932359Y485677D01*
X932674Y485653D01*
X932771Y485628D01*
X932892Y485580D01*
X933184Y485555D01*
X933438Y485446D01*
X933560Y485422D01*
X933693Y485386D01*
X933790Y485289D01*
X934008Y485167D01*
X934057Y485143D01*
X934069Y485107D01*
X934178Y484997D01*
X934227Y484973D01*
X934360Y484791D01*
X934385Y484743D01*
X934494Y484633D01*
X934603Y484330D01*
X934651Y484282D01*
X934748Y484112D01*
X934773Y484015D01*
X934809Y483881D01*
X934894Y483821D01*
X935015Y483797D01*
X935149Y483809D01*
X935246Y483833D01*
X935464Y483930D01*
X935937Y483918D01*
X936046Y483930D01*
X936216Y484003D01*
X936507Y484027D01*
X936641Y484088D01*
X936665Y484257D01*
X936592Y484500D01*
X936471Y484767D01*
X936422Y484937D01*
X936398Y485034D01*
X936338Y485240D01*
X936180Y485471D01*
X936156Y485568D01*
X935937Y485883D01*
X935913Y485932D01*
X935743Y486101D01*
X935719Y486150D01*
X935537Y486332D01*
X935488Y486356D01*
X935319Y486526D01*
X935100Y486647D01*
X934967Y486781D01*
X934809Y486841D01*
X934688Y486914D01*
X934469Y487035D01*
X934336Y487072D01*
X934239Y487096D01*
X934033Y487132D01*
X933814Y487278D01*
X933475Y487302D01*
X933208Y487424D01*
X933074Y487411D01*
X932892Y487375D01*
X932795Y487399D01*
X932638Y487509D01*
X932541Y487533D01*
X930927Y487521D01*
X930854Y487545D01*
D02*
G37*
G36*
X922606Y491499D02*
X922411Y491451D01*
X922375Y491415D01*
X922339Y491330D01*
X922351Y482874D01*
X922290Y482814D01*
X922048Y482935D01*
X922011Y482972D01*
X921987Y483020D01*
X921502Y483505D01*
X921477Y483554D01*
X921441Y483590D01*
X921392Y483615D01*
X921332Y483675D01*
X921308Y483724D01*
X921150Y483881D01*
X921029Y484027D01*
X920980Y484051D01*
X920846Y484185D01*
X920822Y484233D01*
X920786Y484270D01*
X920737Y484294D01*
X920689Y484342D01*
X920567Y484488D01*
X920519Y484512D01*
X920386Y484646D01*
X920361Y484694D01*
X919282Y485774D01*
X919173Y485907D01*
X919148Y485956D01*
X918093Y487011D01*
X917984Y487145D01*
X917959Y487193D01*
X917850Y487278D01*
X915642Y487302D01*
X915545Y487278D01*
X915485Y487217D01*
X915509Y487120D01*
X915545Y487084D01*
X915594Y487060D01*
X915642Y487011D01*
X915691Y486987D01*
X915861Y486817D01*
X915982Y486671D01*
X916031Y486647D01*
X916164Y486514D01*
X916188Y486465D01*
X916382Y486320D01*
X916407Y486271D01*
X916467Y486211D01*
X916516Y486186D01*
X917244Y485458D01*
X917292Y485434D01*
X917304Y485398D01*
X918141Y484561D01*
X918226Y484500D01*
X918251Y484451D01*
X918384Y484318D01*
X918432Y484294D01*
X918651Y484076D01*
X918699Y484051D01*
X919585Y483166D01*
X919658Y483044D01*
X919633Y482874D01*
X919488Y482729D01*
X919367Y482511D01*
X919342Y482462D01*
X919245Y482365D01*
X919173Y482244D01*
X919124Y482122D01*
X919027Y482025D01*
X918906Y481807D01*
X918869Y481771D01*
X918857Y481758D01*
Y481734D01*
X918760Y481637D01*
X918736Y481589D01*
X918663Y481419D01*
X918542Y481297D01*
X918420Y481079D01*
X918323Y480982D01*
X918178Y480715D01*
X918154Y480667D01*
X918081Y480594D01*
X917959Y480376D01*
X917862Y480279D01*
X917802Y480194D01*
X917741Y480036D01*
X917620Y479915D01*
X917498Y479696D01*
X917401Y479599D01*
X917256Y479332D01*
X917232Y479284D01*
X917134Y479187D01*
X917038Y479017D01*
X917013Y478968D01*
X916940Y478896D01*
X916795Y478629D01*
X916758Y478592D01*
X916649Y478459D01*
X916625Y478410D01*
X916577Y478289D01*
X916455Y478168D01*
X916334Y477949D01*
X916310Y477901D01*
X916237Y477828D01*
X916091Y477561D01*
X915994Y477464D01*
X915873Y477246D01*
X915800Y477173D01*
X915776Y477124D01*
X915715Y477064D01*
X915655Y476906D01*
X915533Y476785D01*
X915412Y476567D01*
X915388Y476518D01*
X915315Y476445D01*
X915194Y476227D01*
X915109Y476142D01*
X915060Y476118D01*
X914999Y476008D01*
X915024Y475936D01*
X915133Y475875D01*
X915424Y475899D01*
X915497Y475875D01*
X916819Y475887D01*
X917147Y475875D01*
X917268Y475924D01*
X917377Y476057D01*
X917401Y476106D01*
X917450Y476154D01*
X917596Y476421D01*
X917692Y476518D01*
X917765Y476639D01*
X917814Y476761D01*
X917899Y476846D01*
X918044Y477088D01*
X918154Y477222D01*
X918299Y477489D01*
X918323Y477537D01*
X918372Y477585D01*
X918517Y477852D01*
X918615Y477949D01*
X918699Y478083D01*
X918748Y478204D01*
X918857Y478338D01*
X918978Y478556D01*
X919003Y478605D01*
X919100Y478702D01*
X919173Y478823D01*
X919221Y478944D01*
X919318Y479041D01*
X919464Y479308D01*
X919488Y479357D01*
X919561Y479429D01*
X919633Y479551D01*
X919682Y479672D01*
X919779Y479769D01*
X919925Y480036D01*
X920022Y480133D01*
X920119Y480303D01*
X920143Y480351D01*
X920216Y480424D01*
X920337Y480643D01*
X920531Y480934D01*
X920555Y480982D01*
X920604Y481103D01*
X920725Y481225D01*
X920871Y481492D01*
X920895Y481540D01*
X920931Y481552D01*
X920992Y481613D01*
X921089Y481637D01*
X921174Y481625D01*
X921210Y481589D01*
X921235Y481540D01*
X922327Y480448D01*
X922351Y476227D01*
X922327Y476154D01*
X922351Y475984D01*
X922460Y475899D01*
X922702Y475875D01*
X922872Y475899D01*
X922945Y475875D01*
X923855Y475887D01*
X924085Y475875D01*
X924243Y475936D01*
X924279Y476021D01*
X924267Y491002D01*
X924292Y491245D01*
X924267Y491415D01*
X924195Y491463D01*
X924098Y491487D01*
X923139Y491475D01*
X922606Y491499D01*
D02*
G37*
G36*
X976478Y487533D02*
X976296Y487521D01*
X976126Y487448D01*
X976005Y487424D01*
X975981D01*
X975860Y487399D01*
X975617Y487327D01*
X975447Y487302D01*
X975277Y487254D01*
X975229Y487205D01*
X975095Y487120D01*
X974962Y487084D01*
X974865Y487060D01*
X974743Y487011D01*
X974671Y486938D01*
X974404Y486793D01*
X974234Y486623D01*
X974185Y486599D01*
X974149Y486562D01*
X974125Y486514D01*
X973967Y486356D01*
X973858Y486223D01*
X973834Y486174D01*
X973761Y486101D01*
X973664Y485932D01*
X973615Y485810D01*
X973567Y485762D01*
X973542Y485713D01*
X973506Y485677D01*
X973446Y485519D01*
X973397Y485349D01*
X973373Y485252D01*
X973324Y485131D01*
X973263Y484973D01*
X973239Y484876D01*
X973215Y484730D01*
X973191Y484488D01*
X973167Y484051D01*
X973142Y483323D01*
X973118Y483178D01*
X973130Y476469D01*
X973106Y476081D01*
X973130Y475984D01*
X973239Y475899D01*
X973458Y475875D01*
X973627Y475899D01*
X973700Y475875D01*
X974561Y475887D01*
X974913Y475875D01*
X975047Y475936D01*
X975071Y483287D01*
X975095Y483675D01*
X975144Y484015D01*
X975204Y484173D01*
X975277Y484367D01*
X975302Y484464D01*
X975338Y484597D01*
X975374Y484633D01*
X975532Y484864D01*
X975556Y484912D01*
X975593Y484949D01*
X975641Y484973D01*
X975726Y485058D01*
X975750Y485107D01*
X975787Y485143D01*
X975957Y485240D01*
X976005Y485264D01*
X976114Y485373D01*
X976272Y485434D01*
X976369Y485458D01*
X976733Y485628D01*
X976975Y485653D01*
X977048Y485677D01*
X977437Y485653D01*
X977509Y485677D01*
X977897Y485653D01*
X977995Y485628D01*
X978201Y485568D01*
X978468Y485471D01*
X978565Y485446D01*
X978698Y485410D01*
X978819Y485361D01*
X978868Y485313D01*
X979135Y485167D01*
X979183Y485119D01*
X979232Y485094D01*
X979280Y485046D01*
X979402Y484973D01*
X979487Y484888D01*
X979511Y484840D01*
X979572Y484779D01*
X979620Y484755D01*
X979705Y484670D01*
X979826Y484451D01*
X979850Y484403D01*
X979887Y484367D01*
X979960Y484221D01*
X979996Y484063D01*
X980117Y483869D01*
X980190Y483530D01*
X980214Y483360D01*
X980251Y483226D01*
X980287Y482996D01*
X980312Y482923D01*
X980336Y476057D01*
X980360Y475960D01*
X980445Y475899D01*
X980687Y475875D01*
X980857Y475899D01*
X980930Y475875D01*
X981767Y475887D01*
X982119Y475875D01*
X982216Y475899D01*
X982252Y475936D01*
X982289Y476021D01*
X982277Y486659D01*
X982301Y487120D01*
X982277Y487217D01*
X982216Y487278D01*
X980785Y487302D01*
X980615Y487254D01*
X980554Y487193D01*
X980530Y487048D01*
X980554Y486975D01*
X980542Y485968D01*
X980445Y485944D01*
X980348Y485968D01*
X980299Y486016D01*
X980251Y486041D01*
X980142Y486198D01*
X980117Y486247D01*
X980008Y486356D01*
X979960Y486380D01*
X979899Y486465D01*
X979766Y486574D01*
X979717Y486599D01*
X979572Y486744D01*
X979293Y486902D01*
X979159Y487011D01*
X978965Y487084D01*
X978662Y487242D01*
X978528Y487278D01*
X978431Y487302D01*
X978176Y487411D01*
X977970Y487399D01*
X977861Y487436D01*
X977667Y487509D01*
X976478Y487533D01*
D02*
G37*
G36*
X951113Y487521D02*
X951016Y487496D01*
X950846Y487448D01*
X950640Y487363D01*
X950446Y487314D01*
X950239Y487278D01*
X950070Y487205D01*
X950009Y487145D01*
X949742Y487023D01*
X949669Y486902D01*
X949694Y486781D01*
X949742Y486611D01*
X949875Y486356D01*
X949912Y486223D01*
X949936Y486126D01*
X950045Y485871D01*
X950118Y485677D01*
X950154Y485495D01*
X950203Y485325D01*
X950239Y485289D01*
X950361Y485264D01*
X950482Y485313D01*
X950567Y485373D01*
X950725Y485434D01*
X950822Y485458D01*
X950992Y485580D01*
X951113Y485604D01*
X951210Y485628D01*
X951283Y485653D01*
X951744Y485677D01*
X951986Y485653D01*
X952156Y485628D01*
X952374Y485531D01*
X952544Y485434D01*
X952665Y485386D01*
X952763Y485289D01*
X952811Y485264D01*
X952969Y485107D01*
X952993Y485058D01*
X953029Y485022D01*
X953078Y484997D01*
X953114Y484961D01*
X953211Y484791D01*
X953345Y484658D01*
X953393Y484536D01*
X953430Y484379D01*
X953454Y484282D01*
X953587Y484003D01*
X953612Y483906D01*
X953636Y483639D01*
X953660Y483493D01*
X953684Y483372D01*
X953721Y483214D01*
X953745Y483141D01*
X953769Y482947D01*
X953794Y482874D01*
X953830Y476409D01*
X953818Y476057D01*
X953842Y475960D01*
X954000Y475875D01*
X954255Y475887D01*
X955164Y475875D01*
X955237Y475899D01*
X955504Y475875D01*
X955674Y475899D01*
X955710Y475936D01*
X955735Y487217D01*
X955674Y487278D01*
X954291Y487302D01*
X954121Y487278D01*
X954012Y487169D01*
X954024Y486938D01*
X954012Y486271D01*
Y486247D01*
X954036Y486223D01*
X954024Y485919D01*
X953951Y485895D01*
X953697Y486150D01*
X953575Y486368D01*
X953406Y486586D01*
X953381Y486635D01*
X953163Y486853D01*
X953139Y486902D01*
X953078Y486963D01*
X952908Y487084D01*
X952860Y487108D01*
X952787Y487181D01*
X952702Y487242D01*
X952544Y487302D01*
X952423Y487351D01*
X952386Y487387D01*
X952229Y487448D01*
X952132Y487472D01*
X952059Y487496D01*
X951113Y487521D01*
D02*
G37*
G36*
X1043889Y498002D02*
X1040419Y497977D01*
X1040177Y497953D01*
X1039570Y497929D01*
X1039473Y497905D01*
X1038976Y497844D01*
X1038624Y497808D01*
X1038284Y497759D01*
X1038187Y497735D01*
X1037908Y497650D01*
X1037629Y497589D01*
X1037290Y497541D01*
X1037083Y497480D01*
X1036962Y497431D01*
X1036768Y497359D01*
X1036538Y497322D01*
X1036441Y497298D01*
X1036271Y497274D01*
X1036065Y497213D01*
X1035870Y497165D01*
X1035737Y497128D01*
X1035664Y497104D01*
X1035446Y497080D01*
X1035349Y497055D01*
X1035106Y497031D01*
X1034803Y496898D01*
X1034681Y496849D01*
X1034451Y496813D01*
X1034257Y496764D01*
X1034075Y496655D01*
X1033845Y496570D01*
X1033675Y496522D01*
X1033529Y496425D01*
X1033371Y496364D01*
X1033250Y496340D01*
X1033092Y496303D01*
X1032680Y496109D01*
X1032146Y495867D01*
X1032098Y495842D01*
X1031989Y495757D01*
X1031867Y495709D01*
X1031710Y495648D01*
X1031673Y495612D01*
X1031479Y495490D01*
X1031321Y495454D01*
X1031152Y495381D01*
X1031103Y495357D01*
X1031055Y495309D01*
X1030969Y495248D01*
X1030739Y495163D01*
X1030593Y495066D01*
X1030327Y494920D01*
X1030278Y494896D01*
X1030169Y494787D01*
X1029866Y494678D01*
X1029829Y494641D01*
X1029684Y494544D01*
X1029526Y494484D01*
X1029393Y494423D01*
X1029259Y494314D01*
X1029211Y494290D01*
X1028895Y494071D01*
X1028847Y494047D01*
X1028507Y493804D01*
X1028458Y493780D01*
X1028386Y493707D01*
X1028301Y493647D01*
X1028143Y493586D01*
X1028010Y493525D01*
X1027949Y493440D01*
X1027900Y493416D01*
X1027852Y493368D01*
X1027803Y493343D01*
X1027658Y493198D01*
X1027488Y493077D01*
X1027439Y493052D01*
X1027367Y492979D01*
X1027064Y492798D01*
X1027039Y492749D01*
X1026906Y492640D01*
X1026857Y492616D01*
X1026724Y492482D01*
X1026590Y492373D01*
X1026542Y492349D01*
X1026396Y492203D01*
X1026348Y492179D01*
X1026202Y492033D01*
X1026154Y492009D01*
X1025984Y491839D01*
X1025935Y491815D01*
X1025620Y491499D01*
X1025571Y491475D01*
X1025086Y490990D01*
X1025001Y490929D01*
X1024977Y490881D01*
X1024819Y490723D01*
X1024771Y490699D01*
X1024734Y490662D01*
X1024710Y490614D01*
X1024419Y490323D01*
X1024395Y490274D01*
X1024176Y490056D01*
X1024152Y490007D01*
X1023958Y489813D01*
X1023934Y489765D01*
X1023849Y489680D01*
X1023740Y489546D01*
X1023715Y489498D01*
X1023606Y489389D01*
X1023497Y489255D01*
X1023473Y489207D01*
X1023436Y489170D01*
X1023388Y489146D01*
X1023351Y489110D01*
X1023279Y488988D01*
X1023169Y488879D01*
X1023060Y488746D01*
X1023036Y488697D01*
X1022842Y488503D01*
X1022818Y488455D01*
X1022769Y488406D01*
X1022709Y488321D01*
X1022599Y488188D01*
X1022575Y488139D01*
X1022478Y487994D01*
X1022454Y487945D01*
X1022332Y487775D01*
X1022308Y487727D01*
X1022163Y487581D01*
X1022138Y487533D01*
X1022066Y487460D01*
X1022041Y487411D01*
X1021993Y487363D01*
X1021823Y487048D01*
X1021774Y486999D01*
X1021653Y486781D01*
X1021605Y486659D01*
X1021508Y486562D01*
X1021411Y486392D01*
X1021362Y486271D01*
X1021265Y486174D01*
X1021119Y485907D01*
X1021059Y485847D01*
X1020962Y485701D01*
X1020877Y485471D01*
X1020755Y485276D01*
X1020658Y485107D01*
X1020634Y485058D01*
X1020586Y485009D01*
X1020561Y484961D01*
X1020513Y484912D01*
X1020489Y484864D01*
X1020391Y484718D01*
X1020294Y484549D01*
X1020197Y484306D01*
X1020149Y484257D01*
X1020064Y484124D01*
X1020028Y483942D01*
X1019930Y483724D01*
X1019870Y483639D01*
X1019809Y483481D01*
X1019761Y483311D01*
X1019615Y483093D01*
X1019567Y482972D01*
X1019542Y482874D01*
X1019494Y482705D01*
X1019457Y482668D01*
X1019336Y482474D01*
X1019263Y482183D01*
X1019142Y481916D01*
X1019093Y481722D01*
X1019057Y481564D01*
X1018936Y481297D01*
X1018899Y481261D01*
X1018766Y480885D01*
X1018633Y480558D01*
X1018487Y480194D01*
X1018463Y480097D01*
X1018426Y479939D01*
X1018378Y479769D01*
X1018281Y479454D01*
X1018232Y479259D01*
X1018184Y478968D01*
X1018159Y478799D01*
X1018074Y478520D01*
X1018026Y478398D01*
X1017978Y478204D01*
X1017941Y477901D01*
X1017893Y477561D01*
X1017844Y477367D01*
X1017808Y477258D01*
X1017759Y477064D01*
X1017735Y476918D01*
X1017711Y476676D01*
X1017686Y476336D01*
X1017662Y476142D01*
X1017638Y475996D01*
X1017614Y475875D01*
X1017589Y475729D01*
X1017541Y475487D01*
X1017504Y475208D01*
X1017480Y475135D01*
X1017456Y471302D01*
X1017480Y470113D01*
X1017504Y469870D01*
X1017541Y469543D01*
X1017565Y469422D01*
X1017589Y469324D01*
X1017638Y469082D01*
X1017662Y468936D01*
X1017699Y468609D01*
X1017723Y468366D01*
X1017771Y468075D01*
X1017832Y467917D01*
X1017880Y467723D01*
X1017905Y467578D01*
X1017941Y467226D01*
X1017965Y467129D01*
X1017990Y466886D01*
X1018050Y466680D01*
X1018123Y466486D01*
X1018147Y466389D01*
X1018184Y466158D01*
X1018208Y466061D01*
X1018232Y465891D01*
X1018269Y465758D01*
X1018293Y465661D01*
X1018341Y465540D01*
X1018366Y465443D01*
X1018402Y465309D01*
X1018475Y465018D01*
X1018511Y464885D01*
X1018560Y464763D01*
X1018717Y464314D01*
X1018766Y464193D01*
X1018814Y464023D01*
X1018863Y463902D01*
X1019021Y463599D01*
X1019045Y463502D01*
X1019081Y463344D01*
X1019130Y463174D01*
X1019276Y462859D01*
X1019300Y462713D01*
X1019324Y462616D01*
X1019372Y462446D01*
X1019421Y462398D01*
X1019445Y462349D01*
X1019482Y462313D01*
X1019567Y462082D01*
X1019652Y461876D01*
X1019773Y461682D01*
X1019809Y461500D01*
X1019858Y461379D01*
X1019894Y461342D01*
X1020015Y461148D01*
X1020052Y460918D01*
X1020149Y460700D01*
X1020270Y460481D01*
X1020294Y460384D01*
X1020343Y460336D01*
X1020367Y460287D01*
X1020416Y460238D01*
X1020731Y459632D01*
X1020853Y459462D01*
X1020974Y459123D01*
X1021022Y459074D01*
X1021168Y458807D01*
X1021228Y458698D01*
X1021277Y458674D01*
X1021313Y458637D01*
X1021459Y458370D01*
X1021532Y458298D01*
X1021726Y457934D01*
X1021750Y457885D01*
X1021799Y457837D01*
X1021920Y457618D01*
X1022053Y457485D01*
X1022199Y457242D01*
X1022308Y457109D01*
X1022332Y457060D01*
X1022381Y457012D01*
X1022405Y456963D01*
X1022502Y456866D01*
X1022526Y456818D01*
X1022648Y456648D01*
X1022672Y456599D01*
X1022721Y456551D01*
X1022818Y456381D01*
X1022963Y456235D01*
X1022988Y456187D01*
X1023060Y456114D01*
X1023084Y456066D01*
X1023254Y455896D01*
X1023279Y455847D01*
X1023424Y455702D01*
X1023546Y455483D01*
X1023570Y455435D01*
X1023715Y455289D01*
X1023740Y455241D01*
X1023958Y455022D01*
X1023982Y454974D01*
X1024031Y454925D01*
X1024055Y454877D01*
X1024091Y454840D01*
X1024201Y454707D01*
X1024225Y454658D01*
X1024273Y454610D01*
X1024298Y454561D01*
X1024419Y454440D01*
X1024443Y454392D01*
X1024504Y454331D01*
X1024552Y454307D01*
X1024649Y454210D01*
X1024698Y454185D01*
X1025123Y453761D01*
X1025147Y453712D01*
X1025389Y453470D01*
X1025414Y453421D01*
X1025547Y453312D01*
X1025596Y453288D01*
X1025875Y453009D01*
X1025899Y452960D01*
X1026093Y452766D01*
X1026117Y452718D01*
X1026202Y452632D01*
X1026251Y452608D01*
X1026299Y452560D01*
X1026518Y452390D01*
X1026566Y452366D01*
X1026712Y452220D01*
X1026760Y452196D01*
X1026833Y452123D01*
X1026881Y452099D01*
X1026942Y452038D01*
X1026966Y451990D01*
X1027051Y451905D01*
X1027100Y451880D01*
X1027221Y451759D01*
X1027439Y451638D01*
X1027524Y451553D01*
X1027658Y451444D01*
X1027706Y451419D01*
X1027876Y451250D01*
X1027998Y451177D01*
X1028046Y451128D01*
X1028095Y451104D01*
X1028131Y451068D01*
X1028264Y450959D01*
X1028580Y450789D01*
X1028968Y450764D01*
X1029089Y450813D01*
X1029138Y450837D01*
X1029320Y451019D01*
X1029368Y451140D01*
X1029393Y451213D01*
X1029368Y451383D01*
X1029344Y451480D01*
X1029259Y451638D01*
X1029211Y451662D01*
X1029126Y451747D01*
X1029101Y451796D01*
X1029041Y451856D01*
X1028992Y451880D01*
X1028798Y452075D01*
X1028750Y452099D01*
X1028653Y452196D01*
X1028434Y452366D01*
X1028386Y452390D01*
X1028301Y452475D01*
X1027961Y452645D01*
X1027937Y452693D01*
X1027803Y452827D01*
X1027755Y452851D01*
X1027719Y452887D01*
X1027694Y452936D01*
X1027609Y453021D01*
X1027561Y453045D01*
X1027342Y453263D01*
X1027294Y453288D01*
X1027245Y453336D01*
X1027197Y453360D01*
X1027039Y453518D01*
X1027015Y453567D01*
X1026772Y453809D01*
X1026712Y453894D01*
X1026663Y453918D01*
X1026421Y454161D01*
X1026372Y454185D01*
X1025935Y454622D01*
X1025850Y454683D01*
X1025826Y454731D01*
X1025583Y454974D01*
X1025559Y455022D01*
X1025317Y455265D01*
X1025292Y455313D01*
X1025256Y455350D01*
X1025147Y455483D01*
X1025123Y455532D01*
X1024953Y455702D01*
X1024928Y455750D01*
X1024710Y455969D01*
X1024686Y456017D01*
X1024601Y456102D01*
X1024552Y456126D01*
X1024516Y456163D01*
X1024395Y456381D01*
X1024370Y456429D01*
X1024310Y456490D01*
X1024201Y456624D01*
X1024176Y456672D01*
X1024007Y456842D01*
X1023982Y456890D01*
X1023934Y456939D01*
X1023909Y456987D01*
X1023849Y457048D01*
X1023740Y457182D01*
X1023715Y457230D01*
X1023643Y457303D01*
X1023473Y457618D01*
X1023351Y457740D01*
X1023327Y457788D01*
X1023109Y458007D01*
X1022988Y458225D01*
X1022915Y458298D01*
X1022745Y458613D01*
X1022721Y458661D01*
X1022672Y458710D01*
X1022575Y458880D01*
X1022502Y459050D01*
X1022466Y459086D01*
X1022357Y459220D01*
X1022332Y459268D01*
X1022284Y459389D01*
X1022235Y459438D01*
X1022175Y459523D01*
X1022017Y459753D01*
X1021629Y460505D01*
X1021580Y460554D01*
X1021556Y460602D01*
X1021495Y460663D01*
X1021447Y460784D01*
X1021411Y460942D01*
X1021338Y461112D01*
X1021289Y461161D01*
X1021204Y461294D01*
X1021168Y461427D01*
X1021095Y461597D01*
X1021071Y461646D01*
X1020986Y461755D01*
X1020962Y461852D01*
X1020925Y462058D01*
X1020865Y462192D01*
X1020707Y462422D01*
X1020683Y462568D01*
X1020586Y462786D01*
X1020464Y463004D01*
X1020440Y463101D01*
X1020319Y463368D01*
X1020282Y463453D01*
X1020222Y463611D01*
X1020197Y463708D01*
X1020149Y463878D01*
X1020076Y464120D01*
X1020040Y464254D01*
X1019943Y464521D01*
X1019882Y464678D01*
X1019834Y464800D01*
X1019761Y465091D01*
X1019700Y465224D01*
X1019603Y465467D01*
X1019579Y465564D01*
X1019542Y465770D01*
X1019421Y466037D01*
X1019360Y466195D01*
X1019336Y466292D01*
X1019276Y466910D01*
X1019251Y467080D01*
X1019191Y467286D01*
X1019118Y467481D01*
X1019093Y467602D01*
X1019057Y468051D01*
X1019009Y468342D01*
X1018948Y468548D01*
X1018899Y468742D01*
X1018851Y469033D01*
X1018827Y469300D01*
X1018802Y469616D01*
X1018778Y469858D01*
X1018754Y470004D01*
X1018730Y470125D01*
X1018705Y470271D01*
X1018669Y470598D01*
X1018645Y470671D01*
X1018620Y471229D01*
X1018596Y471302D01*
X1018608Y473716D01*
X1018633Y474152D01*
X1018657Y474419D01*
X1018705Y474735D01*
X1018730Y474880D01*
X1018778Y475196D01*
X1018802Y475414D01*
X1018863Y476203D01*
X1018887Y476300D01*
X1018912Y476469D01*
X1018960Y476664D01*
X1018997Y476797D01*
X1019021Y476918D01*
X1019045Y477064D01*
X1019081Y477513D01*
X1019106Y477683D01*
X1019166Y477889D01*
X1019239Y478083D01*
X1019263Y478180D01*
X1019300Y478556D01*
X1019348Y478968D01*
X1019482Y479272D01*
X1019530Y479393D01*
X1019591Y479672D01*
X1019639Y479793D01*
X1019700Y479902D01*
X1019809Y480206D01*
X1019858Y480376D01*
X1019979Y480643D01*
X1020076Y480885D01*
X1020149Y481128D01*
X1020173Y481225D01*
X1020222Y481395D01*
X1020404Y481795D01*
X1020452Y481989D01*
X1020489Y482147D01*
X1020537Y482195D01*
X1020561Y482244D01*
X1020622Y482304D01*
X1020683Y482462D01*
X1020731Y482656D01*
X1020901Y482899D01*
X1020998Y483287D01*
X1021034Y483323D01*
X1021132Y483469D01*
X1021168Y483602D01*
X1021216Y483772D01*
X1021301Y483857D01*
X1021423Y484051D01*
X1021459Y484185D01*
X1021532Y484257D01*
X1021726Y484621D01*
X1021871Y484888D01*
X1021969Y485034D01*
X1022138Y485349D01*
X1022199Y485410D01*
X1022357Y485640D01*
X1022381Y485689D01*
X1022442Y485750D01*
X1022563Y485944D01*
X1022611Y486065D01*
X1022769Y486295D01*
X1022793Y486392D01*
X1022842Y486514D01*
X1022963Y486635D01*
X1023084Y486853D01*
X1023206Y486975D01*
X1023327Y487193D01*
X1023448Y487314D01*
X1023570Y487484D01*
X1023594Y487533D01*
X1023643Y487581D01*
X1023667Y487630D01*
X1023715Y487678D01*
X1023740Y487727D01*
X1023812Y487800D01*
X1023837Y487848D01*
X1023934Y487945D01*
X1023958Y487994D01*
X1024225Y488261D01*
X1024249Y488309D01*
X1024298Y488358D01*
X1024467Y488576D01*
X1024492Y488624D01*
X1024637Y488770D01*
X1024662Y488819D01*
X1025123Y489280D01*
X1025147Y489328D01*
X1025256Y489437D01*
X1025365Y489571D01*
X1025389Y489619D01*
X1025438Y489668D01*
X1025462Y489716D01*
X1025571Y489825D01*
X1025620Y489850D01*
X1025838Y490068D01*
X1025887Y490092D01*
X1025935Y490141D01*
X1025984Y490165D01*
X1025996Y490201D01*
X1026214Y490420D01*
X1026239Y490468D01*
X1026505Y490735D01*
X1026809Y490966D01*
X1026857Y490990D01*
X1026991Y491123D01*
X1027015Y491172D01*
X1027051Y491208D01*
X1027100Y491233D01*
X1027318Y491451D01*
X1027367Y491475D01*
X1027537Y491645D01*
X1027706Y491742D01*
X1027755Y491791D01*
X1027803Y491815D01*
X1027876Y491888D01*
X1028046Y491985D01*
X1028192Y492130D01*
X1028361Y492227D01*
X1028410Y492276D01*
X1028458Y492300D01*
X1028556Y492397D01*
X1028604Y492421D01*
X1028713Y492531D01*
X1028847Y492640D01*
X1029113Y492785D01*
X1029162Y492810D01*
X1029477Y493028D01*
X1029647Y493125D01*
X1029696Y493149D01*
X1029769Y493222D01*
X1029987Y493343D01*
X1030108Y493392D01*
X1030157Y493416D01*
X1030266Y493525D01*
X1030424Y493586D01*
X1030593Y493634D01*
X1030654Y493695D01*
X1030788Y493804D01*
X1030885Y493829D01*
X1031055Y493901D01*
X1031152Y493998D01*
X1031370Y494120D01*
X1031443Y494193D01*
X1031576Y494277D01*
X1031734Y494338D01*
X1032049Y494484D01*
X1032801Y494872D01*
X1032850Y494896D01*
X1033092Y494993D01*
X1033214Y495066D01*
X1033262Y495090D01*
X1033299Y495127D01*
X1033420Y495175D01*
X1033578Y495211D01*
X1033675Y495236D01*
X1033978Y495393D01*
X1034136Y495430D01*
X1034233Y495454D01*
X1034403Y495478D01*
X1034621Y495575D01*
X1034669Y495600D01*
X1034706Y495636D01*
X1034961Y495697D01*
X1035130Y495721D01*
X1035227Y495745D01*
X1035482Y495854D01*
X1035603Y495903D01*
X1035882Y495939D01*
X1036052Y495964D01*
X1036246Y496012D01*
X1036380Y496073D01*
X1036501Y496121D01*
X1036598Y496146D01*
X1036926Y496182D01*
X1037096Y496206D01*
X1037193Y496231D01*
X1037399Y496291D01*
X1037666Y496388D01*
X1038030Y496461D01*
X1038224Y496510D01*
X1038345Y496534D01*
X1038830Y496607D01*
X1038952Y496631D01*
X1039097Y496655D01*
X1039219Y496679D01*
X1039364Y496704D01*
X1039558Y496728D01*
X1039934Y496764D01*
X1040007Y496788D01*
X1041390Y496813D01*
X1041463Y496837D01*
X1043901Y496825D01*
X1044665Y496788D01*
X1044993Y496752D01*
X1045284Y496704D01*
X1045405Y496679D01*
X1045551Y496655D01*
X1045672Y496631D01*
X1045818Y496607D01*
X1045915Y496582D01*
X1046060Y496558D01*
X1046181Y496534D01*
X1046376Y496510D01*
X1046497Y496485D01*
X1046655Y496449D01*
X1046752Y496425D01*
X1046921Y496400D01*
X1047116Y496352D01*
X1047358Y496279D01*
X1047492Y496243D01*
X1047589Y496218D01*
X1047843Y496182D01*
X1048086Y496158D01*
X1048256Y496133D01*
X1048571Y495988D01*
X1048705Y495951D01*
X1049008Y495915D01*
X1049166Y495854D01*
X1049360Y495733D01*
X1049457Y495709D01*
X1049687Y495672D01*
X1049857Y495624D01*
X1050003Y495527D01*
X1050160Y495466D01*
X1050282Y495442D01*
X1050415Y495406D01*
X1050512Y495381D01*
X1050876Y495211D01*
X1050973Y495187D01*
X1051143Y495115D01*
X1051191Y495090D01*
X1051301Y495005D01*
X1051531Y494920D01*
X1051701Y494848D01*
X1052259Y494556D01*
X1052672Y494362D01*
X1052914Y494265D01*
X1053060Y494168D01*
X1053230Y494071D01*
X1053326Y494047D01*
X1053496Y493926D01*
X1053763Y493780D01*
X1053812Y493756D01*
X1053933Y493634D01*
X1054151Y493586D01*
X1054273Y493537D01*
X1054418Y493392D01*
X1054588Y493295D01*
X1054637Y493271D01*
X1054697Y493210D01*
X1054928Y493052D01*
X1054976Y493028D01*
X1055013Y492992D01*
X1055158Y492895D01*
X1055462Y492664D01*
X1055510Y492640D01*
X1055680Y492519D01*
X1055850Y492421D01*
X1056286Y491985D01*
X1056384Y491960D01*
X1056723Y491718D01*
X1056772Y491694D01*
X1056832Y491633D01*
X1056857Y491584D01*
X1057305Y491136D01*
X1057354Y491111D01*
X1057402Y491063D01*
X1057451Y491039D01*
X1057499Y490990D01*
X1057548Y490966D01*
X1057621Y490893D01*
X1057669Y490869D01*
X1057876Y490662D01*
X1057900Y490614D01*
X1057973Y490541D01*
X1057997Y490493D01*
X1058155Y490335D01*
X1058203Y490311D01*
X1058215Y490274D01*
X1058324Y490165D01*
X1058373Y490141D01*
X1058446Y490068D01*
X1058494Y490044D01*
X1058555Y489983D01*
X1058725Y489765D01*
X1058749Y489716D01*
X1058895Y489571D01*
X1058919Y489522D01*
X1059525Y488916D01*
X1059622Y488746D01*
X1059707Y488661D01*
X1059817Y488527D01*
X1059841Y488479D01*
X1059986Y488333D01*
X1060011Y488285D01*
X1060083Y488212D01*
X1060108Y488163D01*
X1060192Y488079D01*
X1060302Y487945D01*
X1060350Y487824D01*
X1060375Y487727D01*
X1060569Y487436D01*
X1060593Y487387D01*
X1060629Y487351D01*
X1060738Y487217D01*
X1060835Y487048D01*
X1060860Y486999D01*
X1060908Y486950D01*
X1061030Y486732D01*
X1061127Y486635D01*
X1061151Y486586D01*
X1061187Y486550D01*
X1061272Y486320D01*
X1061345Y486198D01*
X1061442Y486029D01*
X1061515Y485859D01*
X1061612Y485762D01*
X1061757Y485495D01*
X1061782Y485446D01*
X1061891Y485337D01*
X1061952Y485179D01*
X1061976Y485082D01*
X1062073Y484937D01*
X1062170Y484767D01*
X1062194Y484694D01*
X1062218Y484549D01*
X1062315Y484403D01*
X1062340Y484355D01*
X1062376Y484318D01*
X1062437Y484160D01*
X1062510Y483991D01*
X1062679Y483675D01*
X1062764Y483469D01*
X1062813Y483348D01*
X1062886Y483153D01*
X1063007Y482887D01*
X1063067Y482608D01*
X1063116Y482414D01*
X1063177Y482280D01*
X1063274Y482135D01*
X1063298Y482038D01*
X1063334Y481758D01*
X1063383Y481564D01*
X1063492Y481358D01*
X1063541Y481237D01*
X1063565Y481140D01*
X1063601Y480837D01*
X1063625Y480740D01*
X1063771Y480424D01*
X1063795Y480351D01*
X1063820Y479939D01*
X1063868Y479599D01*
X1063929Y479441D01*
X1063977Y479320D01*
X1064026Y479126D01*
X1064050Y478932D01*
X1064074Y478641D01*
X1064099Y478423D01*
X1064123Y478180D01*
X1064147Y478059D01*
X1064220Y477767D01*
X1064256Y477489D01*
X1064281Y477416D01*
X1064305Y476567D01*
X1064329Y476494D01*
X1064317Y474589D01*
X1064293Y473934D01*
X1064268Y473667D01*
X1064244Y473473D01*
X1064220Y473328D01*
X1064123Y472842D01*
X1064099Y472697D01*
X1064062Y472418D01*
X1064038Y472102D01*
X1064014Y471933D01*
X1063953Y471726D01*
X1063905Y471605D01*
X1063880Y471508D01*
X1063856Y471387D01*
X1063820Y470914D01*
X1063771Y470574D01*
X1063686Y470368D01*
X1063638Y470246D01*
X1063601Y470113D01*
X1063577Y470016D01*
X1063553Y469846D01*
X1063504Y469676D01*
X1063444Y469543D01*
X1063371Y469397D01*
X1063286Y468997D01*
X1063152Y468718D01*
X1063092Y468560D01*
X1063043Y468366D01*
X1062995Y468196D01*
X1062898Y467978D01*
X1062849Y467857D01*
X1062704Y467541D01*
X1062558Y467274D01*
X1062437Y467056D01*
X1062412Y466959D01*
X1062340Y466789D01*
X1062291Y466741D01*
X1062231Y466656D01*
X1062194Y466522D01*
X1062170Y466425D01*
X1062048Y466158D01*
X1062000Y466110D01*
X1061976Y466013D01*
X1061879Y465794D01*
X1061854Y465746D01*
X1061806Y465697D01*
X1061660Y465430D01*
X1061636Y465382D01*
X1061563Y465309D01*
X1061466Y465139D01*
X1061394Y464969D01*
X1061296Y464873D01*
X1061127Y464557D01*
X1060957Y464339D01*
X1060932Y464290D01*
X1060896Y464254D01*
X1060787Y464120D01*
X1060763Y464072D01*
X1060678Y463987D01*
X1060569Y463853D01*
X1060544Y463805D01*
X1060423Y463635D01*
X1060326Y463465D01*
X1060277Y463344D01*
X1060192Y463259D01*
X1060083Y463126D01*
X1060059Y463077D01*
X1059986Y463004D01*
X1059817Y462786D01*
X1059792Y462738D01*
X1059695Y462640D01*
X1059598Y462471D01*
X1059319Y462192D01*
X1059271Y462167D01*
X1059161Y462082D01*
X1059137Y462034D01*
X1059028Y461925D01*
X1058979Y461900D01*
X1058943Y461864D01*
X1058919Y461815D01*
X1058810Y461706D01*
X1058700Y461573D01*
X1058676Y461524D01*
X1058543Y461391D01*
X1058494Y461367D01*
X1058470Y461318D01*
X1058421Y461294D01*
X1058240Y461112D01*
X1058179Y461027D01*
X1058130Y461003D01*
X1058021Y460894D01*
X1057997Y460845D01*
X1057694Y460542D01*
X1057572Y460469D01*
X1057402Y460348D01*
X1057233Y460251D01*
X1057039Y460057D01*
X1056990Y460032D01*
X1056820Y459863D01*
X1056735Y459802D01*
X1056590Y459705D01*
X1056359Y459547D01*
X1056311Y459523D01*
X1056262Y459474D01*
X1056214Y459450D01*
X1056117Y459353D01*
X1056068Y459329D01*
X1055947Y459207D01*
X1055777Y459110D01*
X1055631Y458965D01*
X1055413Y458843D01*
X1055365Y458819D01*
X1055255Y458710D01*
X1055025Y458625D01*
X1054903Y458577D01*
X1054855Y458528D01*
X1054540Y458358D01*
X1054491Y458334D01*
X1054418Y458261D01*
X1054249Y458164D01*
X1054115Y458103D01*
X1053969Y458007D01*
X1053848Y457958D01*
X1053618Y457873D01*
X1052963Y457558D01*
X1052793Y457485D01*
X1052647Y457388D01*
X1052477Y457291D01*
X1052283Y457242D01*
X1052150Y457182D01*
X1051956Y457060D01*
X1051580Y456975D01*
X1051422Y456915D01*
X1051179Y456818D01*
X1050997Y456781D01*
X1050803Y456733D01*
X1050524Y456599D01*
X1050391Y456563D01*
X1050294Y456539D01*
X1050124Y456514D01*
X1050027Y456490D01*
X1049893Y456454D01*
X1049554Y456332D01*
X1049239Y456284D01*
X1049117Y456260D01*
X1048972Y456235D01*
X1048583Y456138D01*
X1048462Y456114D01*
X1048316Y456090D01*
X1047637Y456041D01*
X1047419Y456017D01*
X1047176Y455993D01*
X1046752Y455956D01*
X1046679Y455932D01*
X1046121Y455908D01*
X1046048Y455884D01*
X1045599Y455896D01*
X1045090Y455920D01*
X1044702Y455944D01*
X1044192Y455969D01*
X1043780Y455993D01*
X1043513Y456017D01*
X1043088Y456053D01*
X1042312Y456102D01*
X1042215Y456126D01*
X1042045Y456151D01*
X1041948Y456175D01*
X1041778Y456223D01*
X1041584Y456272D01*
X1041244Y456320D01*
X1041147Y456345D01*
X1040990Y456405D01*
X1040747Y456502D01*
X1040626Y456526D01*
X1040395Y456563D01*
X1040298Y456587D01*
X1039934Y456757D01*
X1039740Y456781D01*
X1039546Y456830D01*
X1039340Y456915D01*
X1039219Y456963D01*
X1039085Y457000D01*
X1038891Y457048D01*
X1038770Y457097D01*
X1038624Y457194D01*
X1038430Y457267D01*
X1038333Y457291D01*
X1038212Y457339D01*
X1038115Y457436D01*
X1037945Y457533D01*
X1037848Y457558D01*
X1037654Y457679D01*
X1037605Y457703D01*
X1037302Y457861D01*
X1036999Y457970D01*
X1036962Y458007D01*
X1036817Y458103D01*
X1036659Y458164D01*
X1036538Y458213D01*
X1036489Y458237D01*
X1036441Y458285D01*
X1036307Y458370D01*
X1036174Y458407D01*
X1036004Y458480D01*
X1035955Y458528D01*
X1035786Y458625D01*
X1035688Y458649D01*
X1035519Y458698D01*
X1035446Y458771D01*
X1035227Y458892D01*
X1035082Y458989D01*
X1034864Y459159D01*
X1034815Y459183D01*
X1034609Y459389D01*
X1034136Y459741D01*
X1034087Y459765D01*
X1033687Y460166D01*
X1033553Y460275D01*
X1033505Y460299D01*
X1033359Y460445D01*
X1033189Y460542D01*
X1033129Y460602D01*
X1033032Y460772D01*
X1032911Y460894D01*
X1032886Y460942D01*
X1032607Y461221D01*
X1032559Y461245D01*
X1032219Y461585D01*
X1032110Y461718D01*
X1032086Y461767D01*
X1031964Y461888D01*
X1031940Y461937D01*
X1031649Y462228D01*
X1031625Y462276D01*
X1031552Y462349D01*
X1031261Y462738D01*
X1031164Y462907D01*
X1031139Y462956D01*
X1031018Y463077D01*
X1030994Y463126D01*
X1030945Y463174D01*
X1030921Y463223D01*
X1030885Y463259D01*
X1030836Y463283D01*
X1030812Y463332D01*
X1030691Y463526D01*
X1030581Y463659D01*
X1030484Y463829D01*
X1030436Y463951D01*
X1030412Y463999D01*
X1030363Y464048D01*
X1030242Y464266D01*
X1030157Y464424D01*
X1030048Y464557D01*
X1030023Y464606D01*
X1029951Y464775D01*
X1029878Y464848D01*
X1029708Y465164D01*
X1029635Y465333D01*
X1029417Y465794D01*
X1029393Y465843D01*
X1029344Y465964D01*
X1029223Y466231D01*
X1029186Y466268D01*
X1029126Y466425D01*
X1029101Y466522D01*
X1029029Y466692D01*
X1029004Y466741D01*
X1028944Y466801D01*
X1028895Y466923D01*
X1028871Y467044D01*
X1028835Y467250D01*
X1028725Y467505D01*
X1028677Y467626D01*
X1028640Y467808D01*
X1028592Y468148D01*
X1028568Y468245D01*
X1028507Y468402D01*
X1028434Y468597D01*
X1028410Y468694D01*
X1028374Y469045D01*
X1028349Y469142D01*
X1028325Y469312D01*
X1028301Y469409D01*
X1028216Y469688D01*
X1028192Y469785D01*
X1028155Y469967D01*
X1028131Y470064D01*
X1028095Y470392D01*
X1028070Y470537D01*
X1028046Y470659D01*
X1027998Y470853D01*
X1027961Y471108D01*
X1027937Y471180D01*
X1027913Y472127D01*
X1027888Y472200D01*
X1027913Y473146D01*
X1027937Y473607D01*
X1027961Y473849D01*
X1027998Y474177D01*
X1028070Y474613D01*
X1028155Y475354D01*
X1028228Y475645D01*
X1028277Y475766D01*
X1028301Y475839D01*
X1028349Y476057D01*
X1028374Y476154D01*
X1028398Y476397D01*
X1028422Y476494D01*
X1028471Y476664D01*
X1028531Y476797D01*
X1028580Y476918D01*
X1028604Y477040D01*
X1028640Y477270D01*
X1028689Y477464D01*
X1028750Y477622D01*
X1028798Y477743D01*
X1028883Y478119D01*
X1029041Y478423D01*
X1029089Y478544D01*
X1029126Y478702D01*
X1029296Y478944D01*
X1029756Y479890D01*
X1029805Y480012D01*
X1029878Y480133D01*
X1030048Y480448D01*
X1030145Y480545D01*
X1030169Y480594D01*
X1030205Y480630D01*
X1030266Y480788D01*
X1030363Y480934D01*
X1030484Y481152D01*
X1030533Y481273D01*
X1030581Y481322D01*
X1030751Y481540D01*
X1030776Y481589D01*
X1030897Y481710D01*
X1030969Y481831D01*
X1031018Y481880D01*
X1031042Y481928D01*
X1031079Y481940D01*
X1031164Y482050D01*
X1031188Y482098D01*
X1031236Y482147D01*
X1031261Y482195D01*
X1031358Y482292D01*
X1031382Y482341D01*
X1031479Y482438D01*
X1031503Y482486D01*
X1031940Y482923D01*
X1031964Y482972D01*
X1032377Y483384D01*
X1032401Y483433D01*
X1032437Y483469D01*
X1032486Y483493D01*
X1032644Y483651D01*
X1032668Y483699D01*
X1032825Y483809D01*
X1032874Y483833D01*
X1033020Y483978D01*
X1033068Y484003D01*
X1033117Y484051D01*
X1033165Y484076D01*
X1033226Y484136D01*
X1033250Y484185D01*
X1033335Y484245D01*
X1033384Y484270D01*
X1033517Y484403D01*
X1033650Y484512D01*
X1033699Y484536D01*
X1033869Y484706D01*
X1033917Y484730D01*
X1034063Y484828D01*
X1034111Y484852D01*
X1034160Y484900D01*
X1034378Y485022D01*
X1034427Y485070D01*
X1034475Y485094D01*
X1034524Y485143D01*
X1034572Y485167D01*
X1034742Y485337D01*
X1035009Y485483D01*
X1035058Y485531D01*
X1035106Y485555D01*
X1035143Y485592D01*
X1035300Y485653D01*
X1035543Y485725D01*
X1035591Y485774D01*
X1035676Y485834D01*
X1035834Y485895D01*
X1036028Y485944D01*
X1036137Y486004D01*
X1036283Y486101D01*
X1036441Y486162D01*
X1036538Y486186D01*
X1036756Y486332D01*
X1036841Y486368D01*
X1036999Y486405D01*
X1037302Y486538D01*
X1037423Y486586D01*
X1037678Y486647D01*
X1037981Y486781D01*
X1038139Y486841D01*
X1038260Y486890D01*
X1038466Y486950D01*
X1038624Y486987D01*
X1038721Y487011D01*
X1038891Y487060D01*
X1039315Y487193D01*
X1039413Y487217D01*
X1039849Y487290D01*
X1040140Y487363D01*
X1040262Y487387D01*
X1040589Y487424D01*
X1040662Y487448D01*
X1041730Y487472D01*
X1041802Y487496D01*
X1043416Y487484D01*
X1043828Y487460D01*
X1044071Y487436D01*
X1044459Y487387D01*
X1044604Y487363D01*
X1044702Y487339D01*
X1044823Y487314D01*
X1044920Y487290D01*
X1045066Y487266D01*
X1045296Y487229D01*
X1045466Y487181D01*
X1045563Y487157D01*
X1045684Y487108D01*
X1045927Y487035D01*
X1046218Y486963D01*
X1046388Y486914D01*
X1046630Y486841D01*
X1047031Y486659D01*
X1047152Y486635D01*
X1047310Y486599D01*
X1047479Y486526D01*
X1047686Y486417D01*
X1047819Y486380D01*
X1047941Y486332D01*
X1047989Y486307D01*
X1048037Y486259D01*
X1048122Y486198D01*
X1048256Y486162D01*
X1048377Y486113D01*
X1048426Y486089D01*
X1048462Y486053D01*
X1048486Y486004D01*
X1048608Y485932D01*
X1048765Y485871D01*
X1048887Y485822D01*
X1048935Y485774D01*
X1048984Y485750D01*
X1049020Y485713D01*
X1049178Y485653D01*
X1049299Y485604D01*
X1049420Y485483D01*
X1049687Y485337D01*
X1049736Y485313D01*
X1049784Y485264D01*
X1049833Y485240D01*
X1049881Y485191D01*
X1049930Y485167D01*
X1050015Y485082D01*
X1050245Y484925D01*
X1050294Y484900D01*
X1050342Y484852D01*
X1050512Y484755D01*
X1050561Y484706D01*
X1050609Y484682D01*
X1050755Y484536D01*
X1050803Y484512D01*
X1050852Y484464D01*
X1050900Y484439D01*
X1050912Y484403D01*
X1051216Y484100D01*
X1051337Y484027D01*
X1051555Y483809D01*
X1051640Y483748D01*
X1051665Y483699D01*
X1051798Y483566D01*
X1051907Y483433D01*
X1051932Y483384D01*
X1052101Y483214D01*
X1052126Y483166D01*
X1052235Y483056D01*
X1052283Y483032D01*
X1052295Y482996D01*
X1052368Y482923D01*
X1052393Y482874D01*
X1052441Y482826D01*
X1052465Y482777D01*
X1052562Y482680D01*
X1052635Y482559D01*
X1052684Y482438D01*
X1052756Y482317D01*
X1052817Y482232D01*
X1053047Y481928D01*
X1053145Y481758D01*
X1053169Y481710D01*
X1053217Y481661D01*
X1053314Y481492D01*
X1053399Y481407D01*
X1053496Y481261D01*
X1053557Y481103D01*
X1053605Y480982D01*
X1053642Y480946D01*
X1053739Y480800D01*
X1053800Y480643D01*
X1053848Y480521D01*
X1053957Y480412D01*
X1054006Y480291D01*
X1054042Y480133D01*
X1054139Y479915D01*
X1054200Y479830D01*
X1054249Y479708D01*
X1054285Y479526D01*
X1054370Y479247D01*
X1054443Y479053D01*
X1054479Y478896D01*
X1054503Y478799D01*
X1054552Y478507D01*
X1054600Y478338D01*
X1054673Y478095D01*
X1054709Y477962D01*
X1054734Y477840D01*
X1054782Y477525D01*
X1054855Y477161D01*
X1054903Y476967D01*
X1054952Y476724D01*
X1054976Y476506D01*
X1055001Y476312D01*
X1055037Y475766D01*
X1055013Y474795D01*
X1054988Y474698D01*
X1054952Y474371D01*
X1054879Y473934D01*
X1054807Y473570D01*
X1054782Y473473D01*
X1054746Y473243D01*
X1054722Y473073D01*
X1054697Y472976D01*
X1054637Y472770D01*
X1054564Y472575D01*
X1054528Y472418D01*
X1054503Y472248D01*
X1054455Y471957D01*
X1054321Y471654D01*
X1054297Y471557D01*
X1054261Y471350D01*
X1054236Y471253D01*
X1054164Y471132D01*
X1054018Y470865D01*
X1053969Y470744D01*
X1053945Y470695D01*
X1053897Y470647D01*
X1053836Y470562D01*
X1053775Y470404D01*
X1053727Y470283D01*
X1053654Y470210D01*
X1053533Y469992D01*
X1053484Y469870D01*
X1053448Y469834D01*
X1053339Y469701D01*
X1053314Y469652D01*
X1053096Y469337D01*
X1053072Y469288D01*
X1052999Y469215D01*
X1052829Y468997D01*
X1052805Y468948D01*
X1052708Y468851D01*
X1052562Y468585D01*
X1052210Y468233D01*
X1052162Y468208D01*
X1051932Y467978D01*
X1051907Y467929D01*
X1051725Y467747D01*
X1051677Y467723D01*
X1051483Y467529D01*
X1051313Y467432D01*
X1051240Y467359D01*
X1051191Y467335D01*
X1051143Y467286D01*
X1051095Y467262D01*
X1050900Y467068D01*
X1050852Y467044D01*
X1050706Y466898D01*
X1050488Y466777D01*
X1050427Y466716D01*
X1050294Y466607D01*
X1050209Y466571D01*
X1050076Y466534D01*
X1049930Y466437D01*
X1049712Y466316D01*
X1049542Y466268D01*
X1049469Y466195D01*
X1049420Y466171D01*
X1049384Y466134D01*
X1049226Y466073D01*
X1049129Y466049D01*
X1048862Y465879D01*
X1048571Y465807D01*
X1048183Y465685D01*
X1048050Y465649D01*
X1047953Y465625D01*
X1047686Y465552D01*
X1047589Y465527D01*
X1047431Y465467D01*
X1047334Y465443D01*
X1047200Y465406D01*
X1046958Y465358D01*
X1046812Y465333D01*
X1046630Y465297D01*
X1046533Y465273D01*
X1046460Y465248D01*
X1046194Y465224D01*
X1046097Y465248D01*
X1046060Y465309D01*
X1046085Y465406D01*
X1046133Y465527D01*
X1046194Y465588D01*
X1046242Y465612D01*
X1046327Y465697D01*
X1046351Y465746D01*
X1046521Y465916D01*
X1046545Y465964D01*
X1046667Y466134D01*
X1046691Y466183D01*
X1046812Y466352D01*
X1046837Y466401D01*
X1046885Y466450D01*
X1046909Y466498D01*
X1046946Y466534D01*
X1047055Y466668D01*
X1047079Y466716D01*
X1047116Y466753D01*
X1047273Y466983D01*
X1047298Y467032D01*
X1047334Y467068D01*
X1047383Y467092D01*
X1047492Y467250D01*
X1047516Y467299D01*
X1047564Y467347D01*
X1047589Y467396D01*
X1047637Y467444D01*
X1047758Y467663D01*
X1047880Y467784D01*
X1048001Y468002D01*
X1048220Y468221D01*
X1048244Y468269D01*
X1048365Y468390D01*
X1048511Y468657D01*
X1048608Y468803D01*
X1048632Y468851D01*
X1048705Y468924D01*
X1048729Y468973D01*
X1048923Y469167D01*
X1048947Y469215D01*
X1048996Y469264D01*
X1049166Y469482D01*
X1049190Y469531D01*
X1049239Y469579D01*
X1049384Y469846D01*
X1049433Y469895D01*
X1049602Y470113D01*
X1049627Y470162D01*
X1049748Y470283D01*
X1049845Y470453D01*
X1049869Y470501D01*
X1049906Y470537D01*
X1049954Y470562D01*
X1049991Y470598D01*
X1050015Y470647D01*
X1050112Y470792D01*
X1050136Y470841D01*
X1050233Y470938D01*
X1050330Y471108D01*
X1050355Y471156D01*
X1050415Y471217D01*
X1050524Y471350D01*
X1050549Y471399D01*
X1050694Y471544D01*
X1050718Y471593D01*
X1050767Y471641D01*
X1050791Y471690D01*
X1050937Y471836D01*
X1051034Y472005D01*
X1051082Y472054D01*
X1051179Y472224D01*
X1051228Y472345D01*
X1051398Y472515D01*
X1051422Y472563D01*
X1051495Y472636D01*
X1051519Y472685D01*
X1051568Y472709D01*
X1051592Y472757D01*
X1051640Y472806D01*
X1051689Y473000D01*
X1051665Y473243D01*
X1051568Y473388D01*
X1051337Y473546D01*
X1051289Y473570D01*
X1051167Y473691D01*
X1051034Y473776D01*
X1050888Y473873D01*
X1050755Y473983D01*
X1050342Y474007D01*
X1050173Y473983D01*
X1050039Y473922D01*
X1049845Y473801D01*
X1049566Y473740D01*
X1049299Y473570D01*
X1049081Y473522D01*
X1048984Y473498D01*
X1048862Y473449D01*
X1048596Y473303D01*
X1048135Y473085D01*
X1047856Y472952D01*
X1047698Y472891D01*
X1047577Y472842D01*
X1047431Y472745D01*
X1047273Y472685D01*
X1047116Y472648D01*
X1047019Y472624D01*
X1046897Y472575D01*
X1046849Y472551D01*
X1046764Y472466D01*
X1046606Y472406D01*
X1046339Y472284D01*
X1046254Y472224D01*
X1046097Y472163D01*
X1046000Y472139D01*
X1045878Y472090D01*
X1045830Y472066D01*
X1045745Y471981D01*
X1045623Y471933D01*
X1045442Y471896D01*
X1045247Y471848D01*
X1045102Y471751D01*
X1045017Y471714D01*
X1044702Y471593D01*
X1044556Y471496D01*
X1044253Y471387D01*
X1044095Y471302D01*
X1043707Y471108D01*
X1043586Y471059D01*
X1043428Y470998D01*
X1043307Y470950D01*
X1043270Y470914D01*
X1043027Y470817D01*
X1042894Y470780D01*
X1042724Y470707D01*
X1042676Y470659D01*
X1042627Y470635D01*
X1042591Y470598D01*
X1042433Y470537D01*
X1042227Y470453D01*
X1042093Y470344D01*
X1042045Y470319D01*
X1041754Y470246D01*
X1041705Y470198D01*
X1041657Y470174D01*
X1041608Y470125D01*
X1041523Y470089D01*
X1041366Y470052D01*
X1041293Y470028D01*
X1041196Y470004D01*
X1040929Y469834D01*
X1040771Y469846D01*
X1040747Y469943D01*
X1040771Y470040D01*
X1040880Y470149D01*
X1040990Y470283D01*
X1041014Y470331D01*
X1041075Y470392D01*
X1041123Y470416D01*
X1041232Y470598D01*
X1041341Y470707D01*
X1041451Y470841D01*
X1041511Y470926D01*
X1041620Y471059D01*
X1041645Y471156D01*
X1041742Y471302D01*
X1041911Y471520D01*
X1041936Y471569D01*
X1042045Y471678D01*
X1042154Y471811D01*
X1042178Y471860D01*
X1042215Y471896D01*
X1042263Y471920D01*
X1042300Y471957D01*
X1042469Y472272D01*
X1042494Y472321D01*
X1042542Y472369D01*
X1042639Y472539D01*
X1042700Y472600D01*
X1042748Y472624D01*
X1042858Y472757D01*
X1042882Y472806D01*
X1042979Y472903D01*
X1043040Y472988D01*
X1043137Y473134D01*
X1043246Y473267D01*
X1043343Y473437D01*
X1043391Y473485D01*
X1043561Y473704D01*
X1043586Y473752D01*
X1043707Y473873D01*
X1043804Y474043D01*
X1043828Y474092D01*
X1043925Y474189D01*
X1044022Y474359D01*
X1044083Y474419D01*
X1044192Y474553D01*
X1044216Y474601D01*
X1044265Y474723D01*
X1044350Y474808D01*
X1044459Y474941D01*
X1044483Y474990D01*
X1044532Y475038D01*
X1044556Y475087D01*
X1044799Y475329D01*
X1044859Y475414D01*
X1045187Y475911D01*
X1045211Y475960D01*
X1045272Y476021D01*
X1045381Y476154D01*
X1045442Y476239D01*
X1045551Y476372D01*
X1045648Y476542D01*
X1045818Y476712D01*
X1045939Y476930D01*
X1046109Y477149D01*
X1046133Y477197D01*
X1046254Y477319D01*
X1046315Y477403D01*
X1046364Y477525D01*
X1046400Y477658D01*
X1046424Y477755D01*
X1046376Y477925D01*
X1046279Y478095D01*
X1046145Y478204D01*
X1046097Y478228D01*
X1046024Y478301D01*
X1045975Y478326D01*
X1045902Y478398D01*
X1045684Y478520D01*
X1045320Y478544D01*
X1045150Y478520D01*
X1044859Y478447D01*
X1044556Y478289D01*
X1044398Y478228D01*
X1044301Y478204D01*
X1044168Y478144D01*
X1044034Y478034D01*
X1043913Y477986D01*
X1043573Y477937D01*
X1043428Y477840D01*
X1043258Y477743D01*
X1043088Y477695D01*
X1042979Y477634D01*
X1042785Y477513D01*
X1042603Y477476D01*
X1042482Y477428D01*
X1042433Y477379D01*
X1042215Y477258D01*
X1042045Y477210D01*
X1041924Y477161D01*
X1041790Y477100D01*
X1041669Y477052D01*
X1041438Y476967D01*
X1040977Y476749D01*
X1040771Y476639D01*
X1040638Y476603D01*
X1040492Y476506D01*
X1040444Y476482D01*
X1040407Y476445D01*
X1040250Y476385D01*
X1040153Y476360D01*
X1039946Y476275D01*
X1039752Y476154D01*
X1039473Y476093D01*
X1039340Y476033D01*
X1039194Y475936D01*
X1038964Y475851D01*
X1038842Y475802D01*
X1038794Y475754D01*
X1038745Y475729D01*
X1038709Y475693D01*
X1038588Y475645D01*
X1038466Y475620D01*
X1038309Y475584D01*
X1038248Y475523D01*
X1038102Y475426D01*
X1037848Y475366D01*
X1037751Y475341D01*
X1036999Y474977D01*
X1036720Y474844D01*
X1036562Y474783D01*
X1036441Y474735D01*
X1036331Y474674D01*
X1036137Y474553D01*
X1036004Y474516D01*
X1035907Y474492D01*
X1035737Y474444D01*
X1035664Y474371D01*
X1035446Y474249D01*
X1035227Y474225D01*
X1035191Y474262D01*
X1035215Y474383D01*
X1035373Y474541D01*
X1035422Y474565D01*
X1035482Y474650D01*
X1035628Y474917D01*
X1035725Y475014D01*
X1035749Y475062D01*
X1035798Y475111D01*
X1035822Y475159D01*
X1035895Y475232D01*
X1035919Y475281D01*
X1035980Y475341D01*
X1036089Y475475D01*
X1036113Y475523D01*
X1036174Y475584D01*
X1036283Y475717D01*
X1036380Y475887D01*
X1036404Y475936D01*
X1036477Y476008D01*
X1036598Y476227D01*
X1036720Y476348D01*
X1036817Y476518D01*
X1036974Y476676D01*
X1037071Y476821D01*
X1037120Y476846D01*
X1037132Y476882D01*
X1037168Y476894D01*
X1037302Y477100D01*
X1037326Y477149D01*
X1037375Y477197D01*
X1037496Y477416D01*
X1037581Y477501D01*
X1037690Y477634D01*
X1037714Y477683D01*
X1037835Y477804D01*
X1037860Y477852D01*
X1037933Y477925D01*
X1037957Y477974D01*
X1038030Y478046D01*
X1038054Y478095D01*
X1038102Y478144D01*
X1038199Y478410D01*
X1038369Y478580D01*
X1038394Y478629D01*
X1038515Y478750D01*
X1038685Y478968D01*
X1038709Y479017D01*
X1038818Y479126D01*
X1038988Y479393D01*
X1039097Y479526D01*
X1039121Y479575D01*
X1039170Y479623D01*
X1039194Y479672D01*
X1039291Y479769D01*
X1039315Y479818D01*
X1039364Y479866D01*
X1039388Y479915D01*
X1039461Y479987D01*
X1039582Y480206D01*
X1039679Y480303D01*
X1039801Y480473D01*
X1039825Y480521D01*
X1039861Y480558D01*
X1039971Y480691D01*
X1040068Y480861D01*
X1040092Y480909D01*
X1040165Y480982D01*
X1040286Y481152D01*
X1040310Y481200D01*
X1040504Y481395D01*
X1040529Y481443D01*
X1040638Y481552D01*
X1040759Y481746D01*
X1040808Y481868D01*
X1040832Y481965D01*
X1040820Y482074D01*
X1040747Y482244D01*
X1040613Y482377D01*
X1040444Y482474D01*
X1040395Y482499D01*
X1040347Y482547D01*
X1040298Y482571D01*
X1040250Y482620D01*
X1040055Y482644D01*
X1039934Y482595D01*
X1039777Y482438D01*
X1039752Y482389D01*
X1039716Y482353D01*
X1039607Y482220D01*
X1039582Y482171D01*
X1039534Y482122D01*
X1039473Y482038D01*
X1039315Y481807D01*
X1039291Y481758D01*
X1039194Y481661D01*
X1039121Y481540D01*
X1039000Y481419D01*
X1038879Y481249D01*
X1038855Y481152D01*
X1038745Y481043D01*
X1038576Y480776D01*
X1038527Y480752D01*
X1038466Y480691D01*
X1038442Y480643D01*
X1038369Y480570D01*
X1038345Y480521D01*
X1038272Y480448D01*
X1038151Y480279D01*
X1038127Y480230D01*
X1038030Y480084D01*
X1037933Y479915D01*
X1037860Y479842D01*
X1037835Y479793D01*
X1037787Y479745D01*
X1037763Y479696D01*
X1037617Y479551D01*
X1037447Y479332D01*
X1037423Y479284D01*
X1037350Y479211D01*
X1037229Y478993D01*
X1037205Y478944D01*
X1037083Y478823D01*
X1037011Y478702D01*
X1036914Y478605D01*
X1036889Y478556D01*
X1036841Y478507D01*
X1036744Y478338D01*
X1036720Y478289D01*
X1036683Y478253D01*
X1036635Y478228D01*
X1036525Y478046D01*
X1036380Y477901D01*
X1036259Y477683D01*
X1036234Y477634D01*
X1036198Y477598D01*
X1036089Y477464D01*
X1036065Y477416D01*
X1036016Y477367D01*
X1035992Y477319D01*
X1035870Y477197D01*
X1035846Y477149D01*
X1035713Y477015D01*
X1035603Y476882D01*
X1035579Y476833D01*
X1035543Y476797D01*
X1035422Y476603D01*
X1035385Y476469D01*
X1035300Y476385D01*
X1035191Y476251D01*
X1035167Y476203D01*
X1035082Y476118D01*
X1034997Y476057D01*
X1034900Y475887D01*
X1034803Y475790D01*
X1034779Y475742D01*
X1034742Y475705D01*
X1034681Y475547D01*
X1034621Y475438D01*
X1034572Y475414D01*
X1034512Y475354D01*
X1034488Y475305D01*
X1034439Y475256D01*
X1034415Y475208D01*
X1034330Y475123D01*
X1034221Y474990D01*
X1034196Y474941D01*
X1034124Y474868D01*
X1034099Y474820D01*
X1034039Y474759D01*
X1033942Y474613D01*
X1033832Y474480D01*
X1033735Y474310D01*
X1033711Y474262D01*
X1033614Y474165D01*
X1033517Y473995D01*
X1033396Y473825D01*
X1033371Y473679D01*
X1033444Y473510D01*
X1033468Y473461D01*
X1033517Y473413D01*
X1033541Y473364D01*
X1033687Y473218D01*
X1033820Y473109D01*
X1033869Y473085D01*
X1033990Y472964D01*
X1034160Y472867D01*
X1034281Y472818D01*
X1034427Y472721D01*
X1034669Y472697D01*
X1034876Y472782D01*
X1034997Y472830D01*
X1035155Y472867D01*
X1035324Y472915D01*
X1035446Y472988D01*
X1035579Y473073D01*
X1035737Y473134D01*
X1035907Y473206D01*
X1036174Y473352D01*
X1036635Y473498D01*
X1036901Y473619D01*
X1037375Y473849D01*
X1037520Y473946D01*
X1037642Y473995D01*
X1037799Y474031D01*
X1037945Y474128D01*
X1038030Y474189D01*
X1038224Y474262D01*
X1038357Y474298D01*
X1038721Y474468D01*
X1038915Y474516D01*
X1039049Y474577D01*
X1039182Y474686D01*
X1039231Y474711D01*
X1039522Y474783D01*
X1039692Y474905D01*
X1039777Y474941D01*
X1039934Y475002D01*
X1040153Y475099D01*
X1040189Y475135D01*
X1040310Y475184D01*
X1040468Y475220D01*
X1040565Y475244D01*
X1041026Y475463D01*
X1041244Y475560D01*
X1041511Y475681D01*
X1041681Y475802D01*
X1041911Y475887D01*
X1042033Y475936D01*
X1042178Y476033D01*
X1042300Y476081D01*
X1042506Y476118D01*
X1042676Y476190D01*
X1042712Y476227D01*
X1042858Y476324D01*
X1042991Y476360D01*
X1043161Y476409D01*
X1043258Y476506D01*
X1043343Y476567D01*
X1043476Y476603D01*
X1043646Y476651D01*
X1043719Y476724D01*
X1043986Y476870D01*
X1044253Y476894D01*
X1044265Y476761D01*
X1044241Y476664D01*
X1044180Y476554D01*
X1044131Y476530D01*
X1044010Y476409D01*
X1043949Y476251D01*
X1043755Y476057D01*
X1043731Y476008D01*
X1043610Y475887D01*
X1043586Y475839D01*
X1043537Y475790D01*
X1043513Y475742D01*
X1043464Y475693D01*
X1043440Y475645D01*
X1043391Y475596D01*
X1043367Y475547D01*
X1043270Y475402D01*
X1043246Y475354D01*
X1043149Y475256D01*
X1043052Y475087D01*
X1043003Y475038D01*
X1042833Y474820D01*
X1042809Y474771D01*
X1042748Y474711D01*
X1042639Y474577D01*
X1042615Y474529D01*
X1042567Y474480D01*
X1042542Y474431D01*
X1042469Y474359D01*
X1042397Y474237D01*
X1042324Y474068D01*
X1042203Y473946D01*
X1042130Y473825D01*
X1042009Y473704D01*
X1041984Y473655D01*
X1041887Y473558D01*
X1041863Y473510D01*
X1041790Y473437D01*
X1041620Y473218D01*
X1041596Y473170D01*
X1041548Y473121D01*
X1041426Y472903D01*
X1041402Y472854D01*
X1041232Y472685D01*
X1041208Y472636D01*
X1041135Y472563D01*
X1041111Y472515D01*
X1041062Y472466D01*
X1040941Y472248D01*
X1040820Y472127D01*
X1040723Y471957D01*
X1040698Y471908D01*
X1040577Y471787D01*
X1040480Y471617D01*
X1040419Y471557D01*
X1040310Y471423D01*
X1040237Y471302D01*
X1040153Y471217D01*
X1040043Y471083D01*
X1040019Y471035D01*
X1039898Y470914D01*
X1039874Y470865D01*
X1039752Y470695D01*
X1039728Y470647D01*
X1039679Y470598D01*
X1039558Y470380D01*
X1039485Y470307D01*
X1039461Y470258D01*
X1039425Y470222D01*
X1039328Y470077D01*
X1039279Y470052D01*
X1039219Y469992D01*
X1039097Y469822D01*
X1039073Y469773D01*
X1039000Y469701D01*
X1038879Y469482D01*
X1038794Y469324D01*
X1038685Y469191D01*
X1038661Y468876D01*
X1038721Y468742D01*
X1038770Y468718D01*
X1038879Y468585D01*
X1038903Y468536D01*
X1038940Y468500D01*
X1039109Y468378D01*
X1039158Y468354D01*
X1039206Y468306D01*
X1039376Y468208D01*
X1039764Y468184D01*
X1039861Y468208D01*
X1040031Y468233D01*
X1040286Y468342D01*
X1040407Y468390D01*
X1040565Y468427D01*
X1040686Y468475D01*
X1040735Y468500D01*
X1040783Y468548D01*
X1040868Y468609D01*
X1041099Y468694D01*
X1041269Y468766D01*
X1041317Y468791D01*
X1041378Y468851D01*
X1041535Y468912D01*
X1041633Y468936D01*
X1041936Y469094D01*
X1042033Y469118D01*
X1042154Y469142D01*
X1042312Y469179D01*
X1042469Y469264D01*
X1042664Y469385D01*
X1042821Y469422D01*
X1042943Y469470D01*
X1043088Y469567D01*
X1043137Y469591D01*
X1043416Y469725D01*
X1043683Y469846D01*
X1043925Y469943D01*
X1044156Y470028D01*
X1044423Y470149D01*
X1044471Y470174D01*
X1044508Y470210D01*
X1044665Y470271D01*
X1044762Y470295D01*
X1044883Y470344D01*
X1044932Y470368D01*
X1044981Y470416D01*
X1045199Y470537D01*
X1045344Y470562D01*
X1045490Y470659D01*
X1045623Y470744D01*
X1045757Y470780D01*
X1045927Y470804D01*
X1046097Y470877D01*
X1046181Y470938D01*
X1046412Y471023D01*
X1046509Y471047D01*
X1046630Y471096D01*
X1046679Y471144D01*
X1046727Y471168D01*
X1046764Y471205D01*
X1046994Y471290D01*
X1047116Y471338D01*
X1047383Y471484D01*
X1047662Y471617D01*
X1047965Y471726D01*
X1048135Y471775D01*
X1048353Y471872D01*
X1048523Y471945D01*
X1048693Y472066D01*
X1048887Y472139D01*
X1049056Y472187D01*
X1049117Y472248D01*
X1049311Y472369D01*
X1049445Y472406D01*
X1049712Y472575D01*
X1049893Y472563D01*
X1049918Y472466D01*
X1049797Y472296D01*
X1049772Y472248D01*
X1049627Y472102D01*
X1049602Y472054D01*
X1049360Y471811D01*
X1049335Y471763D01*
X1049214Y471593D01*
X1049117Y471423D01*
X1049093Y471375D01*
X1049056Y471338D01*
X1048947Y471205D01*
X1048875Y471083D01*
X1048680Y470889D01*
X1048656Y470841D01*
X1048571Y470756D01*
X1048462Y470622D01*
X1048438Y470525D01*
X1048365Y470356D01*
X1048329Y470319D01*
X1048220Y470186D01*
X1048195Y470137D01*
X1048086Y470028D01*
X1048037Y470004D01*
X1047977Y469919D01*
X1047953Y469870D01*
X1047904Y469822D01*
X1047880Y469773D01*
X1047843Y469761D01*
X1047686Y469531D01*
X1047662Y469482D01*
X1047589Y469409D01*
X1047492Y469240D01*
X1047443Y469191D01*
X1047419Y469142D01*
X1047358Y469082D01*
X1047249Y468948D01*
X1047225Y468900D01*
X1047103Y468779D01*
X1047006Y468609D01*
X1046982Y468560D01*
X1046909Y468488D01*
X1046788Y468318D01*
X1046764Y468269D01*
X1046667Y468172D01*
X1046521Y467905D01*
X1046448Y467832D01*
X1046327Y467663D01*
X1046303Y467614D01*
X1046085Y467396D01*
X1046060Y467347D01*
X1045939Y467226D01*
X1045842Y467056D01*
X1045757Y466898D01*
X1045648Y466765D01*
X1045623Y466716D01*
X1045478Y466571D01*
X1045454Y466522D01*
X1045405Y466474D01*
X1045381Y466425D01*
X1045284Y466328D01*
X1045187Y466158D01*
X1045138Y466110D01*
X1045114Y466061D01*
X1045041Y465989D01*
X1044920Y465770D01*
X1044871Y465722D01*
X1044847Y465673D01*
X1044811Y465661D01*
X1044787Y465612D01*
X1044677Y465479D01*
X1044653Y465430D01*
X1044556Y465333D01*
X1044459Y465164D01*
X1044338Y465042D01*
X1044313Y464994D01*
X1044241Y464921D01*
X1044216Y464678D01*
X1044265Y464557D01*
X1044301Y464521D01*
X1044350Y464496D01*
X1044398Y464448D01*
X1044447Y464424D01*
X1044483Y464387D01*
X1044508Y464339D01*
X1044592Y464278D01*
X1044920Y464096D01*
X1045053Y464060D01*
X1045175Y464011D01*
X1045514Y463987D01*
X1045587Y463963D01*
X1045648Y463975D01*
X1046218Y464011D01*
X1046388Y464035D01*
X1046715Y464072D01*
X1047079Y464145D01*
X1047225Y464169D01*
X1047455Y464205D01*
X1047649Y464254D01*
X1047819Y464302D01*
X1047953Y464339D01*
X1048074Y464387D01*
X1048171Y464412D01*
X1048450Y464472D01*
X1048608Y464533D01*
X1048753Y464630D01*
X1048875Y464678D01*
X1049275Y464739D01*
X1049420Y464836D01*
X1049505Y464897D01*
X1049663Y464957D01*
X1049760Y464982D01*
X1049881Y465030D01*
X1049930Y465079D01*
X1050100Y465176D01*
X1050270Y465248D01*
X1050379Y465358D01*
X1050500Y465406D01*
X1050658Y465467D01*
X1050803Y465564D01*
X1051070Y465709D01*
X1051119Y465734D01*
X1051179Y465794D01*
X1051313Y465904D01*
X1051361Y465928D01*
X1051531Y466049D01*
X1051580Y466073D01*
X1051677Y466171D01*
X1051895Y466340D01*
X1051944Y466365D01*
X1051992Y466413D01*
X1052210Y466583D01*
X1052259Y466607D01*
X1052611Y466959D01*
X1052635Y467007D01*
X1052805Y467177D01*
X1052829Y467226D01*
X1052866Y467262D01*
X1052914Y467286D01*
X1053290Y467663D01*
X1053314Y467711D01*
X1053484Y467881D01*
X1053581Y468051D01*
X1053690Y468160D01*
X1053800Y468293D01*
X1053824Y468342D01*
X1053994Y468512D01*
X1054091Y468681D01*
X1054115Y468730D01*
X1054151Y468766D01*
X1054309Y468997D01*
X1054333Y469045D01*
X1054382Y469094D01*
X1054673Y469652D01*
X1054722Y469773D01*
X1054879Y469980D01*
X1055001Y470246D01*
X1055110Y470380D01*
X1055182Y470574D01*
X1055207Y470671D01*
X1055377Y470914D01*
X1055401Y471132D01*
X1055425Y471302D01*
X1055498Y471472D01*
X1055522Y471520D01*
X1055559Y471557D01*
X1055607Y471678D01*
X1055668Y471957D01*
X1055692Y472054D01*
X1055826Y472381D01*
X1055850Y472478D01*
X1055886Y472709D01*
X1055935Y473049D01*
X1055971Y473182D01*
X1055995Y473279D01*
X1056068Y473473D01*
X1056092Y473570D01*
X1056117Y473716D01*
X1056141Y473934D01*
X1056165Y474322D01*
X1056201Y475184D01*
X1056226Y475572D01*
X1056201Y475887D01*
X1056177Y476421D01*
X1056153Y476736D01*
X1056129Y477124D01*
X1056105Y477222D01*
X1056080Y477464D01*
X1056056Y477561D01*
X1055947Y477913D01*
X1055922Y478010D01*
X1055886Y478289D01*
X1055862Y478532D01*
X1055838Y478629D01*
X1055704Y478908D01*
X1055680Y479005D01*
X1055619Y479357D01*
X1055522Y479575D01*
X1055425Y479745D01*
X1055401Y479963D01*
X1055352Y480254D01*
X1055304Y480303D01*
X1055280Y480351D01*
X1055243Y480388D01*
X1055158Y480618D01*
X1055098Y480752D01*
X1054976Y480946D01*
X1054891Y481176D01*
X1054770Y481346D01*
X1054552Y481758D01*
X1054430Y482074D01*
X1054261Y482317D01*
X1054236Y482365D01*
X1054115Y482486D01*
X1053969Y482753D01*
X1053848Y482874D01*
X1053751Y483044D01*
X1053727Y483093D01*
X1053630Y483190D01*
X1053509Y483408D01*
X1053424Y483493D01*
X1053314Y483627D01*
X1053290Y483675D01*
X1053205Y483760D01*
X1053157Y483784D01*
X1053120Y483821D01*
X1053096Y483869D01*
X1053023Y483942D01*
X1052999Y483991D01*
X1052938Y484027D01*
X1052829Y484160D01*
X1052805Y484209D01*
X1052684Y484330D01*
X1052659Y484379D01*
X1052611Y484427D01*
X1052587Y484476D01*
X1052259Y484803D01*
X1052041Y484973D01*
X1051992Y484997D01*
X1051956Y485034D01*
X1051932Y485082D01*
X1051871Y485143D01*
X1051822Y485167D01*
X1051628Y485361D01*
X1051507Y485434D01*
X1051337Y485604D01*
X1051167Y485701D01*
X1051022Y485847D01*
X1050973Y485871D01*
X1050828Y485968D01*
X1050779Y485992D01*
X1050718Y486053D01*
X1050488Y486211D01*
X1050439Y486235D01*
X1050391Y486283D01*
X1050342Y486307D01*
X1050294Y486356D01*
X1050245Y486380D01*
X1050197Y486429D01*
X1050148Y486453D01*
X1050100Y486502D01*
X1049675Y486732D01*
X1049518Y486793D01*
X1049396Y486841D01*
X1049335Y486902D01*
X1049202Y487011D01*
X1048959Y487108D01*
X1048911Y487157D01*
X1048862Y487181D01*
X1048814Y487229D01*
X1048693Y487278D01*
X1048523Y487327D01*
X1048426Y487424D01*
X1048377Y487448D01*
X1048329Y487496D01*
X1048086Y487521D01*
X1047843Y487593D01*
X1047795Y487642D01*
X1047746Y487666D01*
X1047710Y487703D01*
X1047589Y487751D01*
X1047492Y487775D01*
X1047358Y487812D01*
X1047103Y487945D01*
X1046946Y488006D01*
X1046849Y488030D01*
X1046679Y488079D01*
X1046545Y488139D01*
X1046279Y488236D01*
X1046157Y488261D01*
X1046000Y488297D01*
X1045721Y488382D01*
X1045623Y488406D01*
X1045478Y488430D01*
X1044993Y488503D01*
X1044871Y488527D01*
X1044556Y488576D01*
X1044253Y488612D01*
X1044180Y488637D01*
X1043598Y488661D01*
X1043525Y488685D01*
X1042021Y488709D01*
X1041487Y488685D01*
X1040771Y488649D01*
X1040529Y488624D01*
X1040140Y488576D01*
X1040019Y488552D01*
X1039437Y488455D01*
X1039231Y488418D01*
X1039134Y488394D01*
X1038927Y488333D01*
X1038830Y488309D01*
X1038551Y488248D01*
X1038381Y488200D01*
X1038078Y488066D01*
X1037981Y488042D01*
X1037860Y488018D01*
X1037763Y487994D01*
X1037629Y487957D01*
X1037435Y487836D01*
X1037314Y487788D01*
X1037144Y487739D01*
X1037023Y487690D01*
X1036974Y487666D01*
X1036914Y487606D01*
X1036792Y487557D01*
X1036610Y487521D01*
X1036441Y487496D01*
X1036307Y487436D01*
X1036161Y487339D01*
X1036004Y487278D01*
X1035834Y487254D01*
X1035713Y487205D01*
X1035664Y487157D01*
X1035494Y487060D01*
X1035397Y487035D01*
X1035179Y486938D01*
X1034961Y486817D01*
X1034500Y486599D01*
X1034305Y486477D01*
X1034257Y486453D01*
X1034087Y486332D01*
X1034039Y486307D01*
X1034002Y486271D01*
X1033869Y486162D01*
X1033820Y486138D01*
X1033675Y485992D01*
X1033456Y485871D01*
X1033347Y485762D01*
X1033105Y485616D01*
X1033080Y485568D01*
X1033032Y485519D01*
X1032898Y485410D01*
X1032850Y485386D01*
X1032789Y485325D01*
X1032765Y485276D01*
X1032583Y485167D01*
X1032534Y485143D01*
X1032413Y485022D01*
X1032243Y484925D01*
X1031612Y484294D01*
X1031564Y484270D01*
X1031236Y483942D01*
X1031212Y483894D01*
X1030994Y483675D01*
X1030969Y483627D01*
X1030533Y483190D01*
X1030509Y483141D01*
X1030460Y483093D01*
X1030436Y483044D01*
X1030387Y482996D01*
X1030217Y482777D01*
X1030193Y482729D01*
X1030157Y482693D01*
X1030048Y482559D01*
X1030023Y482511D01*
X1029854Y482341D01*
X1029829Y482292D01*
X1029684Y482147D01*
X1029599Y482013D01*
X1029538Y481856D01*
X1029441Y481710D01*
X1029320Y481492D01*
X1029296Y481443D01*
X1029259Y481407D01*
X1029150Y481273D01*
X1029053Y481031D01*
X1028980Y480958D01*
X1028859Y480740D01*
X1028810Y480618D01*
X1028762Y480570D01*
X1028737Y480521D01*
X1028677Y480461D01*
X1028592Y480230D01*
X1028568Y480133D01*
X1028349Y479672D01*
X1028252Y479526D01*
X1027985Y479017D01*
X1027937Y478896D01*
X1027876Y478762D01*
X1027755Y478568D01*
X1027719Y478241D01*
X1027694Y478144D01*
X1027658Y478010D01*
X1027561Y477864D01*
X1027500Y477707D01*
X1027452Y477367D01*
X1027403Y477246D01*
X1027294Y477040D01*
X1027233Y476688D01*
X1027209Y476518D01*
X1027148Y476312D01*
X1027051Y476069D01*
X1027015Y475790D01*
X1026991Y475620D01*
X1026954Y475293D01*
X1026918Y474917D01*
X1026894Y474820D01*
X1026857Y474492D01*
X1026821Y474189D01*
X1026797Y474116D01*
X1026772Y473364D01*
X1026748Y473291D01*
X1026760Y471629D01*
X1026784Y471217D01*
X1026809Y470998D01*
X1026857Y470756D01*
X1026918Y470331D01*
X1026942Y470089D01*
X1026991Y469749D01*
X1027015Y469434D01*
X1027039Y469264D01*
X1027100Y469058D01*
X1027173Y468863D01*
X1027197Y468766D01*
X1027221Y468645D01*
X1027258Y468269D01*
X1027306Y468075D01*
X1027391Y467869D01*
X1027439Y467747D01*
X1027476Y467590D01*
X1027524Y467299D01*
X1027634Y467117D01*
X1027682Y466995D01*
X1027706Y466898D01*
X1027743Y466595D01*
X1027840Y466377D01*
X1027937Y466207D01*
X1027985Y466037D01*
X1028034Y465916D01*
X1028228Y465552D01*
X1028337Y465370D01*
X1028398Y465212D01*
X1028446Y465091D01*
X1028568Y464897D01*
X1028616Y464703D01*
X1028665Y464533D01*
X1028701Y464496D01*
X1028798Y464351D01*
X1028859Y464193D01*
X1028907Y464072D01*
X1029029Y463951D01*
X1029138Y463744D01*
X1029247Y463611D01*
X1029344Y463441D01*
X1029393Y463320D01*
X1029490Y463174D01*
X1029611Y462956D01*
X1029635Y462907D01*
X1029756Y462786D01*
X1029878Y462568D01*
X1029926Y462519D01*
X1029951Y462471D01*
X1029999Y462422D01*
X1030023Y462374D01*
X1030072Y462325D01*
X1030096Y462276D01*
X1030145Y462228D01*
X1030484Y461791D01*
X1030509Y461743D01*
X1030630Y461621D01*
X1030654Y461573D01*
X1030703Y461524D01*
X1030727Y461476D01*
X1031115Y461088D01*
X1031236Y460869D01*
X1031261Y460821D01*
X1031297Y460784D01*
X1031346Y460760D01*
X1031431Y460651D01*
X1031455Y460602D01*
X1031540Y460518D01*
X1031588Y460493D01*
X1032110Y459972D01*
X1032134Y459923D01*
X1032219Y459838D01*
X1032268Y459814D01*
X1032328Y459753D01*
X1032352Y459705D01*
X1032389Y459668D01*
X1032559Y459571D01*
X1032753Y459377D01*
X1032801Y459353D01*
X1032911Y459244D01*
X1033044Y459135D01*
X1033153Y459001D01*
X1033287Y458892D01*
X1033335Y458868D01*
X1033396Y458807D01*
X1033529Y458698D01*
X1033650Y458625D01*
X1033735Y458540D01*
X1033869Y458431D01*
X1033954Y458370D01*
X1034087Y458261D01*
X1034136Y458237D01*
X1034184Y458188D01*
X1034233Y458164D01*
X1034318Y458079D01*
X1034560Y457934D01*
X1034694Y457825D01*
X1034779Y457764D01*
X1034912Y457728D01*
X1035058Y457630D01*
X1035191Y457546D01*
X1035349Y457485D01*
X1035409Y457424D01*
X1035543Y457315D01*
X1035664Y457267D01*
X1035834Y457194D01*
X1035943Y457085D01*
X1036065Y457036D01*
X1036222Y457000D01*
X1036344Y456927D01*
X1036477Y456842D01*
X1036635Y456781D01*
X1036804Y456757D01*
X1036974Y456684D01*
X1037023Y456660D01*
X1037071Y456611D01*
X1037338Y456466D01*
X1037993Y456126D01*
X1038151Y456066D01*
X1038345Y455944D01*
X1038794Y455884D01*
X1039146Y455702D01*
X1039243Y455677D01*
X1039473Y455641D01*
X1039643Y455592D01*
X1039849Y455483D01*
X1039971Y455435D01*
X1040250Y455398D01*
X1040444Y455350D01*
X1040601Y455265D01*
X1040796Y455192D01*
X1041050Y455156D01*
X1041293Y455131D01*
X1041463Y455107D01*
X1041657Y455059D01*
X1041790Y455022D01*
X1041984Y454974D01*
X1042130Y454949D01*
X1042324Y454925D01*
X1042773Y454889D01*
X1042870Y454865D01*
X1043561Y454780D01*
X1044277Y454719D01*
X1044350Y454695D01*
X1045320Y454670D01*
X1045393Y454646D01*
X1045866Y454658D01*
X1046643Y454683D01*
X1046958Y454707D01*
X1047152Y454731D01*
X1047298Y454755D01*
X1047540Y454804D01*
X1047637Y454828D01*
X1047758Y454852D01*
X1047904Y454877D01*
X1048171Y454901D01*
X1048462Y454925D01*
X1048608Y454949D01*
X1048705Y454974D01*
X1048826Y454998D01*
X1049214Y455095D01*
X1049335Y455119D01*
X1049530Y455144D01*
X1049978Y455180D01*
X1050282Y455313D01*
X1050403Y455362D01*
X1050500Y455386D01*
X1050779Y455423D01*
X1050949Y455495D01*
X1050997Y455520D01*
X1051034Y455556D01*
X1051264Y455641D01*
X1051555Y455690D01*
X1051834Y455823D01*
X1051956Y455872D01*
X1052380Y455932D01*
X1052647Y456053D01*
X1052890Y456151D01*
X1053108Y456247D01*
X1053618Y456490D01*
X1053994Y456696D01*
X1054151Y456757D01*
X1054249Y456781D01*
X1054418Y456854D01*
X1054467Y456878D01*
X1054515Y456927D01*
X1054637Y457000D01*
X1054807Y457072D01*
X1054903Y457169D01*
X1055170Y457315D01*
X1055219Y457339D01*
X1055316Y457436D01*
X1055534Y457558D01*
X1055583Y457582D01*
X1055631Y457630D01*
X1055801Y457728D01*
X1055995Y457776D01*
X1056117Y457897D01*
X1056238Y457970D01*
X1056917Y458455D01*
X1056966Y458480D01*
X1057014Y458528D01*
X1057184Y458649D01*
X1057233Y458674D01*
X1057269Y458710D01*
X1057402Y458819D01*
X1057572Y458916D01*
X1057742Y459086D01*
X1057791Y459110D01*
X1057839Y459159D01*
X1057888Y459183D01*
X1057912Y459232D01*
X1058130Y459402D01*
X1058179Y459426D01*
X1058240Y459486D01*
X1058373Y459596D01*
X1058421Y459620D01*
X1058543Y459741D01*
X1058628Y459802D01*
X1058652Y459850D01*
X1059028Y460226D01*
X1059077Y460251D01*
X1059125Y460299D01*
X1059174Y460323D01*
X1059246Y460396D01*
X1059295Y460420D01*
X1059550Y460675D01*
X1059647Y460845D01*
X1059817Y461015D01*
X1059841Y461063D01*
X1059950Y461173D01*
X1059998Y461197D01*
X1060290Y461488D01*
X1060520Y461791D01*
X1060544Y461840D01*
X1060714Y462010D01*
X1060738Y462058D01*
X1060872Y462192D01*
X1060981Y462325D01*
X1061005Y462374D01*
X1061090Y462483D01*
X1061199Y462616D01*
X1061224Y462665D01*
X1061272Y462786D01*
X1061394Y462907D01*
X1061515Y463126D01*
X1061636Y463247D01*
X1061733Y463417D01*
X1061757Y463465D01*
X1061818Y463526D01*
X1061927Y463659D01*
X1061952Y463708D01*
X1062061Y463817D01*
X1062218Y464048D01*
X1062437Y464460D01*
X1062461Y464509D01*
X1062534Y464581D01*
X1062679Y464848D01*
X1062716Y464885D01*
X1062813Y465030D01*
X1062873Y465188D01*
X1062922Y465309D01*
X1062971Y465358D01*
X1063055Y465491D01*
X1063092Y465625D01*
X1063140Y465819D01*
X1063213Y465891D01*
X1063310Y466061D01*
X1063383Y466304D01*
X1063480Y466401D01*
X1063565Y466534D01*
X1063601Y466668D01*
X1063650Y466789D01*
X1063698Y466838D01*
X1063820Y467056D01*
X1063844Y467153D01*
X1063892Y467274D01*
X1063953Y467408D01*
X1064002Y467529D01*
X1064062Y467687D01*
X1064111Y467808D01*
X1064184Y467978D01*
X1064232Y468099D01*
X1064365Y468402D01*
X1064414Y468524D01*
X1064438Y468621D01*
X1064475Y468827D01*
X1064499Y468924D01*
X1064608Y469179D01*
X1064657Y469300D01*
X1064693Y469458D01*
X1064742Y469798D01*
X1064766Y469895D01*
X1064851Y470174D01*
X1064899Y470440D01*
X1064936Y470671D01*
X1064984Y471011D01*
X1065069Y471290D01*
X1065118Y471411D01*
X1065142Y471508D01*
X1065166Y471654D01*
X1065202Y472054D01*
X1065227Y472151D01*
X1065275Y472442D01*
X1065360Y472721D01*
X1065385Y472842D01*
X1065409Y473036D01*
X1065433Y473352D01*
X1065457Y473595D01*
X1065482Y473813D01*
X1065542Y474407D01*
X1065566Y474480D01*
X1065591Y475256D01*
X1065566Y476591D01*
X1065542Y476688D01*
X1065482Y477234D01*
X1065445Y477707D01*
X1065421Y477804D01*
X1065397Y478192D01*
X1065372Y478289D01*
X1065348Y478459D01*
X1065263Y478738D01*
X1065239Y478835D01*
X1065215Y478956D01*
X1065154Y479551D01*
X1065130Y479648D01*
X1065069Y479805D01*
X1065021Y479927D01*
X1064972Y480121D01*
X1064948Y480339D01*
X1064923Y480533D01*
X1064887Y480691D01*
X1064814Y480934D01*
X1064778Y481067D01*
X1064754Y481188D01*
X1064717Y481346D01*
X1064669Y481637D01*
X1064584Y481916D01*
X1064511Y482110D01*
X1064487Y482207D01*
X1064450Y482365D01*
X1064426Y482462D01*
X1064365Y482620D01*
X1064293Y482814D01*
X1064232Y482972D01*
X1064123Y483251D01*
X1064014Y483554D01*
X1063892Y483942D01*
X1063747Y484257D01*
X1063601Y484524D01*
X1063577Y484621D01*
X1063529Y484743D01*
X1063492Y484779D01*
X1063383Y484912D01*
X1063359Y484961D01*
X1063237Y485228D01*
X1063116Y485398D01*
X1063092Y485543D01*
X1063067Y485640D01*
X1063019Y485762D01*
X1062946Y485834D01*
X1062922Y485883D01*
X1062886Y485919D01*
X1062873Y485932D01*
Y485956D01*
X1062776Y486174D01*
X1062728Y486223D01*
X1062631Y486392D01*
X1062582Y486514D01*
X1062485Y486611D01*
X1062218Y487120D01*
X1062158Y487254D01*
X1062061Y487399D01*
X1061903Y487630D01*
X1061879Y487678D01*
X1061830Y487727D01*
X1061673Y488006D01*
X1061563Y488139D01*
X1061418Y488406D01*
X1061321Y488503D01*
X1061175Y488770D01*
X1061054Y488891D01*
X1060981Y489013D01*
X1060763Y489231D01*
X1060738Y489280D01*
X1060605Y489413D01*
X1060447Y489644D01*
X1060423Y489692D01*
X1060375Y489740D01*
X1060350Y489789D01*
X1060180Y489959D01*
X1060156Y490007D01*
X1059998Y490165D01*
X1059950Y490189D01*
X1059732Y490408D01*
X1059574Y490638D01*
X1059550Y490687D01*
X1059513Y490699D01*
X1059355Y490857D01*
X1059331Y490905D01*
X1059222Y490990D01*
X1059174Y491014D01*
X1058895Y491293D01*
X1058870Y491342D01*
X1058676Y491536D01*
X1058652Y491584D01*
X1058349Y491888D01*
X1058300Y491912D01*
X1058252Y491960D01*
X1058203Y491985D01*
X1058106Y492082D01*
X1058057Y492106D01*
X1057997Y492167D01*
X1057973Y492215D01*
X1057791Y492397D01*
X1057742Y492421D01*
X1057633Y492531D01*
X1057499Y492640D01*
X1057415Y492700D01*
X1057281Y492810D01*
X1057233Y492834D01*
X1057111Y492882D01*
X1057026Y492967D01*
X1057002Y493016D01*
X1056966Y493052D01*
X1056796Y493149D01*
X1056675Y493271D01*
X1056505Y493368D01*
X1056371Y493501D01*
X1056141Y493659D01*
X1056092Y493683D01*
X1056020Y493756D01*
X1055850Y493853D01*
X1055510Y494095D01*
X1055292Y494265D01*
X1055243Y494290D01*
X1055182Y494350D01*
X1055037Y494447D01*
X1054807Y494532D01*
X1054637Y494654D01*
X1054370Y494799D01*
X1054321Y494823D01*
X1054273Y494872D01*
X1054188Y494933D01*
X1053957Y495017D01*
X1053885Y495090D01*
X1053836Y495115D01*
X1053800Y495151D01*
X1053569Y495236D01*
X1053472Y495333D01*
X1053339Y495418D01*
X1053060Y495478D01*
X1052938Y495527D01*
X1052866Y495600D01*
X1052502Y495794D01*
X1052235Y495939D01*
X1051871Y496109D01*
X1051592Y496243D01*
X1051470Y496291D01*
X1051313Y496328D01*
X1051119Y496376D01*
X1050949Y496449D01*
X1050900Y496473D01*
X1050864Y496510D01*
X1050706Y496570D01*
X1050512Y496619D01*
X1050209Y496776D01*
X1049954Y496837D01*
X1049857Y496861D01*
X1049736Y496910D01*
X1049530Y497019D01*
X1049348Y497055D01*
X1049251Y497080D01*
X1049081Y497104D01*
X1048887Y497152D01*
X1048535Y497262D01*
X1048438Y497286D01*
X1048207Y497322D01*
X1048037Y497346D01*
X1047868Y497395D01*
X1047734Y497456D01*
X1047613Y497504D01*
X1047516Y497528D01*
X1047285Y497565D01*
X1046946Y497613D01*
X1046703Y497686D01*
X1046570Y497723D01*
X1046364Y497759D01*
X1046266Y497783D01*
X1046024Y497808D01*
X1045854Y497832D01*
X1045527Y497868D01*
X1045381Y497892D01*
X1045126Y497929D01*
X1045053Y497953D01*
X1043962Y497977D01*
X1043889Y498002D01*
D02*
G37*
G36*
X914842Y472163D02*
X914805Y472127D01*
X914745Y472042D01*
X914757Y457279D01*
X914733Y457036D01*
X914757Y456866D01*
X914818Y456805D01*
X915012Y456781D01*
X915182Y456805D01*
X915254Y456781D01*
X1008576Y456793D01*
X1008904Y456781D01*
X1009001Y456805D01*
X1009037Y456842D01*
X1009073Y456927D01*
X1009061Y468221D01*
Y468245D01*
Y471739D01*
X1009086Y471908D01*
X1009061Y472078D01*
X1009001Y472139D01*
X914842Y472163D01*
D02*
G37*
%LPD*%
G36*
X967805Y489607D02*
X967914Y489546D01*
X967938Y489425D01*
X967914Y489183D01*
X967938Y489110D01*
X967926Y485483D01*
X967938Y485082D01*
X967853Y484997D01*
X963486Y484973D01*
X963316Y484997D01*
X963195Y485046D01*
X962855Y485070D01*
X962698Y485131D01*
X962576Y485179D01*
X962370Y485216D01*
X962249Y485264D01*
X962200Y485313D01*
X961982Y485434D01*
X961861Y485483D01*
X961824Y485519D01*
X961800Y485568D01*
X961764Y485604D01*
X961715Y485628D01*
X961666Y485677D01*
X961618Y485701D01*
X961606Y485737D01*
X961557Y485786D01*
X961533Y485834D01*
X961436Y485932D01*
X961375Y486016D01*
X961303Y486162D01*
X961242Y486320D01*
X961206Y486356D01*
X961157Y486477D01*
X961121Y486611D01*
X961096Y486684D01*
X961072Y487120D01*
X961096Y487872D01*
X961206Y488127D01*
X961315Y488430D01*
X961363Y488552D01*
X961485Y488673D01*
X961582Y488843D01*
X961642Y488904D01*
X961691Y488928D01*
X961836Y489073D01*
X962055Y489195D01*
X962103Y489219D01*
X962176Y489292D01*
X962309Y489377D01*
X962589Y489413D01*
X962855Y489534D01*
X963219Y489510D01*
X963438Y489607D01*
X966082Y489631D01*
X967708D01*
X967805Y489607D01*
D02*
G37*
G36*
X967878Y483056D02*
X967914Y483020D01*
X967938Y482899D01*
X967914Y482656D01*
X967938Y482583D01*
X967926Y478253D01*
X967938Y477925D01*
X967914Y477828D01*
X967829Y477767D01*
X963147Y477743D01*
X962831Y477767D01*
X962710Y477816D01*
X962625Y477852D01*
X962443Y477840D01*
X962322Y477889D01*
X962273Y477913D01*
X962237Y477949D01*
X961982Y478010D01*
X961812Y478083D01*
X961594Y478204D01*
X961472Y478253D01*
X961351Y478374D01*
X961181Y478495D01*
X961072Y478629D01*
X961012Y478714D01*
X960963Y478738D01*
X960854Y478920D01*
X960684Y479162D01*
X960635Y479284D01*
X960611Y479381D01*
X960551Y479587D01*
X960502Y479708D01*
X960478Y479830D01*
X960441Y480109D01*
X960417Y480182D01*
X960429Y480703D01*
X960466Y480982D01*
X960490Y481079D01*
X960526Y481213D01*
X960599Y481407D01*
X960635Y481564D01*
X960696Y481698D01*
X960805Y481831D01*
X960902Y482001D01*
X960927Y482050D01*
X961072Y482195D01*
X961096Y482244D01*
X961145Y482292D01*
X961278Y482401D01*
X961327Y482426D01*
X961387Y482486D01*
X961521Y482595D01*
X961788Y482693D01*
X961909Y482765D01*
X962043Y482850D01*
X962273Y482887D01*
X962322D01*
X962540Y482984D01*
X962928Y483008D01*
X963025Y483032D01*
X963147Y483081D01*
X967756Y483105D01*
X967878Y483056D01*
D02*
G37*
G36*
X990514Y485580D02*
X990635Y485555D01*
X990708Y485580D01*
X990877Y485507D01*
X990962Y485446D01*
X991059Y485422D01*
X991217Y485386D01*
X991266Y485337D01*
X991278Y485325D01*
X991399Y485252D01*
X991557Y485191D01*
X991678Y485143D01*
X991739Y485082D01*
X991872Y484973D01*
X991921Y484949D01*
X992248Y484621D01*
X992321Y484500D01*
X992382Y484439D01*
X992491Y484306D01*
X992588Y484039D01*
X992624Y484003D01*
X992721Y483857D01*
X992758Y483724D01*
X992782Y483627D01*
X992879Y483287D01*
X992903Y483214D01*
X992927Y483044D01*
X992903Y482947D01*
X992794Y482887D01*
X986874Y482862D01*
X986777Y482887D01*
X986692Y482972D01*
X986704Y483178D01*
X986741Y483457D01*
X986765Y483554D01*
X986898Y483857D01*
X986923Y483954D01*
X986959Y484112D01*
X987081Y484282D01*
X987226Y484549D01*
X987287Y484633D01*
X987335Y484658D01*
X987469Y484791D01*
X987493Y484840D01*
X987675Y484973D01*
X987723Y484997D01*
X987845Y485119D01*
X987930Y485179D01*
X988160Y485264D01*
X988209Y485313D01*
X988294Y485373D01*
X988451Y485434D01*
X988670Y485531D01*
X988888Y485555D01*
X989094Y485640D01*
X989349Y485677D01*
X989422Y485653D01*
X989494Y485677D01*
X989919Y485665D01*
X990295Y485677D01*
X990514Y485580D01*
D02*
G37*
G36*
X944635D02*
X944756Y485555D01*
X944829Y485580D01*
X944999Y485507D01*
X945084Y485446D01*
X945181Y485422D01*
X945339Y485386D01*
X945387Y485337D01*
X945520Y485252D01*
X945678Y485191D01*
X945799Y485143D01*
X945921Y485022D01*
X946042Y484949D01*
X946151Y484840D01*
X946212Y484755D01*
X946261Y484730D01*
X946309Y484682D01*
X946418Y484549D01*
X946442Y484500D01*
X946540Y484403D01*
X946624Y484270D01*
X946709Y484039D01*
X946746Y484003D01*
X946843Y483857D01*
X946940Y483469D01*
X946976Y483335D01*
X947025Y483214D01*
X947049Y482996D01*
X946916Y482887D01*
X940971Y482862D01*
X940838Y482923D01*
X940814Y483044D01*
X940862Y483457D01*
X940911Y483627D01*
X940971Y483760D01*
X941020Y483881D01*
X941056Y484015D01*
X941129Y484185D01*
X941153Y484233D01*
X941202Y484282D01*
X941348Y484549D01*
X941372Y484597D01*
X941432Y484658D01*
X941481Y484682D01*
X941566Y484767D01*
X941590Y484815D01*
X941639Y484864D01*
X941651Y484876D01*
X941796Y484973D01*
X941845Y484997D01*
X941966Y485119D01*
X942051Y485179D01*
X942282Y485264D01*
X942379Y485361D01*
X942573Y485434D01*
X942791Y485531D01*
X943009Y485555D01*
X943131Y485604D01*
X943216Y485640D01*
X943470Y485677D01*
X943567Y485653D01*
X943640Y485677D01*
X944016Y485665D01*
X944417Y485677D01*
X944635Y485580D01*
D02*
G37*
G36*
X929568Y481116D02*
X929666Y481091D01*
X929932Y481018D01*
X930102Y480994D01*
X930248D01*
X930418Y480922D01*
X930709Y480897D01*
X930806Y480873D01*
X930976Y480800D01*
X931534Y480776D01*
X931631Y480752D01*
X931764Y480715D01*
X931886Y480667D01*
X932262Y480679D01*
X932431Y480655D01*
X932674Y480558D01*
X933111Y480533D01*
X933281Y480509D01*
X933402Y480461D01*
X933644Y480436D01*
X933899Y480327D01*
X933996Y480303D01*
X934154Y480266D01*
X934227Y480194D01*
X934494Y480048D01*
X934530Y480012D01*
X934554Y479963D01*
X934724Y479793D01*
X934833Y479587D01*
X934930Y479441D01*
X934967Y479308D01*
X934991Y479211D01*
X935015Y479041D01*
X934991Y478799D01*
X934942Y478629D01*
X934833Y478447D01*
X934773Y478289D01*
X934578Y478095D01*
X934554Y478046D01*
X934518Y478010D01*
X934348Y477913D01*
X934299Y477864D01*
X934251Y477840D01*
X934215Y477804D01*
X934057Y477743D01*
X933960Y477719D01*
X933742Y477622D01*
X933596Y477598D01*
X933499Y477573D01*
X933426Y477549D01*
X933196Y477513D01*
X932334Y477525D01*
X932262Y477501D01*
X932043Y477525D01*
X931922Y477598D01*
X931655Y477622D01*
X931558Y477646D01*
X931522Y477683D01*
X931400Y477731D01*
X931194Y477767D01*
X931024Y477840D01*
X930806Y477962D01*
X930636Y478034D01*
X930587Y478059D01*
X930490Y478156D01*
X930321Y478253D01*
X930272Y478277D01*
X930224Y478326D01*
X930005Y478495D01*
X929957Y478520D01*
X929945Y478556D01*
X929896Y478605D01*
X929872Y478653D01*
X929811Y478714D01*
X929763Y478738D01*
X929629Y478920D01*
X929605Y478968D01*
X929532Y479041D01*
X929508Y479090D01*
X929472Y479126D01*
X929423Y479247D01*
X929399Y479344D01*
X929265Y479720D01*
X929241Y479818D01*
X929217Y479890D01*
X929193Y481055D01*
X929217Y481152D01*
X929253Y481188D01*
X929423Y481213D01*
X929568Y481116D01*
D02*
G37*
G36*
X1007375Y470052D02*
X1007472Y470028D01*
X1007545Y469955D01*
X1007533Y459389D01*
X1007557Y458783D01*
X1007424Y458674D01*
X1000800Y458649D01*
X1000606Y458698D01*
X1000534Y458771D01*
X1000546Y459414D01*
X1000521Y459875D01*
X1000546Y459972D01*
X1000655Y460032D01*
X1005968Y460057D01*
X1006041Y460032D01*
X1006235Y460081D01*
X1006271Y460117D01*
X1006296Y463684D01*
X1006211Y463769D01*
X1006017Y463793D01*
X1005944Y463769D01*
X1001613Y463781D01*
X1001358Y463769D01*
X1001189Y463793D01*
X1001128Y463853D01*
X1001104Y465067D01*
X1001189Y465151D01*
X1006138Y465176D01*
X1006235Y465200D01*
X1006271Y465236D01*
X1006296Y468512D01*
X1006271Y468609D01*
X1006235Y468645D01*
X1005944Y468669D01*
X1000897D01*
X1000776Y468718D01*
X1000728Y468791D01*
X1000740Y469482D01*
X1000715Y469870D01*
X1000752Y469980D01*
X1000837Y470040D01*
X1001079Y470064D01*
X1006890Y470052D01*
X1007205Y470077D01*
X1007375Y470052D01*
D02*
G37*
G36*
X998787Y470028D02*
X998823Y469943D01*
Y469919D01*
Y458807D01*
X998799Y458710D01*
X998762Y458674D01*
X993255Y458649D01*
X993012Y458674D01*
X992976Y458710D01*
X992915Y458795D01*
X992927Y459389D01*
X992903Y459923D01*
X993012Y460032D01*
X997404Y460057D01*
X997525Y460105D01*
X997586Y460166D01*
X997574Y460445D01*
X997586Y469482D01*
X997561Y469870D01*
X997598Y469980D01*
X997719Y470052D01*
X997792Y470077D01*
X998132Y470052D01*
X998665Y470077D01*
X998787Y470028D01*
D02*
G37*
G36*
X991314Y470052D02*
X991411Y470028D01*
X991448Y469992D01*
X991484Y469907D01*
X991472Y459098D01*
X991496Y458856D01*
X991472Y458759D01*
X991363Y458674D01*
X984788Y458649D01*
X984618Y458674D01*
X984521Y458698D01*
X984472Y458746D01*
X984448Y458843D01*
X984460Y459753D01*
X984436Y459826D01*
X984472Y459959D01*
X984594Y460032D01*
X984666Y460057D01*
X989968Y460044D01*
X990077Y460057D01*
X990174Y460081D01*
X990235Y460214D01*
X990210Y460530D01*
X990235Y460602D01*
X990222Y463259D01*
X990235Y463611D01*
X990210Y463708D01*
X990150Y463769D01*
X989931Y463793D01*
X989858Y463769D01*
X985552Y463781D01*
X985297Y463769D01*
X985127Y463793D01*
X985091Y463829D01*
X985030Y463914D01*
X985042Y464727D01*
X985018Y464969D01*
X985055Y465103D01*
X985067Y465115D01*
X985103Y465151D01*
X990125Y465176D01*
X990162Y465212D01*
X990235Y465333D01*
X990210Y465649D01*
X990235Y465722D01*
X990222Y468136D01*
X990235Y468488D01*
X990210Y468585D01*
X990150Y468645D01*
X984909Y468669D01*
X984739Y468694D01*
X984679Y468754D01*
X984654Y469895D01*
X984679Y469992D01*
X984751Y470040D01*
X985018Y470064D01*
X990829Y470052D01*
X991144Y470077D01*
X991314Y470052D01*
D02*
G37*
G36*
X973894D02*
X974028Y469992D01*
X974064Y469907D01*
X974052Y469118D01*
X974076Y468876D01*
X974052Y468779D01*
X973967Y468694D01*
X971104Y468669D01*
X970947Y468609D01*
X970910Y468524D01*
X970922Y463223D01*
Y463198D01*
Y458759D01*
X970837Y458674D01*
X969867Y458649D01*
X969770Y458674D01*
X969709Y458734D01*
X969685Y468245D01*
X969709Y468415D01*
X969685Y468585D01*
X969624Y468645D01*
X966834Y468669D01*
X966664Y468694D01*
X966567Y468815D01*
X966580Y469676D01*
X966555Y469846D01*
X966592Y469980D01*
X966640Y470004D01*
X966676Y470040D01*
X966798Y470064D01*
X973506Y470052D01*
X973579Y470077D01*
X973894Y470052D01*
D02*
G37*
G36*
X965039D02*
X965148Y470016D01*
X965209Y469931D01*
X965197Y459244D01*
X965221Y458856D01*
X965197Y458759D01*
X965087Y458674D01*
X964335Y458649D01*
X964020Y458674D01*
X963959Y458734D01*
X963923Y458819D01*
X963935Y463684D01*
X963886Y463732D01*
X963765Y463781D01*
X962055Y463769D01*
X961885Y463744D01*
X961788Y463720D01*
X961666Y463671D01*
X961351Y463502D01*
X961206Y463356D01*
X961121Y463296D01*
X961096Y463247D01*
X960999Y463150D01*
X960829Y462932D01*
X960805Y462883D01*
X960732Y462810D01*
X960587Y462543D01*
X960551Y462507D01*
X960441Y462374D01*
X960417Y462325D01*
X960320Y462082D01*
X960211Y461973D01*
X960150Y461815D01*
X960102Y461694D01*
X960029Y461621D01*
X959810Y461209D01*
X959750Y461124D01*
X959689Y460966D01*
X959616Y460797D01*
X959568Y460748D01*
X959507Y460663D01*
X959447Y460505D01*
X959350Y460360D01*
X959265Y460226D01*
X959228Y460093D01*
X959180Y459972D01*
X959131Y459923D01*
X959034Y459753D01*
X958961Y459584D01*
X958937Y459535D01*
X958828Y459426D01*
X958767Y459268D01*
X958719Y459098D01*
X958670Y459050D01*
X958549Y458831D01*
X958500Y458710D01*
X958440Y458674D01*
X957251Y458649D01*
X957008Y458674D01*
X956972Y458710D01*
X956948Y458783D01*
X956972Y458880D01*
X957045Y458953D01*
X957142Y459123D01*
X957239Y459341D01*
X957384Y459608D01*
X957481Y459753D01*
X957566Y459887D01*
X957603Y460020D01*
X957651Y460141D01*
X957700Y460190D01*
X957821Y460408D01*
X957894Y460578D01*
X957918Y460627D01*
X958003Y460712D01*
X958064Y460869D01*
X958112Y460991D01*
X958233Y461161D01*
X958331Y461427D01*
X958500Y461670D01*
X958573Y461864D01*
X958646Y461985D01*
X958816Y462301D01*
X958840Y462349D01*
X958913Y462422D01*
X959034Y462640D01*
X959131Y462738D01*
X959252Y462907D01*
X959277Y462956D01*
X959325Y463004D01*
X959495Y463223D01*
X959519Y463271D01*
X959556Y463283D01*
X959689Y463417D01*
X959714Y463465D01*
X959798Y463526D01*
X959847Y463550D01*
X960077Y463781D01*
X960126Y463902D01*
X960041Y463987D01*
X959774Y464011D01*
X959604Y464060D01*
X959325Y464193D01*
X959168Y464254D01*
X959143D01*
X959046Y464302D01*
X958973Y464375D01*
X958925Y464399D01*
X958779Y464496D01*
X958731Y464521D01*
X958355Y464897D01*
X958331Y464945D01*
X958282Y464994D01*
X958258Y465042D01*
X958161Y465139D01*
X958064Y465309D01*
X958003Y465467D01*
X957882Y465661D01*
X957845Y465794D01*
X957797Y465989D01*
X957736Y466195D01*
X957675Y466619D01*
X957651Y466692D01*
X957663Y467286D01*
X957688Y467432D01*
X957712Y467529D01*
X957736Y467675D01*
X957760Y467796D01*
X957809Y467990D01*
X957845Y468221D01*
X958039Y468633D01*
X958112Y468803D01*
X958209Y468900D01*
X958331Y469118D01*
X958755Y469543D01*
X958973Y469664D01*
X959022Y469688D01*
X959095Y469761D01*
X959180Y469798D01*
X959337Y469834D01*
X959435Y469858D01*
X959604Y469955D01*
X959823Y469931D01*
X959980Y469992D01*
X960102Y470040D01*
X960296Y470064D01*
X964651Y470052D01*
X964724Y470077D01*
X965039Y470052D01*
D02*
G37*
G36*
X944902D02*
X945157Y470064D01*
X945508Y470052D01*
X945605Y470028D01*
X945690Y469943D01*
X945666Y469555D01*
Y469531D01*
Y459292D01*
X945690Y458831D01*
X945666Y458734D01*
X945581Y458674D01*
X944756Y458649D01*
X944586Y458674D01*
X944501Y458783D01*
X944514Y459013D01*
X944501Y466304D01*
X944526Y467274D01*
X944489Y467383D01*
X944417Y467408D01*
X944380Y467371D01*
X944356Y467323D01*
X944138Y467007D01*
X944113Y466959D01*
X944041Y466789D01*
X943919Y466619D01*
X943822Y466352D01*
X943749Y466280D01*
X943664Y466146D01*
X943580Y465916D01*
X943446Y465782D01*
X943385Y465625D01*
X943337Y465503D01*
X943264Y465430D01*
X943204Y465346D01*
X943143Y465188D01*
X943094Y465067D01*
X943046Y465018D01*
X942924Y464800D01*
X942864Y464666D01*
X942755Y464533D01*
X942730Y464484D01*
X942609Y464217D01*
X942585Y464169D01*
X942524Y464108D01*
X942464Y463951D01*
X942415Y463829D01*
X942342Y463756D01*
X942221Y463538D01*
X942172Y463417D01*
X942148Y463368D01*
X942039Y463259D01*
X941954Y463029D01*
X941857Y462883D01*
X941784Y462762D01*
X941736Y462640D01*
X941639Y462495D01*
X941554Y462361D01*
X941517Y462228D01*
X941348Y461985D01*
X941323Y461937D01*
X941226Y461718D01*
X941178Y461670D01*
X941153Y461621D01*
X941117Y461585D01*
X941056Y461427D01*
X941008Y461306D01*
X940935Y461233D01*
X940838Y461063D01*
X940765Y460894D01*
X940741Y460845D01*
X940693Y460797D01*
X940595Y460627D01*
X940523Y460457D01*
X940474Y460408D01*
X940413Y460323D01*
X940353Y460166D01*
X940304Y460044D01*
X940256Y459996D01*
X940062Y459632D01*
X940037Y459584D01*
X939977Y459523D01*
X939904Y459377D01*
X939868Y459244D01*
X939771Y459147D01*
X939746Y459098D01*
X939710Y459062D01*
X939649Y458904D01*
X939601Y458783D01*
X939443Y458674D01*
X938424Y458649D01*
X938327Y458674D01*
X938291Y458710D01*
X938266Y469967D01*
X938303Y470004D01*
X938388Y470064D01*
X938885Y470052D01*
X939200Y470077D01*
X939370Y470052D01*
X939407Y470016D01*
X939431Y461549D01*
X939455Y461379D01*
X939492Y461342D01*
X939588Y461318D01*
X939637Y461391D01*
X939698Y461549D01*
X939940Y462058D01*
X939965Y462107D01*
X940013Y462155D01*
X940074Y462240D01*
X940134Y462398D01*
X940183Y462519D01*
X940304Y462640D01*
X940353Y462762D01*
X940426Y462932D01*
X940450Y462980D01*
X940547Y463077D01*
X940644Y463320D01*
X940777Y463502D01*
X940838Y463659D01*
X940887Y463781D01*
X940935Y463829D01*
X941129Y464193D01*
X941153Y464242D01*
X941202Y464290D01*
X941275Y464412D01*
X941348Y464581D01*
X941481Y464763D01*
X941542Y464921D01*
X941590Y465042D01*
X941663Y465115D01*
X941748Y465248D01*
X941784Y465382D01*
X941906Y465552D01*
X941990Y465685D01*
X942027Y465819D01*
X942124Y465964D01*
X942245Y466183D01*
X942294Y466304D01*
X942342Y466352D01*
X942512Y466668D01*
X942536Y466716D01*
X942585Y466765D01*
X942682Y466935D01*
X942730Y467104D01*
X942828Y467202D01*
X942852Y467250D01*
X942888Y467286D01*
X942949Y467444D01*
X942997Y467565D01*
X943034Y467602D01*
X943143Y467735D01*
X943167Y467832D01*
X943216Y467954D01*
X943337Y468124D01*
X943628Y468657D01*
X943677Y468779D01*
X943749Y468851D01*
X943774Y468900D01*
X943810Y468936D01*
X943846Y469070D01*
X943956Y469252D01*
X944065Y469385D01*
X944089Y469482D01*
X944138Y469604D01*
X944162Y469652D01*
X944210Y469701D01*
X944356Y469967D01*
X944380Y470016D01*
X944465Y470052D01*
X944538Y470077D01*
X944805Y470052D01*
X944878Y470077D01*
X944902Y470052D01*
D02*
G37*
G36*
X935707D02*
X935840Y469992D01*
X935864Y458831D01*
X935840Y458734D01*
X935755Y458674D01*
X934833Y458649D01*
X934639Y458698D01*
X934578Y458783D01*
X934591Y459038D01*
X934578Y467590D01*
Y467614D01*
X934591Y469591D01*
X934578Y469895D01*
X934603Y469992D01*
X934676Y470040D01*
X934942Y470064D01*
X935319Y470052D01*
X935391Y470077D01*
X935707Y470052D01*
D02*
G37*
G36*
X920616Y470198D02*
X920883Y470174D01*
X921101Y470077D01*
X921198Y470052D01*
X921368Y470004D01*
X921417Y469955D01*
X921587Y469858D01*
X921708Y469810D01*
X921756Y469785D01*
X921841Y469701D01*
X921975Y469591D01*
X922023Y469567D01*
X922290Y469300D01*
X922339Y469276D01*
X922351Y469240D01*
X922399Y469191D01*
X922423Y469142D01*
X922460Y469106D01*
X922569Y468973D01*
X922739Y468657D01*
X922763Y468609D01*
X922824Y468548D01*
X922872Y468427D01*
X922909Y468269D01*
X922957Y468099D01*
X923030Y467832D01*
X923079Y467711D01*
X923103Y466838D01*
X923079Y466668D01*
X923054Y466571D01*
X922957Y466231D01*
X922921Y466098D01*
X922885Y465940D01*
X922836Y465770D01*
X922787Y465722D01*
X922642Y465455D01*
X922581Y465394D01*
X922472Y465261D01*
X922448Y465212D01*
X921999Y464763D01*
X921829Y464666D01*
X921781Y464642D01*
X921708Y464569D01*
X921587Y464496D01*
X921465Y464448D01*
X921441D01*
X921368Y464424D01*
X921162Y464314D01*
X921004Y464254D01*
X920834Y464230D01*
X920652Y464120D01*
X920531Y464072D01*
X920410Y464048D01*
X920204Y464011D01*
X920034Y463938D01*
X919743Y463914D01*
X919573Y463793D01*
X919330Y463769D01*
X919233Y463744D01*
X918978Y463635D01*
X918857Y463587D01*
X918760Y463562D01*
X918554Y463526D01*
X918335Y463429D01*
X918117Y463308D01*
X917984Y463247D01*
X917959Y463198D01*
X917777Y463065D01*
X917729Y463041D01*
X917668Y462980D01*
X917498Y462762D01*
X917474Y462713D01*
X917426Y462665D01*
X917365Y462580D01*
X917280Y462349D01*
X917232Y462155D01*
X917207Y462082D01*
X917183Y461306D01*
X917280Y460991D01*
X917329Y460797D01*
X917377Y460675D01*
X917450Y460602D01*
X917571Y460384D01*
X917826Y460129D01*
X917996Y460032D01*
X918117Y459911D01*
X918238Y459838D01*
X918335Y459814D01*
X918651Y459668D01*
X918821Y459644D01*
X918954Y459608D01*
X919100Y459584D01*
X919597Y459596D01*
X919912Y459571D01*
X920010Y459596D01*
X920179Y459668D01*
X920349Y459693D01*
X920446Y459717D01*
X920580Y459778D01*
X920737Y459838D01*
X920859Y459887D01*
X920931Y459959D01*
X921198Y460105D01*
X921332Y460238D01*
X921477Y460336D01*
X921502Y460384D01*
X921671Y460554D01*
X921768Y460724D01*
X921793Y460772D01*
X921902Y460882D01*
X921963Y461039D01*
X921987Y461136D01*
X922096Y461391D01*
X922169Y461682D01*
X922193Y461828D01*
X922229Y462204D01*
X922254Y462301D01*
X922339Y462361D01*
X923164Y462386D01*
X923333Y462361D01*
X923418Y462252D01*
X923406Y462022D01*
X923382Y461803D01*
X923358Y461609D01*
X923333Y461342D01*
X923309Y461221D01*
X923261Y461100D01*
X923164Y460833D01*
X923139Y460736D01*
X923103Y460578D01*
X923006Y460433D01*
X922909Y460263D01*
X922836Y460093D01*
X922812Y460044D01*
X922763Y459996D01*
X922642Y459826D01*
X922618Y459778D01*
X922508Y459668D01*
X922399Y459535D01*
X922375Y459486D01*
X922339Y459450D01*
X922290Y459426D01*
X922242Y459377D01*
X922193Y459353D01*
X922120Y459280D01*
X921902Y459110D01*
X921853Y459086D01*
X921781Y459013D01*
X921732Y458989D01*
X921684Y458941D01*
X921635Y458916D01*
X921417Y458819D01*
X921368Y458771D01*
X921320Y458746D01*
X921283Y458710D01*
X920907Y458625D01*
X920786Y458577D01*
X920543Y458552D01*
X920288Y458443D01*
X920167Y458419D01*
X918894Y458431D01*
X918675Y458528D01*
X918530Y458552D01*
X918360Y458577D01*
X918202Y458637D01*
X918020Y458674D01*
X917875Y458771D01*
X917790Y458831D01*
X917656Y458868D01*
X917535Y458916D01*
X917413Y459038D01*
X917195Y459159D01*
X917025Y459329D01*
X916977Y459353D01*
X916916Y459414D01*
X916843Y459535D01*
X916674Y459705D01*
X916601Y459826D01*
X916431Y460069D01*
X916407Y460117D01*
X916188Y460578D01*
X916140Y460748D01*
X916091Y460942D01*
X916043Y461063D01*
X916019Y461330D01*
X915994Y461403D01*
X915970Y461670D01*
X915946Y461743D01*
X915958Y462289D01*
X915994Y462519D01*
X916043Y462713D01*
X916103Y462919D01*
X916164Y463198D01*
X916188Y463296D01*
X916261Y463417D01*
X916431Y463732D01*
X916528Y463829D01*
X916601Y463951D01*
X916649Y463999D01*
X916674Y464048D01*
X916831Y464205D01*
X916880Y464230D01*
X917074Y464424D01*
X917244Y464521D01*
X917292Y464545D01*
X917365Y464618D01*
X917450Y464678D01*
X917571Y464727D01*
X917705Y464763D01*
X917850Y464860D01*
X918008Y464921D01*
X918214Y464957D01*
X918396Y465067D01*
X918517Y465115D01*
X918615Y465139D01*
X918845Y465176D01*
X919015Y465248D01*
X919233Y465273D01*
X919354Y465321D01*
X919524Y465418D01*
X919706Y465406D01*
X919840Y465418D01*
X919985Y465515D01*
X920131Y465540D01*
X920264Y465576D01*
X920422Y465637D01*
X920519Y465661D01*
X920774Y465770D01*
X920931Y465831D01*
X921186Y465940D01*
X921417Y466098D01*
X921465Y466122D01*
X921502Y466158D01*
X921526Y466207D01*
X921671Y466352D01*
X921878Y466777D01*
X921902Y466898D01*
X921950Y467189D01*
X921938Y467614D01*
X921914Y467711D01*
X921878Y467820D01*
X921793Y468051D01*
X921696Y468269D01*
X921611Y468354D01*
X921502Y468488D01*
X921477Y468536D01*
X921441Y468572D01*
X921271Y468694D01*
X921223Y468718D01*
X921077Y468863D01*
X920980Y468888D01*
X920665Y469033D01*
X920592Y469058D01*
X920567Y469033D01*
X920471Y469058D01*
X920349Y469106D01*
X919257Y469130D01*
X919136Y469082D01*
X918894Y469058D01*
X918772Y469009D01*
X918711Y468948D01*
X918445Y468851D01*
X918311Y468742D01*
X918141Y468645D01*
X918105Y468609D01*
X917984Y468439D01*
X917959Y468390D01*
X917862Y468293D01*
X917765Y468124D01*
X917705Y467966D01*
X917583Y467772D01*
X917547Y467614D01*
X917523Y467444D01*
X917498Y467347D01*
X917450Y467226D01*
X917426Y466935D01*
X917317Y466825D01*
X916589Y466801D01*
X916346Y466825D01*
X916261Y466910D01*
X916237Y467007D01*
X916261Y467080D01*
X916285Y467274D01*
X916382Y467808D01*
X916407Y467978D01*
X916577Y468342D01*
X916601Y468439D01*
X916649Y468609D01*
X916746Y468706D01*
X916868Y468924D01*
X916916Y468973D01*
X916940Y469021D01*
X917013Y469094D01*
X917086Y469215D01*
X917219Y469349D01*
X917268Y469373D01*
X917304Y469409D01*
X917329Y469458D01*
X917389Y469519D01*
X917559Y469616D01*
X917680Y469737D01*
X917729Y469761D01*
X917765Y469798D01*
X917996Y469883D01*
X918117Y469955D01*
X918251Y470040D01*
X918408Y470077D01*
X918530Y470125D01*
X918821Y470174D01*
X919039Y470271D01*
X920398Y470295D01*
X920616Y470198D01*
D02*
G37*
G36*
X979256Y470271D02*
X979390Y470210D01*
X979572Y470174D01*
X979778Y470113D01*
X979875Y470089D01*
X980033Y470052D01*
X980227Y470004D01*
X980275Y469955D01*
X980324Y469931D01*
X980360Y469895D01*
X980518Y469834D01*
X980639Y469785D01*
X980736Y469688D01*
X980821Y469628D01*
X980979Y469567D01*
X981064Y469482D01*
X981197Y469373D01*
X981246Y469349D01*
X981440Y469155D01*
X981488Y469130D01*
X981573Y469021D01*
X981597Y468973D01*
X981658Y468912D01*
X981706Y468888D01*
X981743Y468851D01*
X981864Y468633D01*
X981961Y468536D01*
X982131Y468221D01*
X982204Y468148D01*
X982471Y467638D01*
X982531Y467481D01*
X982568Y467347D01*
X982689Y467080D01*
X982726Y466995D01*
X982762Y466789D01*
X982786Y466692D01*
X982847Y466486D01*
X982895Y466292D01*
X982920Y466146D01*
X982944Y466049D01*
X982968Y465855D01*
X983005Y465236D01*
X983029Y465164D01*
X983017Y463696D01*
X982980Y463101D01*
X982956Y462932D01*
X982883Y462519D01*
X982859Y462422D01*
X982798Y462216D01*
X982762Y462058D01*
X982738Y461888D01*
X982689Y461694D01*
X982604Y461536D01*
X982556Y461415D01*
X982519Y461233D01*
X982422Y461015D01*
X982301Y460797D01*
X982180Y460530D01*
X981985Y460166D01*
X981816Y459947D01*
X981792Y459899D01*
X981670Y459778D01*
X981597Y459656D01*
X981512Y459571D01*
X981464Y459547D01*
X981403Y459486D01*
X981379Y459438D01*
X981270Y459329D01*
X981221Y459305D01*
X981161Y459244D01*
X981015Y459123D01*
X980870Y459025D01*
X980845Y458977D01*
X980687Y458892D01*
X980336Y458710D01*
X980081Y458649D01*
X979911Y458577D01*
X979596Y458552D01*
X979450Y458455D01*
X978892Y458431D01*
X978116D01*
X977910Y458492D01*
X977788Y458540D01*
X977606Y458577D01*
X977315Y458649D01*
X977145Y458698D01*
X977073Y458771D01*
X976854Y458892D01*
X976684Y458941D01*
X976587Y459038D01*
X976369Y459159D01*
X976151Y459377D01*
X976102Y459402D01*
X976066Y459438D01*
X976041Y459486D01*
X975957Y459571D01*
X975872Y459632D01*
X975750Y459802D01*
X975726Y459850D01*
X975629Y459947D01*
X975459Y460263D01*
X975411Y460311D01*
X975314Y460481D01*
X975204Y460736D01*
X975083Y460930D01*
X975023Y461185D01*
X974974Y461306D01*
X974913Y461440D01*
X974853Y461597D01*
X974828Y461767D01*
X974804Y461840D01*
X974780Y462082D01*
X974828Y462131D01*
X974853Y462179D01*
X974913Y462216D01*
X975047Y462301D01*
X975241Y462349D01*
X975399Y462386D01*
X975593Y462434D01*
X975714Y462556D01*
X975908Y462580D01*
X975981Y462507D01*
X976017Y462325D01*
X976041Y462228D01*
X976163Y461840D01*
X976199Y461706D01*
X976236Y461524D01*
X976333Y461306D01*
X976393Y461221D01*
X976502Y460918D01*
X976551Y460869D01*
X976575Y460821D01*
X976624Y460772D01*
X976721Y460602D01*
X976866Y460457D01*
X976891Y460408D01*
X977024Y460275D01*
X977073Y460251D01*
X977242Y460081D01*
X977291Y460057D01*
X977412Y459984D01*
X977461Y459959D01*
X977546Y459875D01*
X977776Y459790D01*
X978140Y459620D01*
X978916Y459596D01*
X978989Y459571D01*
X979208Y459596D01*
X979341Y459656D01*
X979523Y459693D01*
X979729Y459778D01*
X979960Y459863D01*
X979996Y459899D01*
X980142Y460020D01*
X980299Y460081D01*
X980493Y460275D01*
X980542Y460299D01*
X980603Y460360D01*
X980627Y460408D01*
X980675Y460457D01*
X980700Y460505D01*
X980748Y460554D01*
X980918Y460772D01*
X980942Y460821D01*
X981015Y460894D01*
X981076Y460979D01*
X981161Y461209D01*
X981282Y461379D01*
X981318Y461464D01*
X981355Y461597D01*
X981476Y461985D01*
X981537Y462192D01*
X981573Y462349D01*
X981597Y462446D01*
X981622Y462689D01*
X981670Y462859D01*
X981694Y462932D01*
X981719Y463271D01*
X981743Y463344D01*
X981767Y464824D01*
X981792Y464897D01*
X981731Y465370D01*
X981706Y465637D01*
X981682Y465855D01*
X981634Y466049D01*
X981597Y466231D01*
X981561Y466559D01*
X981464Y466801D01*
X981367Y467068D01*
X981330Y467226D01*
X981282Y467347D01*
X981258Y467396D01*
X981161Y467493D01*
X981136Y467590D01*
X981039Y467808D01*
X980870Y468027D01*
X980845Y468075D01*
X980760Y468160D01*
X980651Y468293D01*
X980627Y468342D01*
X980591Y468378D01*
X980542Y468402D01*
X980493Y468451D01*
X980445Y468475D01*
X980433Y468512D01*
X980372Y468572D01*
X980105Y468718D01*
X980033Y468791D01*
X979948Y468851D01*
X979790Y468912D01*
X979620Y468985D01*
X979450Y469009D01*
X979232Y469106D01*
X978164Y469130D01*
X978043Y469082D01*
X978007Y469045D01*
X977885Y468997D01*
X977728Y468960D01*
X977485Y468863D01*
X977437Y468815D01*
X977388Y468791D01*
X977339Y468742D01*
X977218Y468669D01*
X977158Y468609D01*
X977133Y468560D01*
X977048Y468475D01*
X977000Y468451D01*
X976915Y468342D01*
X976891Y468293D01*
X976794Y468196D01*
X976648Y467929D01*
X976575Y467857D01*
X976478Y467687D01*
X976430Y467517D01*
X976296Y467262D01*
X976260Y467129D01*
X976211Y467007D01*
X976187Y466813D01*
X976139Y466692D01*
X976102Y466656D01*
X975957Y466631D01*
X975653Y466765D01*
X975471Y466801D01*
X975374Y466825D01*
X975253Y466874D01*
X975204Y466923D01*
X974986Y467044D01*
X974926Y467104D01*
X974901Y467226D01*
X974950Y467347D01*
X975010Y467432D01*
X975047Y467565D01*
X975071Y467663D01*
X975119Y467832D01*
X975217Y468002D01*
X975253Y468087D01*
X975338Y468318D01*
X975435Y468463D01*
X975556Y468681D01*
X975581Y468730D01*
X975702Y468851D01*
X975799Y469021D01*
X975823Y469070D01*
X975860Y469082D01*
X976017Y469240D01*
X976041Y469288D01*
X976211Y469409D01*
X976236Y469458D01*
X976296Y469519D01*
X976515Y469640D01*
X976612Y469737D01*
X976975Y469931D01*
X977109Y470016D01*
X977242Y470052D01*
X977461Y470149D01*
X977728Y470174D01*
X977800Y470198D01*
X977849Y470222D01*
X977897Y470271D01*
X979159Y470295D01*
X979256Y470271D01*
D02*
G37*
G36*
X928938D02*
X929108Y470198D01*
X929302Y470174D01*
X929459Y470113D01*
X929738Y470052D01*
X929908Y470004D01*
X930078Y469883D01*
X930321Y469785D01*
X930369Y469761D01*
X930442Y469688D01*
X930709Y469543D01*
X930794Y469458D01*
X930927Y469349D01*
X930976Y469324D01*
X931012Y469288D01*
X931036Y469240D01*
X931073Y469203D01*
X931121Y469179D01*
X931255Y469045D01*
X931279Y468997D01*
X931449Y468827D01*
X931546Y468657D01*
X931643Y468560D01*
X931788Y468293D01*
X931910Y468124D01*
X932152Y467663D01*
X932237Y467456D01*
X932274Y467323D01*
X932419Y467007D01*
X932443Y466910D01*
X932468Y466741D01*
X932492Y466644D01*
X932528Y466534D01*
X932553Y466437D01*
X932613Y466158D01*
X932638Y466086D01*
X932686Y465576D01*
X932710Y465115D01*
X932735Y465042D01*
X932722Y464812D01*
X932735Y464314D01*
X932710Y464217D01*
X932735Y464145D01*
X932710Y463708D01*
X932686Y463320D01*
X932662Y463004D01*
X932638Y462835D01*
X932613Y462738D01*
X932589Y462568D01*
X932565Y462471D01*
X932504Y462264D01*
X932443Y461985D01*
X932419Y461815D01*
X932395Y461718D01*
X932346Y461597D01*
X932310Y461561D01*
X932262Y461440D01*
X932225Y461306D01*
X932201Y461209D01*
X932104Y460991D01*
X932007Y460821D01*
X931861Y460505D01*
X931764Y460336D01*
X931691Y460166D01*
X931619Y460093D01*
X931497Y459923D01*
X931473Y459875D01*
X931328Y459729D01*
X931303Y459680D01*
X931085Y459462D01*
X931024Y459377D01*
X930976Y459353D01*
X930806Y459183D01*
X930636Y459086D01*
X930539Y458989D01*
X930078Y458746D01*
X930042Y458710D01*
X929945Y458686D01*
X929787Y458649D01*
X929617Y458577D01*
X929326Y458552D01*
X929253Y458528D01*
X929205Y458504D01*
X929156Y458455D01*
X927870Y458431D01*
X927700Y458455D01*
X927494Y458540D01*
X927288Y458577D01*
X927191Y458601D01*
X927021Y458649D01*
X926827Y458698D01*
X926730Y458795D01*
X926645Y458856D01*
X926512Y458892D01*
X926390Y458941D01*
X926318Y459013D01*
X926099Y459135D01*
X925905Y459329D01*
X925856Y459353D01*
X925747Y459462D01*
X925687Y459547D01*
X925638Y459571D01*
X925565Y459644D01*
X925456Y459778D01*
X925432Y459826D01*
X925335Y459923D01*
X925165Y460238D01*
X925129Y460275D01*
X925032Y460420D01*
X924971Y460578D01*
X924910Y460712D01*
X924813Y460857D01*
X924765Y460979D01*
X924728Y461112D01*
X924704Y461209D01*
X924571Y461512D01*
X924534Y461718D01*
X924510Y461815D01*
X924462Y461985D01*
X924534Y462155D01*
X924668Y462264D01*
X924825Y462325D01*
X924922Y462349D01*
X925104Y462386D01*
X925201Y462410D01*
X925323Y462458D01*
X925420Y462556D01*
X925614Y462580D01*
X925662Y462531D01*
X925723Y462276D01*
X925832Y461925D01*
X925881Y461731D01*
X925917Y461597D01*
X925941Y461500D01*
X926039Y461282D01*
X926099Y461197D01*
X926208Y460894D01*
X926305Y460797D01*
X926427Y460578D01*
X926597Y460408D01*
X926657Y460323D01*
X926706Y460299D01*
X926754Y460251D01*
X926803Y460226D01*
X926815Y460190D01*
X926876Y460129D01*
X927094Y460008D01*
X927191Y459911D01*
X927239Y459887D01*
X927276Y459850D01*
X927409Y459814D01*
X927773Y459644D01*
X927846Y459620D01*
X928598Y459596D01*
X928695Y459571D01*
X928865Y459596D01*
X928998Y459632D01*
X929156Y459693D01*
X929326Y459717D01*
X929362Y459753D01*
X929520Y459814D01*
X929641Y459863D01*
X929690Y459887D01*
X929763Y459959D01*
X930030Y460105D01*
X930066Y460141D01*
X930090Y460190D01*
X930151Y460251D01*
X930199Y460275D01*
X930333Y460408D01*
X930357Y460457D01*
X930503Y460602D01*
X930600Y460772D01*
X930697Y460869D01*
X930721Y460918D01*
X930757Y460954D01*
X930842Y461185D01*
X930939Y461330D01*
X931000Y461415D01*
X931036Y461549D01*
X931158Y461937D01*
X931218Y462143D01*
X931279Y462398D01*
X931328Y462738D01*
X931364Y462871D01*
X931388Y462968D01*
X931425Y463392D01*
X931449Y463465D01*
X931473Y465091D01*
X931449Y465164D01*
X931425Y465430D01*
X931400Y465600D01*
X931376Y465843D01*
X931328Y466037D01*
X931303Y466110D01*
X931279Y466450D01*
X931230Y466619D01*
X931133Y466862D01*
X931073Y467020D01*
X931036Y467202D01*
X930976Y467359D01*
X930866Y467493D01*
X930830Y467578D01*
X930794Y467711D01*
X930697Y467857D01*
X930527Y468075D01*
X930503Y468124D01*
X930381Y468245D01*
X930357Y468293D01*
X930248Y468402D01*
X930199Y468427D01*
X929993Y468633D01*
X929835Y468694D01*
X929787Y468742D01*
X929738Y468766D01*
X929666Y468839D01*
X929472Y468912D01*
X929338Y468973D01*
X929156Y469009D01*
X928938Y469106D01*
X927870Y469130D01*
X927700Y469058D01*
X927664Y469021D01*
X927531Y468985D01*
X927361Y468936D01*
X927142Y468839D01*
X927070Y468766D01*
X926948Y468694D01*
X926681Y468427D01*
X926572Y468293D01*
X926548Y468245D01*
X926475Y468172D01*
X926354Y467954D01*
X926293Y467893D01*
X926196Y467747D01*
X926160Y467614D01*
X925966Y467202D01*
X925929Y467068D01*
X925893Y466886D01*
X925844Y466716D01*
X925784Y466656D01*
X925687Y466631D01*
X925590Y466656D01*
X925335Y466765D01*
X925177Y466801D01*
X925080Y466825D01*
X924959Y466874D01*
X924910Y466898D01*
X924862Y466947D01*
X924692Y467044D01*
X924643Y467068D01*
X924607Y467104D01*
X924583Y467202D01*
X924631Y467323D01*
X924716Y467456D01*
X924777Y467735D01*
X924850Y467905D01*
X924947Y468075D01*
X924995Y468196D01*
X925020Y468293D01*
X925117Y468439D01*
X925238Y468657D01*
X925262Y468706D01*
X925335Y468779D01*
X925347Y468791D01*
X925359Y468803D01*
X925480Y469021D01*
X925565Y469106D01*
X925614Y469130D01*
X925675Y469191D01*
X925699Y469240D01*
X925784Y469324D01*
X925832Y469349D01*
X926026Y469543D01*
X926196Y469640D01*
X926245Y469664D01*
X926378Y469798D01*
X926536Y469858D01*
X926657Y469907D01*
X926706Y469955D01*
X926791Y470016D01*
X926924Y470052D01*
X927094Y470101D01*
X927142Y470149D01*
X927458Y470174D01*
X927603Y470271D01*
X928841Y470295D01*
X928938Y470271D01*
D02*
G37*
G36*
X952399D02*
X952520Y470198D01*
X952811Y470174D01*
X952969Y470089D01*
X953151Y470052D01*
X953563Y469858D01*
X953733Y469785D01*
X953782Y469761D01*
X953854Y469688D01*
X954024Y469591D01*
X954073Y469543D01*
X954097D01*
X954109Y469531D01*
X954133Y469482D01*
X954315Y469349D01*
X954364Y469324D01*
X954837Y468851D01*
X954861Y468803D01*
X954983Y468681D01*
X955079Y468512D01*
X955177Y468415D01*
X955237Y468330D01*
X955298Y468172D01*
X955371Y468099D01*
X955395Y468051D01*
X955443Y468002D01*
X955516Y467808D01*
X955565Y467687D01*
X955710Y467420D01*
X955747Y467286D01*
X955795Y467165D01*
X955832Y467007D01*
X955892Y466874D01*
X955941Y466753D01*
X955965Y466656D01*
X955989Y466510D01*
X956038Y466268D01*
X956062Y466171D01*
X956111Y465928D01*
X956147Y465697D01*
X956171Y465625D01*
X956196Y465042D01*
X956220Y464969D01*
X956208Y463502D01*
X956171Y463029D01*
X956147Y462932D01*
X956098Y462762D01*
X956074Y462519D01*
X956002Y462276D01*
X955977Y462179D01*
X955953Y462010D01*
X955844Y461755D01*
X955783Y461597D01*
X955710Y461355D01*
X955650Y461197D01*
X955553Y461051D01*
X955492Y460894D01*
X955443Y460772D01*
X955395Y460724D01*
X955225Y460408D01*
X955128Y460311D01*
X955007Y460141D01*
X954983Y460093D01*
X954922Y460032D01*
X954813Y459899D01*
X954788Y459850D01*
X954667Y459729D01*
X954643Y459680D01*
X954509Y459547D01*
X954461Y459523D01*
X954291Y459353D01*
X954242Y459329D01*
X954097Y459183D01*
X953879Y459062D01*
X953806Y458989D01*
X953587Y458868D01*
X953430Y458807D01*
X953284Y458710D01*
X953151Y458674D01*
X953054Y458649D01*
X952884Y458577D01*
X952617Y458552D01*
X952544Y458528D01*
X952496Y458504D01*
X952447Y458455D01*
X951137Y458431D01*
X950785Y458540D01*
X950494Y458613D01*
X950215Y458674D01*
X950094Y458722D01*
X950021Y458795D01*
X949973Y458819D01*
X949936Y458856D01*
X949803Y458892D01*
X949681Y458941D01*
X949633Y458989D01*
X949584Y459013D01*
X949536Y459062D01*
X949487Y459086D01*
X949305Y459195D01*
X949281Y459244D01*
X949148Y459353D01*
X949099Y459377D01*
X948747Y459729D01*
X948723Y459778D01*
X948687Y459790D01*
X948577Y459899D01*
X948480Y460069D01*
X948444Y460105D01*
X948335Y460238D01*
X948311Y460287D01*
X948214Y460433D01*
X948189Y460481D01*
X948153Y460493D01*
X948080Y460615D01*
X947995Y460845D01*
X947947Y460894D01*
X947922Y460942D01*
X947886Y460979D01*
X947801Y461209D01*
X947668Y461512D01*
X947619Y461634D01*
X947559Y461888D01*
X947510Y462082D01*
X947389Y462471D01*
X947364Y462543D01*
X947340Y462786D01*
X947316Y462956D01*
X947292Y463198D01*
X947267Y463271D01*
X947243Y463587D01*
X947219Y463975D01*
X947195Y464048D01*
X947207Y464691D01*
X947231Y464885D01*
X947255Y465346D01*
X947280Y465467D01*
X947304Y465612D01*
X947340Y465964D01*
X947364Y466134D01*
X947389Y466231D01*
X947498Y466583D01*
X947546Y466777D01*
X947583Y466935D01*
X947607Y467032D01*
X947643Y467141D01*
X947765Y467408D01*
X947813Y467529D01*
X947850Y467687D01*
X947947Y467832D01*
X948007Y467917D01*
X948092Y468148D01*
X948189Y468245D01*
X948311Y468463D01*
X948432Y468585D01*
X948553Y468803D01*
X948747Y468997D01*
X948772Y469045D01*
X948808Y469082D01*
X948856Y469106D01*
X948990Y469240D01*
X949123Y469349D01*
X949172Y469373D01*
X949317Y469519D01*
X949584Y469664D01*
X949657Y469737D01*
X949742Y469798D01*
X949973Y469883D01*
X950021Y469931D01*
X950154Y470016D01*
X950409Y470077D01*
X950603Y470125D01*
X950725Y470174D01*
X950894Y470198D01*
X951064Y470271D01*
X952229Y470295D01*
X952399Y470271D01*
D02*
G37*
%LPC*%
G36*
X960478Y468669D02*
X960356Y468621D01*
X960162Y468597D01*
X960029Y468560D01*
X959835Y468439D01*
X959701Y468402D01*
X959556Y468257D01*
X959507Y468233D01*
X959459Y468184D01*
X959410Y468160D01*
X959301Y468051D01*
X959204Y467881D01*
X959034Y467614D01*
X959010Y467517D01*
X958986Y467444D01*
X958961Y466935D01*
X959010Y466401D01*
X959107Y466183D01*
X959252Y465916D01*
X959337Y465831D01*
X959447Y465697D01*
X959459Y465685D01*
X959556Y465612D01*
X959604Y465588D01*
X959677Y465515D01*
X960041Y465321D01*
X960187Y465297D01*
X960284Y465273D01*
X960453Y465200D01*
X963753Y465176D01*
X963850Y465200D01*
X963911Y465261D01*
X963935Y468560D01*
X963850Y468645D01*
X960478Y468669D01*
D02*
G37*
G36*
X951380Y469130D02*
X951088Y469082D01*
X950967Y469033D01*
X950834Y468973D01*
X950676Y468912D01*
X950579Y468888D01*
X950458Y468839D01*
X950409Y468791D01*
X950142Y468645D01*
X949973Y468475D01*
X949924Y468451D01*
X949524Y468051D01*
X949463Y467966D01*
X949366Y467820D01*
X949257Y467687D01*
X949232Y467638D01*
X949160Y467468D01*
X949111Y467420D01*
X949026Y467286D01*
X948966Y467032D01*
X948796Y466668D01*
X948772Y466522D01*
X948747Y466425D01*
X948723Y466255D01*
X948699Y466158D01*
X948650Y466037D01*
X948626Y465794D01*
X948602Y465697D01*
X948565Y465564D01*
X948529Y465285D01*
X948505Y464678D01*
X948529Y463417D01*
X948553Y463320D01*
X948577Y463077D01*
X948602Y462980D01*
X948626Y462810D01*
X948650Y462713D01*
X948699Y462543D01*
X948723Y462446D01*
X948747Y462276D01*
X948772Y462179D01*
X948856Y461900D01*
X948953Y461658D01*
X948990Y461524D01*
X949038Y461403D01*
X949063Y461355D01*
X949111Y461306D01*
X949208Y461136D01*
X949257Y461015D01*
X949354Y460918D01*
X949451Y460748D01*
X949524Y460675D01*
X949548Y460627D01*
X949584Y460615D01*
X949766Y460433D01*
X949790Y460384D01*
X949827Y460372D01*
X949948Y460251D01*
X949997Y460226D01*
X950033Y460190D01*
X950057Y460141D01*
X950312Y460008D01*
X950361Y459959D01*
X950409Y459935D01*
X950470Y459875D01*
X950628Y459814D01*
X950797Y459765D01*
X951016Y459668D01*
X951137Y459620D01*
X951889Y459596D01*
X951986Y459571D01*
X952156Y459596D01*
X952290Y459632D01*
X952447Y459693D01*
X952617Y459717D01*
X952653Y459753D01*
X952884Y459838D01*
X953005Y459887D01*
X953102Y459984D01*
X953321Y460105D01*
X953369Y460129D01*
X953381Y460166D01*
X953490Y460251D01*
X953539Y460275D01*
X953587Y460323D01*
X953709Y460469D01*
X953757Y460493D01*
X953866Y460627D01*
X953927Y460712D01*
X954012Y460772D01*
X954133Y460991D01*
X954218Y461076D01*
X954315Y461221D01*
X954352Y461355D01*
X954412Y461488D01*
X954534Y461682D01*
X954558Y461779D01*
X954570Y461791D01*
Y461815D01*
X954752Y462410D01*
X954776Y462507D01*
X954800Y462628D01*
X954825Y462822D01*
X954849Y462968D01*
X954885Y463198D01*
X954910Y463271D01*
X954934Y463708D01*
X954958Y463781D01*
X954946Y464496D01*
X954922Y465151D01*
X954898Y465248D01*
X954849Y465540D01*
X954788Y466061D01*
X954764Y466304D01*
X954679Y466510D01*
X954631Y466631D01*
X954606Y466729D01*
X954570Y466886D01*
X954521Y467080D01*
X954412Y467238D01*
X954352Y467396D01*
X954327Y467493D01*
X954206Y467663D01*
X954085Y467881D01*
X953939Y468027D01*
X953915Y468075D01*
X953721Y468269D01*
X953697Y468318D01*
X953648Y468366D01*
X953515Y468475D01*
X953466Y468500D01*
X953333Y468633D01*
X953175Y468694D01*
X953102Y468766D01*
X953054Y468791D01*
X953005Y468839D01*
X952920Y468876D01*
X952763Y468912D01*
X952593Y469033D01*
X952374Y469058D01*
X952253Y469106D01*
X951380Y469130D01*
D02*
G37*
%LPD*%
D11*
X1035310Y560930D02*
G03*
X1035310Y560930I-1000J0D01*
G01*
X1133840Y657140D02*
G03*
X1133840Y657140I-1000J0D01*
G01*
X876030Y658410D02*
G03*
X876030Y658410I-1000J0D01*
G01*
D38*
X961885Y576405D02*
X1026935D01*
X961885D02*
Y611455D01*
X1026935D01*
Y576405D02*
Y611455D01*
X1073140Y447640D02*
Y649640D01*
Y447640D02*
X1164140D01*
Y649640D01*
X1073140D02*
X1164140D01*
X815330Y448910D02*
Y650910D01*
Y448910D02*
X906330D01*
Y650910D01*
X815330D02*
X906330D01*
M02*
