M48
;Layer_Color=9474304
;FILE_FORMAT=4:4
METRIC,LZ
;TYPE=PLATED
T01F00S00C0.2000
T02F00S00C0.2500
T03F00S00C0.3000
T04F00S00C0.7112
T05F00S00C1.0000
%
T01
X0096266Y0045593
X0097155Y00504444
X00988659Y0050419
X01004202Y00492026
X01053524Y0049149
X010668Y00502823
X01066337Y00537546
X01065621Y00560218
X0106299Y0058293
Y0060706
X01065276Y00645668
X0106934Y00653796
X01044448Y00670814
X01035812Y00665734
X01027684Y00661162
X00966206Y0052438
X00954532Y00506476
X0091821Y00535686
T02
X01053816Y00514338
T03
X0107823Y0060833
T04
X00991362Y00627888
T05
X0084963Y0049911
X0087503
Y0052451
X0084963
Y0054991
X0087503
Y0057531
X0084963
Y0060071
X0087503
X0110744Y0059944
Y0057404
Y0054864
Y0052324
Y0049784
X0113284
Y0052324
Y0054864
Y0057404
Y0059944
M30
