G04*
G04 #@! TF.GenerationSoftware,Altium Limited,Altium Designer,24.5.2 (23)*
G04*
G04 Layer_Physical_Order=2*
G04 Layer_Color=16711680*
%FSLAX44Y44*%
%MOMM*%
G71*
G04*
G04 #@! TF.SameCoordinates,334194BA-0611-49C7-9BF9-9A22E77FB9F2*
G04*
G04*
G04 #@! TF.FilePolarity,Positive*
G04*
G01*
G75*
%ADD24C,0.5000*%
%ADD25C,0.2540*%
%ADD26C,1.5080*%
%ADD27R,1.5080X1.5080*%
%ADD28C,0.5000*%
%ADD29C,0.4000*%
%ADD30C,1.0000*%
%ADD31R,0.9144X1.4478*%
G04:AMPARAMS|DCode=32|XSize=3.24mm|YSize=1.31mm|CornerRadius=0.0983mm|HoleSize=0mm|Usage=FLASHONLY|Rotation=180.000|XOffset=0mm|YOffset=0mm|HoleType=Round|Shape=RoundedRectangle|*
%AMROUNDEDRECTD32*
21,1,3.2400,1.1135,0,0,180.0*
21,1,3.0435,1.3100,0,0,180.0*
1,1,0.1965,-1.5218,0.5568*
1,1,0.1965,1.5218,0.5568*
1,1,0.1965,1.5218,-0.5568*
1,1,0.1965,-1.5218,-0.5568*
%
%ADD32ROUNDEDRECTD32*%
G04:AMPARAMS|DCode=33|XSize=0.93mm|YSize=1.31mm|CornerRadius=0.0698mm|HoleSize=0mm|Usage=FLASHONLY|Rotation=180.000|XOffset=0mm|YOffset=0mm|HoleType=Round|Shape=RoundedRectangle|*
%AMROUNDEDRECTD33*
21,1,0.9300,1.1705,0,0,180.0*
21,1,0.7905,1.3100,0,0,180.0*
1,1,0.1395,-0.3953,0.5853*
1,1,0.1395,0.3953,0.5853*
1,1,0.1395,0.3953,-0.5853*
1,1,0.1395,-0.3953,-0.5853*
%
%ADD33ROUNDEDRECTD33*%
%ADD34C,0.3000*%
G36*
X1162549Y674734D02*
X1162549Y448319D01*
X817381D01*
Y675630D01*
X1041242Y675631D01*
X1041262Y675601D01*
X1041631Y674361D01*
X1040633Y673363D01*
X1039948Y671709D01*
Y669919D01*
X1040062Y669644D01*
X1038985Y668925D01*
X1038361Y669549D01*
X1036707Y670234D01*
X1034917D01*
X1033263Y669549D01*
X1031997Y668283D01*
X1031312Y666629D01*
Y665694D01*
X1030806Y665357D01*
X1030042Y665056D01*
X1028579Y665662D01*
X1026789D01*
X1025135Y664977D01*
X1023869Y663711D01*
X1023184Y662057D01*
Y660267D01*
X1023869Y658613D01*
X1025135Y657347D01*
X1026789Y656662D01*
X1027469D01*
X1053886Y630245D01*
Y596320D01*
X1054140Y595044D01*
X1054863Y593963D01*
X1059656Y589169D01*
Y585960D01*
X1059175Y585479D01*
X1058490Y583825D01*
Y582035D01*
X1058681Y581574D01*
X1057975Y580518D01*
X985931D01*
X975195Y591254D01*
X973706Y592249D01*
X971951Y592598D01*
X884570D01*
Y610250D01*
X865490D01*
Y592598D01*
X861503D01*
X857990Y596111D01*
X858520Y597028D01*
X859170Y599454D01*
Y601966D01*
X858520Y604392D01*
X857264Y606568D01*
X855488Y608344D01*
X853312Y609600D01*
X850886Y610250D01*
X848374D01*
X845948Y609600D01*
X843772Y608344D01*
X841996Y606568D01*
X840740Y604392D01*
X840090Y601966D01*
Y599454D01*
X840740Y597028D01*
X841996Y594852D01*
X843772Y593076D01*
X845948Y591820D01*
X848374Y591170D01*
X849954D01*
X856358Y584766D01*
X857847Y583771D01*
X859602Y583422D01*
X867854D01*
X868380Y582152D01*
X867396Y581168D01*
X866140Y578992D01*
X865490Y576566D01*
Y574054D01*
X866140Y571628D01*
X867396Y569452D01*
X869172Y567676D01*
X871348Y566420D01*
X873774Y565770D01*
X876286D01*
X878712Y566420D01*
X880888Y567676D01*
X882664Y569452D01*
X883920Y571628D01*
X884570Y574054D01*
Y576566D01*
X883920Y578992D01*
X882664Y581168D01*
X881680Y582152D01*
X882206Y583422D01*
X943979D01*
X964807Y562594D01*
Y554627D01*
X965016Y553575D01*
X965613Y552683D01*
X966199Y552291D01*
X965847Y551021D01*
X964724D01*
Y532543D01*
X974023D01*
X974368Y532474D01*
X974713Y532543D01*
X977868D01*
Y535698D01*
X977937Y536043D01*
X977868Y536388D01*
Y551021D01*
X977173D01*
X976821Y552291D01*
X977407Y552683D01*
X978003Y553575D01*
X978213Y554627D01*
Y566333D01*
X978003Y567385D01*
X977407Y568277D01*
X976515Y568873D01*
X975462Y569083D01*
X971296D01*
X958130Y582248D01*
X958616Y583422D01*
X970050D01*
X980786Y572686D01*
X982275Y571691D01*
X984031Y571342D01*
X1065890D01*
X1067645Y571691D01*
X1069134Y572686D01*
X1073922Y577474D01*
X1074917Y578962D01*
X1075266Y580718D01*
Y598877D01*
X1081474Y605086D01*
X1081725Y605462D01*
X1082045Y605781D01*
X1082218Y606198D01*
X1082469Y606574D01*
X1082557Y607018D01*
X1082730Y607435D01*
Y607887D01*
X1082818Y608330D01*
X1082730Y608773D01*
Y609225D01*
X1082557Y609642D01*
X1082469Y610086D01*
X1082218Y610462D01*
X1082045Y610879D01*
X1081725Y611199D01*
X1081474Y611574D01*
X1081098Y611825D01*
X1080779Y612145D01*
X1080362Y612318D01*
X1079986Y612569D01*
X1079542Y612657D01*
X1079125Y612830D01*
X1078673D01*
X1078230Y612918D01*
X1077787Y612830D01*
X1077335D01*
X1076917Y612657D01*
X1076474Y612569D01*
X1076098Y612318D01*
X1075681Y612145D01*
X1075361Y611825D01*
X1074986Y611574D01*
X1068361Y604950D01*
X1067285Y605670D01*
X1067490Y606165D01*
Y607955D01*
X1066805Y609609D01*
X1066324Y610090D01*
Y638556D01*
X1066070Y639832D01*
X1066026Y639898D01*
X1066062Y640210D01*
X1066589Y641341D01*
X1067825Y641853D01*
X1069091Y643119D01*
X1069776Y644773D01*
Y645075D01*
X1071046Y645601D01*
X1087612Y629035D01*
Y589280D01*
X1087961Y587524D01*
X1088956Y586036D01*
X1098279Y576712D01*
X1097900Y575296D01*
Y572784D01*
X1098550Y570358D01*
X1099806Y568182D01*
X1101582Y566406D01*
X1103758Y565150D01*
X1106184Y564500D01*
X1108696D01*
X1111122Y565150D01*
X1113298Y566406D01*
X1115074Y568182D01*
X1116330Y570358D01*
X1116980Y572784D01*
Y575296D01*
X1116330Y577722D01*
X1115074Y579898D01*
X1113298Y581674D01*
X1111122Y582930D01*
X1108696Y583580D01*
X1106184D01*
X1104768Y583201D01*
X1096788Y591180D01*
Y597427D01*
X1098058Y597594D01*
X1098550Y595758D01*
X1099806Y593582D01*
X1101582Y591806D01*
X1103758Y590550D01*
X1106184Y589900D01*
X1108696D01*
X1111122Y590550D01*
X1113298Y591806D01*
X1115074Y593582D01*
X1116330Y595758D01*
X1116980Y598184D01*
Y600696D01*
X1116330Y603122D01*
X1115074Y605298D01*
X1113298Y607074D01*
X1111122Y608330D01*
X1108696Y608980D01*
X1106184D01*
X1103758Y608330D01*
X1101582Y607074D01*
X1099806Y605298D01*
X1098550Y603122D01*
X1098058Y601286D01*
X1096788Y601453D01*
Y630936D01*
X1096439Y632692D01*
X1095444Y634180D01*
X1072584Y657040D01*
X1072208Y657291D01*
X1071889Y657611D01*
X1071472Y657784D01*
X1071096Y658035D01*
X1070652Y658123D01*
X1070235Y658296D01*
X1069783D01*
X1069340Y658384D01*
X1068897Y658296D01*
X1068445D01*
X1068027Y658123D01*
X1067584Y658035D01*
X1067208Y657784D01*
X1066791Y657611D01*
X1066471Y657291D01*
X1066096Y657040D01*
X1065845Y656665D01*
X1065525Y656345D01*
X1065352Y655928D01*
X1065101Y655552D01*
X1065013Y655108D01*
X1064840Y654691D01*
Y654239D01*
X1064752Y653796D01*
X1064840Y653353D01*
Y652901D01*
X1065013Y652484D01*
X1065023Y652432D01*
X1063853Y651806D01*
X1058958Y656701D01*
Y659529D01*
X1058704Y660805D01*
X1057981Y661887D01*
X1048948Y670920D01*
Y671709D01*
X1048263Y673363D01*
X1047265Y674361D01*
X1047634Y675601D01*
X1047654Y675631D01*
X1161651Y675632D01*
X1162549Y674734D01*
D02*
G37*
%LPC*%
G36*
X1009628Y635988D02*
X979193D01*
X978029Y635757D01*
X977042Y635098D01*
X976383Y634111D01*
X976152Y632948D01*
Y621813D01*
X976383Y620649D01*
X977042Y619662D01*
X978029Y619003D01*
X979193Y618772D01*
X1009628D01*
X1010791Y619003D01*
X1011778Y619662D01*
X1012437Y620649D01*
X1012668Y621813D01*
Y632948D01*
X1012437Y634111D01*
X1011778Y635098D01*
X1010791Y635757D01*
X1009628Y635988D01*
D02*
G37*
G36*
X1142380Y608980D02*
X1123300D01*
Y589900D01*
X1142380D01*
Y608980D01*
D02*
G37*
G36*
X1134096Y583580D02*
X1131584D01*
X1129158Y582930D01*
X1126982Y581674D01*
X1125206Y579898D01*
X1123950Y577722D01*
X1123300Y575296D01*
Y572784D01*
X1123950Y570358D01*
X1125206Y568182D01*
X1126982Y566406D01*
X1129158Y565150D01*
X1131584Y564500D01*
X1134096D01*
X1136522Y565150D01*
X1138698Y566406D01*
X1140474Y568182D01*
X1141730Y570358D01*
X1142380Y572784D01*
Y575296D01*
X1141730Y577722D01*
X1140474Y579898D01*
X1138698Y581674D01*
X1136522Y582930D01*
X1134096Y583580D01*
D02*
G37*
G36*
X998363Y569083D02*
X990458D01*
X989405Y568873D01*
X988513Y568277D01*
X987916Y567385D01*
X987707Y566333D01*
Y554627D01*
X987916Y553575D01*
X988513Y552683D01*
X989405Y552086D01*
X990458Y551877D01*
X994354D01*
Y550047D01*
X993671Y549703D01*
X993084Y549556D01*
X992130Y550194D01*
X990854Y550448D01*
X989578Y550194D01*
X988496Y549471D01*
X985194Y546169D01*
X984472Y545088D01*
X984218Y543812D01*
Y543163D01*
X984214Y543159D01*
X983492Y542078D01*
X983238Y540802D01*
X983492Y539526D01*
X984214Y538444D01*
X985296Y537721D01*
X986572Y537468D01*
X987848Y537721D01*
X988929Y538444D01*
X989910Y539425D01*
X990632Y540506D01*
X990886Y541782D01*
Y542431D01*
X993084Y544628D01*
X993614Y544553D01*
X994354Y544180D01*
Y543854D01*
X994442Y543411D01*
Y532543D01*
X996172D01*
Y529459D01*
X995557Y528844D01*
X967186D01*
X967101Y528880D01*
X966649D01*
X966206Y528968D01*
X939923D01*
X938168Y528618D01*
X936679Y527624D01*
X923602Y514546D01*
X922607Y513058D01*
X922258Y511302D01*
Y467614D01*
X922607Y465858D01*
X923602Y464370D01*
X935286Y452686D01*
X936774Y451691D01*
X938530Y451342D01*
X962660D01*
X963103Y451430D01*
X963555D01*
X963973Y451603D01*
X964416Y451691D01*
X964792Y451942D01*
X965209Y452115D01*
X965528Y452435D01*
X965904Y452686D01*
X966155Y453061D01*
X966475Y453381D01*
X966648Y453798D01*
X966899Y454174D01*
X966987Y454617D01*
X967160Y455035D01*
Y455487D01*
X967248Y455930D01*
X967160Y456373D01*
Y456825D01*
X966987Y457243D01*
X966899Y457686D01*
X966648Y458062D01*
X966475Y458479D01*
X966155Y458798D01*
X965904Y459174D01*
X965528Y459425D01*
X965209Y459745D01*
X964792Y459918D01*
X964416Y460169D01*
X963973Y460257D01*
X963555Y460430D01*
X963103D01*
X962660Y460518D01*
X940431D01*
X931434Y469515D01*
Y509402D01*
X941824Y519791D01*
X962139D01*
X962625Y518618D01*
X954983Y510976D01*
X953637D01*
X951983Y510291D01*
X950717Y509025D01*
X950032Y507371D01*
Y505581D01*
X950717Y503927D01*
X951983Y502661D01*
X953637Y501976D01*
X955427D01*
X957081Y502661D01*
X958347Y503927D01*
X959032Y505581D01*
Y505595D01*
X968732Y515295D01*
X975890D01*
X976416Y514025D01*
X971335Y508944D01*
X970655D01*
X969001Y508259D01*
X967735Y506993D01*
X967050Y505339D01*
Y503549D01*
X967735Y501895D01*
X969001Y500629D01*
X970655Y499944D01*
X972445D01*
X974099Y500629D01*
X975365Y501895D01*
X976050Y503549D01*
Y504229D01*
X980932Y509111D01*
X985557D01*
X985805Y508615D01*
X985946Y507841D01*
X984844Y506739D01*
X984159Y505085D01*
Y503295D01*
X984844Y501641D01*
X986110Y500375D01*
X987764Y499690D01*
X989554D01*
X991208Y500375D01*
X991689Y500856D01*
X1034158D01*
X1035434Y501110D01*
X1036516Y501833D01*
X1045687Y511004D01*
X1050786D01*
X1051266Y510523D01*
X1052920Y509838D01*
X1054711D01*
X1056365Y510523D01*
X1057630Y511789D01*
X1058316Y513443D01*
Y515233D01*
X1057958Y516096D01*
X1058807Y517366D01*
X1058926D01*
X1060202Y517620D01*
X1061283Y518343D01*
X1068694Y525753D01*
X1069417Y526835D01*
X1069671Y528111D01*
Y535224D01*
X1069728Y535280D01*
X1070337Y536751D01*
Y538342D01*
X1069728Y539812D01*
X1068603Y540937D01*
X1067132Y541546D01*
X1065541D01*
X1064071Y540937D01*
X1062946Y539812D01*
X1062337Y538342D01*
Y536751D01*
X1062946Y535280D01*
X1063003Y535224D01*
Y529492D01*
X1057545Y524034D01*
X1046136D01*
X1045610Y525304D01*
X1067905Y547599D01*
X1068628Y548681D01*
X1068881Y549957D01*
Y557114D01*
X1069436Y557668D01*
X1070121Y559322D01*
Y561113D01*
X1069436Y562766D01*
X1068170Y564032D01*
X1066516Y564717D01*
X1064726D01*
X1063072Y564032D01*
X1061806Y562766D01*
X1061121Y561113D01*
Y559322D01*
X1061806Y557668D01*
X1062213Y557261D01*
Y551338D01*
X1041260Y530384D01*
X1037336D01*
X1036060Y530130D01*
X1034978Y529408D01*
X1027534Y521964D01*
X1003314D01*
X1002828Y523137D01*
X1004004Y524314D01*
X1004999Y525802D01*
X1005348Y527558D01*
Y532543D01*
X1007586D01*
Y551021D01*
X1003530D01*
Y554048D01*
X1003181Y555804D01*
X1002186Y557292D01*
X1001113Y558366D01*
Y566333D01*
X1000903Y567385D01*
X1000307Y568277D01*
X999415Y568873D01*
X998363Y569083D01*
D02*
G37*
G36*
X876286Y559450D02*
X873774D01*
X871348Y558800D01*
X869172Y557544D01*
X867396Y555768D01*
X866140Y553592D01*
X865490Y551166D01*
Y548654D01*
X866140Y546228D01*
X867396Y544052D01*
X869172Y542276D01*
X871348Y541020D01*
X873124Y540544D01*
X872957Y539274D01*
X864981D01*
X858340Y545915D01*
X858520Y546228D01*
X859170Y548654D01*
Y551166D01*
X858520Y553592D01*
X857264Y555768D01*
X855488Y557544D01*
X853312Y558800D01*
X850886Y559450D01*
X848374D01*
X845948Y558800D01*
X843772Y557544D01*
X841996Y555768D01*
X840740Y553592D01*
X840090Y551166D01*
Y548654D01*
X840740Y546228D01*
X841996Y544052D01*
X843772Y542276D01*
X845948Y541020D01*
X848374Y540370D01*
X850886D01*
X853312Y541020D01*
X853624Y541200D01*
X861242Y533582D01*
X862324Y532860D01*
X863600Y532606D01*
X867838D01*
X868364Y531336D01*
X867396Y530368D01*
X866140Y528192D01*
X865490Y525766D01*
Y523254D01*
X866140Y520828D01*
X867396Y518652D01*
X869172Y516876D01*
X871348Y515620D01*
X873774Y514970D01*
X876286D01*
X878712Y515620D01*
X880888Y516876D01*
X882664Y518652D01*
X883920Y520828D01*
X884570Y523254D01*
Y525766D01*
X883920Y528192D01*
X882664Y530368D01*
X881696Y531336D01*
X882222Y532606D01*
X914926D01*
X915661Y531871D01*
X917315Y531186D01*
X919105D01*
X920759Y531871D01*
X922025Y533137D01*
X922710Y534791D01*
Y536581D01*
X922025Y538235D01*
X920759Y539501D01*
X919105Y540186D01*
X917315D01*
X915661Y539501D01*
X915434Y539274D01*
X877103D01*
X876936Y540544D01*
X878712Y541020D01*
X880888Y542276D01*
X882664Y544052D01*
X883920Y546228D01*
X884570Y548654D01*
Y551166D01*
X883920Y553592D01*
X882664Y555768D01*
X880888Y557544D01*
X878712Y558800D01*
X876286Y559450D01*
D02*
G37*
G36*
X1134096Y558180D02*
X1131584D01*
X1129158Y557530D01*
X1126982Y556274D01*
X1125206Y554498D01*
X1123950Y552322D01*
X1123300Y549896D01*
Y547384D01*
X1123950Y544958D01*
X1125206Y542782D01*
X1126982Y541006D01*
X1129158Y539750D01*
X1131584Y539100D01*
X1134096D01*
X1136522Y539750D01*
X1138698Y541006D01*
X1140474Y542782D01*
X1141730Y544958D01*
X1142380Y547384D01*
Y549896D01*
X1141730Y552322D01*
X1140474Y554498D01*
X1138698Y556274D01*
X1136522Y557530D01*
X1134096Y558180D01*
D02*
G37*
G36*
X1108696D02*
X1106184D01*
X1103758Y557530D01*
X1101582Y556274D01*
X1099806Y554498D01*
X1098550Y552322D01*
X1097900Y549896D01*
Y547384D01*
X1098456Y545308D01*
X1064443Y511294D01*
X1063720Y510212D01*
X1063466Y508936D01*
Y505853D01*
X1062985Y505372D01*
X1062300Y503718D01*
Y501928D01*
X1062985Y500274D01*
X1064251Y499008D01*
X1065905Y498323D01*
X1067695D01*
X1069349Y499008D01*
X1070615Y500274D01*
X1071300Y501928D01*
Y503718D01*
X1070615Y505372D01*
X1070134Y505853D01*
Y507555D01*
X1102852Y540273D01*
X1103758Y539750D01*
X1106184Y539100D01*
X1108696D01*
X1111122Y539750D01*
X1113298Y541006D01*
X1115074Y542782D01*
X1116330Y544958D01*
X1116980Y547384D01*
Y549896D01*
X1116330Y552322D01*
X1115074Y554498D01*
X1113298Y556274D01*
X1111122Y557530D01*
X1108696Y558180D01*
D02*
G37*
G36*
X1017270Y565028D02*
X1015514Y564679D01*
X1014026Y563684D01*
X1013031Y562196D01*
X1012682Y560440D01*
X1012702Y560340D01*
Y545270D01*
X1012412Y544836D01*
X1012158Y543560D01*
X1012412Y542284D01*
X1012697Y541857D01*
X1012682Y541782D01*
X1013031Y540026D01*
X1014026Y538538D01*
X1015514Y537543D01*
X1017270Y537194D01*
X1019026Y537543D01*
X1020514Y538538D01*
X1020534Y538558D01*
X1021529Y540046D01*
X1021878Y541802D01*
Y560420D01*
X1021529Y562176D01*
X1020534Y563664D01*
X1020514Y563684D01*
X1019026Y564679D01*
X1017270Y565028D01*
D02*
G37*
G36*
X850886Y534050D02*
X848374D01*
X845948Y533400D01*
X843772Y532144D01*
X841996Y530368D01*
X840740Y528192D01*
X840090Y525766D01*
Y523254D01*
X840740Y520828D01*
X841996Y518652D01*
X843772Y516876D01*
X845948Y515620D01*
X848374Y514970D01*
X850886D01*
X853312Y515620D01*
X855488Y516876D01*
X857264Y518652D01*
X858520Y520828D01*
X859170Y523254D01*
Y525766D01*
X858520Y528192D01*
X857264Y530368D01*
X855488Y532144D01*
X853312Y533400D01*
X850886Y534050D01*
D02*
G37*
G36*
X1134096Y532780D02*
X1131584D01*
X1129158Y532130D01*
X1126982Y530874D01*
X1125206Y529098D01*
X1123950Y526922D01*
X1123300Y524496D01*
Y521984D01*
X1123950Y519558D01*
X1125206Y517382D01*
X1126982Y515606D01*
X1129158Y514350D01*
X1131584Y513700D01*
X1134096D01*
X1136522Y514350D01*
X1138698Y515606D01*
X1140474Y517382D01*
X1141730Y519558D01*
X1142380Y521984D01*
Y524496D01*
X1141730Y526922D01*
X1140474Y529098D01*
X1138698Y530874D01*
X1136522Y532130D01*
X1134096Y532780D01*
D02*
G37*
G36*
X876286Y508650D02*
X873774D01*
X871348Y508000D01*
X869172Y506744D01*
X867396Y504968D01*
X866140Y502792D01*
X865490Y500366D01*
Y497854D01*
X866140Y495428D01*
X867396Y493252D01*
X869172Y491476D01*
X871348Y490220D01*
X873774Y489570D01*
X876286D01*
X878712Y490220D01*
X880888Y491476D01*
X882664Y493252D01*
X883920Y495428D01*
X884570Y497854D01*
Y500366D01*
X883920Y502792D01*
X882664Y504968D01*
X880888Y506744D01*
X878712Y508000D01*
X876286Y508650D01*
D02*
G37*
G36*
X850886D02*
X848374D01*
X845948Y508000D01*
X843772Y506744D01*
X841996Y504968D01*
X840740Y502792D01*
X840090Y500366D01*
Y497854D01*
X840740Y495428D01*
X841996Y493252D01*
X843772Y491476D01*
X845948Y490220D01*
X848374Y489570D01*
X850886D01*
X853312Y490220D01*
X855488Y491476D01*
X857264Y493252D01*
X858520Y495428D01*
X859170Y497854D01*
Y500366D01*
X858520Y502792D01*
X857264Y504968D01*
X855488Y506744D01*
X853312Y508000D01*
X850886Y508650D01*
D02*
G37*
G36*
X1134096Y507380D02*
X1131584D01*
X1129158Y506730D01*
X1126982Y505474D01*
X1125206Y503698D01*
X1123950Y501522D01*
X1123300Y499096D01*
Y496584D01*
X1123950Y494158D01*
X1125206Y491982D01*
X1126982Y490206D01*
X1129158Y488950D01*
X1131584Y488300D01*
X1134096D01*
X1136522Y488950D01*
X1138698Y490206D01*
X1140474Y491982D01*
X1141730Y494158D01*
X1142380Y496584D01*
Y499096D01*
X1141730Y501522D01*
X1140474Y503698D01*
X1138698Y505474D01*
X1136522Y506730D01*
X1134096Y507380D01*
D02*
G37*
G36*
X1108696D02*
X1106184D01*
X1103758Y506730D01*
X1101582Y505474D01*
X1099806Y503698D01*
X1098550Y501522D01*
X1097900Y499096D01*
Y496584D01*
X1098550Y494158D01*
X1099806Y491982D01*
X1101582Y490206D01*
X1103758Y488950D01*
X1106184Y488300D01*
X1108696D01*
X1111122Y488950D01*
X1113298Y490206D01*
X1115074Y491982D01*
X1116330Y494158D01*
X1116980Y496584D01*
Y499096D01*
X1116330Y501522D01*
X1115074Y503698D01*
X1113298Y505474D01*
X1111122Y506730D01*
X1108696Y507380D01*
D02*
G37*
G36*
X1005097Y496526D02*
X1003307D01*
X1001653Y495841D01*
X1000387Y494576D01*
X999702Y492922D01*
Y491132D01*
X1000387Y489478D01*
X1001653Y488212D01*
X1003307Y487527D01*
X1005097D01*
X1006751Y488212D01*
X1006963Y488424D01*
X1050226D01*
X1050975Y487675D01*
X1052629Y486990D01*
X1054419D01*
X1056073Y487675D01*
X1057339Y488941D01*
X1058024Y490595D01*
Y492385D01*
X1057339Y494039D01*
X1056073Y495305D01*
X1054419Y495990D01*
X1052629D01*
X1050975Y495305D01*
X1050762Y495092D01*
X1007500D01*
X1006751Y495841D01*
X1005097Y496526D01*
D02*
G37*
%LPD*%
D24*
X1069340Y653796D02*
X1092200Y630936D01*
Y589280D02*
Y630936D01*
X926846Y511302D02*
X939923Y524380D01*
X966206D01*
X926846Y467614D02*
Y511302D01*
X966216Y524256D02*
X997458D01*
X938530Y455930D02*
X962660D01*
X926846Y467614D02*
X938530Y455930D01*
X998942Y543854D02*
Y554048D01*
X859602Y588010D02*
X945880D01*
X849630Y597982D02*
X859602Y588010D01*
X849630Y597982D02*
Y600710D01*
X1000760Y527558D02*
Y541528D01*
X1001014Y541782D01*
X997458Y524256D02*
X1000760Y527558D01*
X945880Y588010D02*
X971951D01*
X945880D02*
X971510Y562380D01*
Y560480D02*
Y562380D01*
X1017270Y560440D02*
X1017290Y560420D01*
Y541802D02*
Y560420D01*
X1017270Y541782D02*
X1017290Y541802D01*
X998942Y543854D02*
X1001014Y541782D01*
X994410Y558580D02*
X998942Y554048D01*
X994410Y558580D02*
Y560480D01*
X971403Y541889D02*
Y560373D01*
X971296Y541782D02*
X971403Y541889D01*
Y560373D02*
X971510Y560480D01*
X971951Y588010D02*
X984031Y575930D01*
X1070678Y580718D02*
Y600778D01*
X1065890Y575930D02*
X1070678Y580718D01*
X984031Y575930D02*
X1065890D01*
X971296Y539115D02*
Y541782D01*
X1070678Y600778D02*
X1078230Y608330D01*
X1092200Y589280D02*
X1107440Y574040D01*
D25*
X1044448Y670705D02*
X1055624Y659529D01*
Y655320D02*
X1065276Y645668D01*
X1055624Y655320D02*
Y659529D01*
X1044448Y670705D02*
Y670814D01*
X954532Y506476D02*
X955198D01*
X967351Y518629D02*
X1028915D01*
X955198Y506476D02*
X967351Y518629D01*
X988659Y504190D02*
X1034158D01*
X971550Y504444D02*
X979551Y512445D01*
X1031621D01*
X1004202Y492026D02*
X1004470Y491758D01*
X1053256D02*
X1053524Y491490D01*
X1004470Y491758D02*
X1053256D01*
X1058926Y520700D02*
X1066337Y528111D01*
Y537546D01*
X1039876Y520700D02*
X1058926D01*
X1044318Y514338D02*
X1053816D01*
X1044318D02*
Y514350D01*
X1066800Y508936D02*
X1108049Y550186D01*
X1031621Y512445D02*
X1039876Y520700D01*
X1028915Y518629D02*
X1037336Y527050D01*
X1034158Y504190D02*
X1044318Y514350D01*
X1065547Y549957D02*
Y560144D01*
X1065621Y560218D01*
X1042641Y527050D02*
X1065547Y549957D01*
X1037336Y527050D02*
X1042641D01*
X1035812Y665734D02*
X1062990Y638556D01*
Y607060D02*
Y638556D01*
X1027684Y661162D02*
X1057220Y631626D01*
Y596320D02*
Y631626D01*
X917956Y535940D02*
X918210Y535686D01*
X863600Y535940D02*
X917956D01*
X849630Y549910D02*
X863600Y535940D01*
X1066800Y502823D02*
Y508936D01*
X968583Y536402D02*
X971296Y539115D01*
X1057220Y596320D02*
X1062990Y590550D01*
Y582930D02*
Y590550D01*
X1015492Y543560D02*
X1017270Y541782D01*
X986572Y540802D02*
X987552Y541782D01*
X1017270Y560440D02*
X1017310Y560480D01*
X987552Y541782D02*
Y543812D01*
X990854Y547114D01*
D26*
X1107440Y497840D02*
D03*
X1132840D02*
D03*
X1107440Y523240D02*
D03*
X1132840D02*
D03*
X1107440Y548640D02*
D03*
X1132840D02*
D03*
X1107440Y574040D02*
D03*
X1132840D02*
D03*
X1107440Y599440D02*
D03*
X849630Y499110D02*
D03*
X875030D02*
D03*
X849630Y524510D02*
D03*
X875030D02*
D03*
X849630Y549910D02*
D03*
X875030D02*
D03*
X849630Y575310D02*
D03*
X875030D02*
D03*
X849630Y600710D02*
D03*
D27*
X1132840Y599440D02*
D03*
X875030Y600710D02*
D03*
D28*
X1069340Y653796D02*
D03*
X1065276Y645668D02*
D03*
X1044448Y670814D02*
D03*
X966206Y524380D02*
D03*
X954532Y506476D02*
D03*
X988659Y504190D02*
D03*
X971550Y504444D02*
D03*
X1004202Y492026D02*
D03*
X1053524Y491490D02*
D03*
X1053816Y514338D02*
D03*
X1065621Y560218D02*
D03*
X1035812Y665734D02*
D03*
X1027684Y661162D02*
D03*
X918210Y535686D02*
D03*
X1062990Y607060D02*
D03*
Y582930D02*
D03*
X1066800Y502823D02*
D03*
X1078230Y608330D02*
D03*
X962660Y455930D02*
D03*
D29*
X1066337Y537546D02*
D03*
D30*
X991362Y627888D02*
D03*
D31*
X1001014Y541782D02*
D03*
X1017270D02*
D03*
X971296D02*
D03*
X987552D02*
D03*
D32*
X994410Y627380D02*
D03*
D33*
X971510Y560480D02*
D03*
X994410D02*
D03*
X1017310D02*
D03*
D34*
X971296Y539115D02*
X974368Y536043D01*
M02*
